{
.appVersion = "934";
date = "2016-04-11 17:54:51 +0000";
designer = "Maciej Wloczewski";
familyName = Praho;
featurePrefixes = (
{
automatic = 1;
code = "languagesystem DFLT dflt;\012";
name = Languagesystems;
}
);
fontMaster = (
{
alignmentZones = (
"{783, 7}",
"{700, 10}",
"{574, 10}",
"{540, 10}",
"{0, -10}"
);
ascender = 800;
capHeight = 700;
descender = -200;
guideLines = (
{
position = "{103, -136}";
},
{
position = "{287, 280}";
}
);
horizontalStems = (
20,
24
);
id = "E633209E-E2B6-404C-90C5-15D4CC42EC04";
userData = {
GSOffsetHorizontal = -235;
GSOffsetVertical = 70;
};
verticalStems = (
220,
230
);
weight = Bold;
weightValue = 220;
xHeight = 540;
}
);
glyphs = (
{
color = 3;
glyphname = A;
lastChange = "2016-10-31 18:38:27 +0000";
layers = (
{
anchors = (
{
name = bottom;
position = "{309, 0}";
},
{
name = ogonek;
position = "{563, 10}";
},
{
name = top;
position = "{309, 700}";
}
);
associatedMasterId = "F46DA1CF-2E88-465F-AE2F-6AF07AC13E65";
layerId = "CE4D4EBE-48E4-490E-A10F-F1DCBCCBB9CB";
name = "Sep 9 16, 09:26";
paths = (
{
closed = 1;
nodes = (
"305 700 LINE",
"279 700 LINE",
"296 654 LINE",
"89 0 LINE",
"111 0 LINE",
"316 651 LINE",
"297 651 LINE",
"533 0 LINE",
"559 0 LINE"
);
},
{
closed = 1;
nodes = (
"165 199 LINE",
"468 199 LINE",
"468 221 LINE",
"165 221 LINE"
);
},
{
closed = 1;
nodes = (
"8 0 LINE",
"206 0 LINE",
"206 16 LINE",
"8 16 LINE"
);
},
{
closed = 1;
nodes = (
"431 0 LINE",
"646 0 LINE",
"646 16 LINE",
"431 16 LINE"
);
}
);
width = 647;
},
{
anchors = (
{
name = bottom;
position = "{352, 0}";
},
{
name = ogonek;
position = "{685, 0}";
},
{
name = top;
position = "{352, 700}";
}
);
layerId = "E633209E-E2B6-404C-90C5-15D4CC42EC04";
paths = (
{
closed = 1;
nodes = (
"467 700 LINE",
"224 700 LINE",
"242 629 LINE",
"64 0 LINE",
"110 0 LINE",
"285 629 LINE",
"257 629 LINE",
"440 0 LINE",
"685 0 LINE"
);
},
{
closed = 1;
nodes = (
"138 196 LINE",
"537 196 LINE",
"538 233 LINE",
"139 233 LINE"
);
},
{
closed = 1;
nodes = (
"-2 0 LINE",
"257 0 LINE",
"257 20 LINE",
"118 136 LINE",
"-2 20 LINE"
);
},
{
closed = 1;
nodes = (
"360 0 LINE",
"719 0 LINE",
"719 24 LINE",
"360 24 LINE"
);
}
);
width = 721;
}
);
leftKerningGroup = A;
rightKerningGroup = A;
unicode = 0041;
},
{
color = 3;
glyphname = B;
lastChange = "2016-10-31 18:38:27 +0000";
layers = (
{
anchors = (
{
name = bottom;
position = "{352, 0}";
},
{
name = top;
position = "{352, 700}";
}
);
layerId = "E633209E-E2B6-404C-90C5-15D4CC42EC04";
paths = (
{
closed = 1;
nodes = (
"321 0 LINE",
"321 700 LINE",
"91 700 LINE",
"91 0 LINE"
);
},
{
closed = 1;
nodes = (
"561 380 OFFCURVE",
"656 450 OFFCURVE",
"656 546 CURVE SMOOTH",
"656 646 OFFCURVE",
"552 700 OFFCURVE",
"347 700 CURVE SMOOTH",
"8 700 LINE",
"8 676 LINE",
"317 676 LINE SMOOTH",
"401 676 OFFCURVE",
"425 613 OFFCURVE",
"425 519 CURVE SMOOTH",
"425 438 OFFCURVE",
"407 384 OFFCURVE",
"337 384 CURVE SMOOTH",
"309 384 LINE",
"309 354 LINE",
"333 354 LINE SMOOTH",
"443 354 OFFCURVE",
"472 295 OFFCURVE",
"472 191 CURVE SMOOTH",
"472 97 OFFCURVE",
"448 24 OFFCURVE",
"337 24 CURVE SMOOTH",
"8 24 LINE",
"8 0 LINE",
"367 0 LINE SMOOTH",
"602 0 OFFCURVE",
"703 88 OFFCURVE",
"703 195 CURVE SMOOTH",
"703 310 OFFCURVE",
"585 361 OFFCURVE",
"410 372 CURVE"
);
}
);
width = 717;
},
{
associatedMasterId = "E633209E-E2B6-404C-90C5-15D4CC42EC04";
layerId = "2376B024-E559-4B49-82D1-4D719BA63A27";
name = "Regular Jul 11 16, 10:28";
paths = (
{
closed = 1;
nodes = (
"300 0 LINE",
"300 700 LINE",
"77 700 LINE",
"77 0 LINE"
);
},
{
closed = 1;
nodes = (
"23 676 LINE",
"179 676 LINE",
"179 700 LINE",
"23 700 LINE"
);
},
{
closed = 1;
nodes = (
"23 0 LINE",
"179 0 LINE",
"179 24 LINE",
"23 24 LINE"
);
},
{
closed = 1;
nodes = (
"533 396 OFFCURVE",
"606 450 OFFCURVE",
"606 539 CURVE SMOOTH",
"606 646 OFFCURVE",
"502 700 OFFCURVE",
"327 700 CURVE SMOOTH",
"200 700 LINE",
"200 676 LINE",
"297 676 LINE SMOOTH",
"352 676 OFFCURVE",
"375 612 OFFCURVE",
"375 517 CURVE SMOOTH",
"375 435 OFFCURVE",
"356 380 OFFCURVE",
"307 380 CURVE SMOOTH",
"259 380 LINE",
"259 357 LINE",
"303 357 LINE SMOOTH",
"367 357 OFFCURVE",
"396 297 OFFCURVE",
"396 207 CURVE SMOOTH",
"396 97 OFFCURVE",
"364 24 OFFCURVE",
"297 24 CURVE SMOOTH",
"200 24 LINE",
"200 0 LINE",
"327 0 LINE SMOOTH",
"515 0 OFFCURVE",
"627 86 OFFCURVE",
"627 196 CURVE SMOOTH",
"627 289 OFFCURVE",
"546 350 OFFCURVE",
"400 372 CURVE"
);
}
);
width = 666;
}
);
leftKerningGroup = H;
leftMetricsKey = H;
rightKerningGroup = B;
unicode = 0042;
},
{
color = 3;
glyphname = C;
lastChange = "2016-10-31 18:38:27 +0000";
layers = (
{
anchors = (
{
name = bottom;
position = "{358, 0}";
},
{
name = top;
position = "{358, 700}";
}
);
layerId = "E633209E-E2B6-404C-90C5-15D4CC42EC04";
paths = (
{
closed = 1;
nodes = (
"425 676 OFFCURVE",
"441 671 OFFCURVE",
"441 671 CURVE",
"586 482 LINE",
"606 482 LINE",
"606 681 LINE",
"606 681 OFFCURVE",
"506 710 OFFCURVE",
"399 710 CURVE SMOOTH",
"196 710 OFFCURVE",
"31 612 OFFCURVE",
"31 320 CURVE SMOOTH",
"31 79 OFFCURVE",
"143 -10 OFFCURVE",
"368 -10 CURVE SMOOTH",
"505 -10 OFFCURVE",
"606 25 OFFCURVE",
"606 25 CURVE",
"606 224 LINE",
"586 224 LINE",
"441 29 LINE",
"441 29 OFFCURVE",
"421 24 OFFCURVE",
"398 24 CURVE SMOOTH",
"306 24 OFFCURVE",
"271 105 OFFCURVE",
"271 358 CURVE SMOOTH",
"271 594 OFFCURVE",
"302 676 OFFCURVE",
"401 676 CURVE SMOOTH"
);
}
);
width = 634;
},
{
anchors = (
{
name = bottom;
position = "{289, 0}";
},
{
name = top;
position = "{289, 700}";
}
);
associatedMasterId = "F46DA1CF-2E88-465F-AE2F-6AF07AC13E65";
layerId = "7E501C1F-9933-42BF-A380-7893A321AF8E";
name = "Oct 14 15, 11:23";
paths = (
{
closed = 1;
nodes = (
"437 684 OFFCURVE",
"491 666 OFFCURVE",
"491 666 CURVE",
"512 551 LINE",
"528 551 LINE",
"528 671 LINE",
"528 671 OFFCURVE",
"462 705 OFFCURVE",
"367 705 CURVE SMOOTH",
"173 705 OFFCURVE",
"68 566 OFFCURVE",
"68 337 CURVE SMOOTH",
"68 122 OFFCURVE",
"161 -5 OFFCURVE",
"344 -5 CURVE SMOOTH",
"413 -5 OFFCURVE",
"487 13 OFFCURVE",
"535 44 CURVE",
"535 173 LINE",
"519 173 LINE",
"498 44 LINE",
"453 25 OFFCURVE",
"397 15 OFFCURVE",
"349 15 CURVE SMOOTH",
"181 15 OFFCURVE",
"94 137 OFFCURVE",
"94 343 CURVE SMOOTH",
"94 558 OFFCURVE",
"190 684 OFFCURVE",
"369 684 CURVE SMOOTH"
);
}
);
width = 599;
},
{
anchors = (
{
name = bottom;
position = "{345, 0}";
},
{
name = top;
position = "{345, 700}";
}
);
associatedMasterId = "E633209E-E2B6-404C-90C5-15D4CC42EC04";
layerId = "23DC64F8-7BDB-49D1-8623-9864E2DFFEE8";
name = "Oct 14 15, 11:23";
paths = (
{
closed = 1;
nodes = (
"408 681 OFFCURVE",
"423 676 OFFCURVE",
"423 676 CURVE",
"571 482 LINE",
"587 482 LINE",
"587 681 LINE",
"587 681 OFFCURVE",
"489 710 OFFCURVE",
"384 710 CURVE SMOOTH",
"190 710 OFFCURVE",
"31 612 OFFCURVE",
"31 320 CURVE SMOOTH",
"31 79 OFFCURVE",
"139 -10 OFFCURVE",
"354 -10 CURVE SMOOTH",
"489 -10 OFFCURVE",
"587 25 OFFCURVE",
"587 25 CURVE",
"587 224 LINE",
"572 224 LINE",
"423 23 LINE",
"423 23 OFFCURVE",
"405 18 OFFCURVE",
"384 18 CURVE SMOOTH",
"301 18 OFFCURVE",
"271 100 OFFCURVE",
"271 358 CURVE SMOOTH",
"271 598 OFFCURVE",
"297 681 OFFCURVE",
"386 681 CURVE SMOOTH"
);
}
);
width = 635;
}
);
leftKerningGroup = O;
leftMetricsKey = O;
rightKerningGroup = C;
unicode = 0043;
},
{
color = 3;
glyphname = D;
lastChange = "2016-10-31 18:38:27 +0000";
layers = (
{
anchors = (
{
name = bottom;
position = "{372, 0}";
},
{
name = center;
position = "{216, 350}";
},
{
name = top;
position = "{372, 700}";
}
);
layerId = "E633209E-E2B6-404C-90C5-15D4CC42EC04";
paths = (
{
closed = 1;
nodes = (
"91 700 LINE",
"91 0 LINE",
"321 0 LINE",
"321 700 LINE"
);
},
{
closed = 1;
nodes = (
"8 700 LINE",
"8 676 LINE",
"333 676 LINE SMOOTH",
"462 676 OFFCURVE",
"494 573 OFFCURVE",
"494 369 CURVE SMOOTH",
"494 165 OFFCURVE",
"462 24 OFFCURVE",
"333 24 CURVE SMOOTH",
"8 24 LINE",
"8 0 LINE",
"353 0 LINE SMOOTH",
"622 0 OFFCURVE",
"734 161 OFFCURVE",
"734 378 CURVE SMOOTH",
"734 624 OFFCURVE",
"622 700 OFFCURVE",
"353 700 CURVE SMOOTH"
);
}
);
width = 761;
},
{
anchors = (
{
name = bottom;
position = "{346, 0}";
},
{
name = center;
position = "{346, 350}";
},
{
name = top;
position = "{346, 700}";
}
);
associatedMasterId = "E633209E-E2B6-404C-90C5-15D4CC42EC04";
layerId = "28284D58-6275-4838-8C28-C4839877F531";
name = "Bold Aug 10 16, 11:43";
paths = (
{
closed = 1;
nodes = (
"245 25 LINE",
"245 0 LINE",
"324 0 LINE SMOOTH",
"565 0 OFFCURVE",
"665 149 OFFCURVE",
"665 388 CURVE SMOOTH",
"665 629 OFFCURVE",
"565 700 OFFCURVE",
"324 700 CURVE SMOOTH",
"262 700 LINE",
"262 675 LINE",
"304 675 LINE SMOOTH",
"401 675 OFFCURVE",
"425 572 OFFCURVE",
"425 375 CURVE SMOOTH",
"425 145 OFFCURVE",
"401 25 OFFCURVE",
"304 25 CURVE SMOOTH"
);
},
{
closed = 1;
nodes = (
"82 700 LINE",
"82 0 LINE",
"312 0 LINE",
"312 700 LINE"
);
},
{
closed = 1;
nodes = (
"8 676 LINE",
"171 676 LINE",
"171 700 LINE",
"8 700 LINE"
);
},
{
closed = 1;
nodes = (
"8 0 LINE",
"171 0 LINE",
"171 24 LINE",
"8 24 LINE"
);
}
);
width = 695;
}
);
leftKerningGroup = H;
leftMetricsKey = H;
rightKerningGroup = D;
rightMetricsKey = "=O-4";
unicode = 0044;
},
{
color = 3;
glyphname = E;
lastChange = "2016-10-31 18:38:27 +0000";
layers = (
{
anchors = (
{
name = bottom;
position = "{301, 0}";
},
{
name = ogonek;
position = "{593, 0}";
},
{
name = top;
position = "{301, 700}";
},
{
name = topleft;
position = "{20, 700}";
}
);
components = (
{
name = beak_case;
transform = "{1, 0, 0, 1, 593, 0}";
},
{
name = beak_case;
transform = "{0.9, 0, 0, -0.89, 567, 700}";
},
{
name = beak_case;
transform = "{0.81, 0, 0, -0.53, 507, 375}";
},
{
name = beak_case;
transform = "{0.81, 0, 0, 0.53, 507, 351}";
}
);
layerId = "E633209E-E2B6-404C-90C5-15D4CC42EC04";
paths = (
{
closed = 1;
nodes = (
"91 700 LINE",
"91 0 LINE",
"321 0 LINE",
"321 700 LINE"
);
},
{
closed = 1;
nodes = (
"8 700 LINE",
"8 676 LINE",
"567 676 LINE",
"567 700 LINE"
);
},
{
closed = 1;
nodes = (
"507 375 LINE",
"217 375 LINE",
"217 351 LINE",
"507 351 LINE"
);
},
{
closed = 1;
nodes = (
"593 24 LINE",
"8 24 LINE",
"8 0 LINE",
"593 0 LINE"
);
}
);
width = 622;
},
{
anchors = (
{
name = bottom;
position = "{289, 0}";
},
{
name = ogonek;
position = "{516, 0}";
},
{
name = top;
position = "{289, 700}";
},
{
name = topleft;
position = "{40, 700}";
}
);
associatedMasterId = "E633209E-E2B6-404C-90C5-15D4CC42EC04";
layerId = "0B2A3D95-721F-4612-BA2F-4CF673046BE6";
name = "Bold Aug 8 15, 22:47";
paths = (
{
closed = 1;
nodes = (
"77 700 LINE",
"77 0 LINE",
"307 0 LINE",
"307 700 LINE"
);
},
{
closed = 1;
nodes = (
"3 700 LINE",
"3 676 LINE",
"379 676 LINE",
"504 521 LINE",
"516 521 LINE",
"516 700 LINE"
);
},
{
closed = 1;
nodes = (
"377 375 LINE",
"241 375 LINE",
"241 351 LINE",
"377 351 LINE",
"477 270 LINE",
"489 270 LINE",
"489 456 LINE",
"477 456 LINE"
);
},
{
closed = 1;
nodes = (
"379 24 LINE",
"3 24 LINE",
"3 0 LINE",
"532 0 LINE",
"532 211 LINE",
"518 211 LINE"
);
}
);
width = 558;
}
);
leftKerningGroup = H;
leftMetricsKey = H;
rightKerningGroup = E;
unicode = 0045;
},
{
color = 3;
glyphname = F;
lastChange = "2016-10-31 18:38:27 +0000";
layers = (
{
anchors = (
{
name = bottom;
position = "{296, 0}";
},
{
name = top;
position = "{296, 700}";
}
);
components = (
{
name = beak_case;
transform = "{0.81, 0, 0, -0.53, 501, 360}";
},
{
name = beak_case;
transform = "{0.81, 0, 0, 0.53, 501, 336}";
},
{
name = beak_case;
transform = "{0.9, 0, 0, -0.89, 570, 700}";
}
);
layerId = "E633209E-E2B6-404C-90C5-15D4CC42EC04";
paths = (
{
closed = 1;
nodes = (
"8 700 LINE",
"8 676 LINE",
"570 676 LINE",
"570 700 LINE"
);
},
{
closed = 1;
nodes = (
"91 700 LINE",
"91 0 LINE",
"321 0 LINE",
"321 700 LINE"
);
},
{
closed = 1;
nodes = (
"8 0 LINE",
"442 0 LINE",
"442 24 LINE",
"8 24 LINE"
);
},
{
closed = 1;
nodes = (
"501 360 LINE",
"211 360 LINE",
"211 336 LINE",
"501 336 LINE"
);
}
);
width = 591;
},
{
associatedMasterId = "E633209E-E2B6-404C-90C5-15D4CC42EC04";
layerId = "912293E3-3C99-461B-BC44-7A23FD670D9F";
name = "Regular Jul 12 16, 01:31";
paths = (
{
closed = 1;
nodes = (
"77 700 LINE",
"77 0 LINE",
"307 0 LINE",
"307 700 LINE"
);
},
{
closed = 1;
nodes = (
"3 676 LINE",
"139 676 LINE",
"139 700 LINE",
"3 700 LINE"
);
},
{
closed = 1;
nodes = (
"3 0 LINE",
"419 0 LINE",
"419 24 LINE",
"3 24 LINE"
);
},
{
closed = 1;
nodes = (
"456 404 OFFCURVE",
"433 360 OFFCURVE",
"381 360 CURVE SMOOTH",
"241 360 LINE",
"241 336 LINE",
"381 336 LINE SMOOTH",
"433 336 OFFCURVE",
"456 292 OFFCURVE",
"456 255 CURVE",
"473 255 LINE",
"473 441 LINE",
"456 441 LINE"
);
},
{
closed = 1;
nodes = (
"233 700 LINE",
"233 676 LINE",
"321 676 LINE SMOOTH",
"415 676 OFFCURVE",
"461 604 OFFCURVE",
"478 521 CURVE",
"500 521 LINE",
"500 700 LINE"
);
}
);
width = 547;
},
{
anchors = (
{
name = bottom;
position = "{306, 0}";
},
{
name = top;
position = "{306, 700}";
}
);
associatedMasterId = "E633209E-E2B6-404C-90C5-15D4CC42EC04";
layerId = "FABFCA44-3738-4043-BC69-237DAD5206F5";
name = "Sep 3 16, 14:07";
paths = (
{
closed = 1;
nodes = (
"8 700 LINE",
"8 676 LINE",
"412 676 LINE",
"530 521 LINE",
"550 521 LINE",
"550 700 LINE"
);
},
{
closed = 1;
nodes = (
"368 360 LINE",
"212 360 LINE",
"212 336 LINE",
"368 336 LINE",
"461 255 LINE",
"481 255 LINE",
"481 441 LINE",
"461 441 LINE"
);
},
{
closed = 1;
nodes = (
"91 700 LINE",
"91 0 LINE",
"321 0 LINE",
"321 700 LINE"
);
},
{
closed = 1;
nodes = (
"8 0 LINE",
"457 0 LINE",
"457 24 LINE",
"8 24 LINE"
);
}
);
width = 576;
}
);
leftKerningGroup = H;
leftMetricsKey = H;
rightKerningGroup = F;
unicode = 0046;
},
{
color = 3;
glyphname = G;
lastChange = "2016-10-31 18:38:27 +0000";
layers = (
{
anchors = (
{
name = bottom;
position = "{372, 0}";
},
{
name = top;
position = "{372, 700}";
}
);
layerId = "E633209E-E2B6-404C-90C5-15D4CC42EC04";
paths = (
{
closed = 1;
nodes = (
"359 340 LINE",
"359 324 LINE",
"437 307 LINE",
"437 35 LINE",
"437 35 OFFCURVE",
"408 25 OFFCURVE",
"379 25 CURVE SMOOTH",
"306 25 OFFCURVE",
"271 79 OFFCURVE",
"271 333 CURVE SMOOTH",
"271 596 OFFCURVE",
"331 676 OFFCURVE",
"429 676 CURVE SMOOTH",
"461 676 OFFCURVE",
"484 666 OFFCURVE",
"484 666 CURVE",
"614 482 LINE",
"634 482 LINE",
"634 675 LINE",
"634 675 OFFCURVE",
"528 710 OFFCURVE",
"407 710 CURVE SMOOTH",
"197 710 OFFCURVE",
"31 610 OFFCURVE",
"31 323 CURVE SMOOTH",
"31 81 OFFCURVE",
"151 -10 OFFCURVE",
"325 -10 CURVE SMOOTH",
"467 -10 OFFCURVE",
"576 55 OFFCURVE",
"576 55 CURVE",
"636 0 LINE",
"657 0 LINE",
"657 307 LINE",
"704 324 LINE",
"704 340 LINE"
);
}
);
width = 718;
},
{
anchors = (
{
name = bottom;
position = "{302, 0}";
},
{
name = top;
position = "{302, 700}";
}
);
associatedMasterId = "E633209E-E2B6-404C-90C5-15D4CC42EC04";
background = {
components = (
{
name = O;
transform = "{1, 0, 0, 1, 1, 0}";
}
);
};
layerId = "767BACCF-F146-495E-926B-A52D831C7AC5";
name = "Oct 14 15, 11:22";
paths = (
{
closed = 1;
nodes = (
"347 340 LINE",
"347 324 LINE",
"412 307 LINE",
"412 31 LINE",
"412 31 OFFCURVE",
"385 25 OFFCURVE",
"364 25 CURVE SMOOTH",
"300 25 OFFCURVE",
"271 79 OFFCURVE",
"271 333 CURVE SMOOTH",
"271 600 OFFCURVE",
"323 681 OFFCURVE",
"405 681 CURVE SMOOTH",
"438 681 OFFCURVE",
"459 671 OFFCURVE",
"459 671 CURVE",
"594 486 LINE",
"609 486 LINE",
"609 685 LINE",
"609 685 OFFCURVE",
"486 710 OFFCURVE",
"387 710 CURVE SMOOTH",
"189 710 OFFCURVE",
"31 610 OFFCURVE",
"31 323 CURVE SMOOTH",
"31 81 OFFCURVE",
"144 -10 OFFCURVE",
"310 -10 CURVE SMOOTH",
"424 -10 OFFCURVE",
"501 33 OFFCURVE",
"551 76 CURVE",
"611 0 LINE",
"632 0 LINE",
"632 307 LINE",
"686 324 LINE",
"686 340 LINE"
);
}
);
width = 702;
},
{
anchors = (
{
name = bottom;
position = "{314, 0}";
},
{
name = top;
position = "{314, 700}";
}
);
associatedMasterId = "F46DA1CF-2E88-465F-AE2F-6AF07AC13E65";
layerId = "9DFD9AAB-143B-4C0E-8803-1198C3B07B97";
name = "Oct 14 15, 11:22";
paths = (
{
closed = 1;
nodes = (
"432 320 LINE",
"432 304 LINE",
"525 294 LINE",
"525 103 LINE",
"525 103 OFFCURVE",
"455 15 OFFCURVE",
"332 15 CURVE SMOOTH",
"181 15 OFFCURVE",
"94 144 OFFCURVE",
"94 348 CURVE SMOOTH",
"94 565 OFFCURVE",
"213 684 OFFCURVE",
"371 684 CURVE SMOOTH",
"456 684 OFFCURVE",
"511 649 OFFCURVE",
"511 649 CURVE",
"532 518 LINE",
"548 518 LINE",
"548 656 LINE",
"548 656 OFFCURVE",
"480 705 OFFCURVE",
"372 705 CURVE SMOOTH",
"195 705 OFFCURVE",
"68 571 OFFCURVE",
"68 339 CURVE SMOOTH",
"68 124 OFFCURVE",
"160 -5 OFFCURVE",
"325 -5 CURVE SMOOTH",
"457 -5 OFFCURVE",
"530 83 OFFCURVE",
"530 83 CURVE",
"533 0 LINE",
"550 0 LINE",
"550 294 LINE",
"629 304 LINE",
"629 320 LINE"
);
}
);
width = 636;
}
);
leftKerningGroup = O;
leftMetricsKey = O;
rightKerningGroup = G;
unicode = 0047;
},
{
color = 3;
glyphname = H;
lastChange = "2016-10-31 18:38:27 +0000";
layers = (
{
anchors = (
{
name = bottom;
position = "{399, 0}";
},
{
name = center;
position = "{399, 350}";
},
{
name = top;
position = "{399, 700}";
},
{
name = topleft;
position = "{20, 700}";
}
);
layerId = "E633209E-E2B6-404C-90C5-15D4CC42EC04";
paths = (
{
closed = 1;
nodes = (
"477 700 LINE",
"477 0 LINE",
"707 0 LINE",
"707 700 LINE"
);
},
{
closed = 1;
nodes = (
"91 700 LINE",
"91 0 LINE",
"321 0 LINE",
"321 700 LINE"
);
},
{
closed = 1;
nodes = (
"258 333 LINE",
"545 333 LINE",
"545 370 LINE",
"258 370 LINE"
);
},
{
closed = 1;
nodes = (
"430 676 LINE",
"790 676 LINE",
"790 700 LINE",
"430 700 LINE"
);
},
{
closed = 1;
nodes = (
"430 0 LINE",
"790 0 LINE",
"790 24 LINE",
"430 24 LINE"
);
},
{
closed = 1;
nodes = (
"8 676 LINE",
"368 676 LINE",
"368 700 LINE",
"8 700 LINE"
);
},
{
closed = 1;
nodes = (
"8 0 LINE",
"368 0 LINE",
"368 24 LINE",
"8 24 LINE"
);
}
);
width = 798;
},
{
anchors = (
{
name = bottom;
position = "{363, 0}";
},
{
name = center;
position = "{363, 350}";
},
{
name = top;
position = "{363, 700}";
},
{
name = topleft;
position = "{20, 700}";
}
);
associatedMasterId = "E633209E-E2B6-404C-90C5-15D4CC42EC04";
layerId = "78718A3E-F2AB-4CC1-A588-5300F9561373";
name = "Bold Aug 8 15, 22:43";
paths = (
{
closed = 1;
nodes = (
"419 700 LINE",
"419 0 LINE",
"649 0 LINE",
"649 700 LINE"
);
},
{
closed = 1;
nodes = (
"77 700 LINE",
"77 0 LINE",
"307 0 LINE",
"307 700 LINE"
);
},
{
closed = 1;
nodes = (
"245 333 LINE",
"486 333 LINE",
"486 370 LINE",
"245 370 LINE"
);
},
{
closed = 1;
nodes = (
"381 676 LINE",
"723 676 LINE",
"723 700 LINE",
"381 700 LINE"
);
},
{
closed = 1;
nodes = (
"381 0 LINE",
"723 0 LINE",
"723 24 LINE",
"381 24 LINE"
);
},
{
closed = 1;
nodes = (
"3 676 LINE",
"345 676 LINE",
"345 700 LINE",
"3 700 LINE"
);
},
{
closed = 1;
nodes = (
"3 0 LINE",
"345 0 LINE",
"345 24 LINE",
"3 24 LINE"
);
}
);
width = 726;
}
);
leftKerningGroup = H;
rightKerningGroup = H;
unicode = 0048;
},
{
color = 3;
glyphname = I;
lastChange = "2016-10-31 18:38:27 +0000";
layers = (
{
anchors = (
{
name = bottom;
position = "{206, 0}";
},
{
name = ogonek;
position = "{321, 0}";
},
{
name = top;
position = "{206, 700}";
},
{
name = topleft;
position = "{34, 700}";
}
);
layerId = "E633209E-E2B6-404C-90C5-15D4CC42EC04";
paths = (
{
closed = 1;
nodes = (
"91 700 LINE",
"91 0 LINE",
"321 0 LINE",
"321 700 LINE"
);
},
{
closed = 1;
nodes = (
"8 676 LINE",
"404 676 LINE",
"404 700 LINE",
"8 700 LINE"
);
},
{
closed = 1;
nodes = (
"8 0 LINE",
"404 0 LINE",
"404 24 LINE",
"8 24 LINE"
);
}
);
width = 412;
}
);
leftKerningGroup = H;
leftMetricsKey = H;
rightKerningGroup = H;
rightMetricsKey = H;
unicode = 0049;
},
{
color = 3;
glyphname = J;
lastChange = "2016-10-31 18:38:27 +0000";
layers = (
{
anchors = (
{
name = bottom;
position = "{190, 0}";
},
{
name = top;
position = "{190, 700}";
}
);
layerId = "E633209E-E2B6-404C-90C5-15D4CC42EC04";
paths = (
{
closed = 1;
nodes = (
"11 676 LINE",
"408 676 LINE",
"408 700 LINE",
"11 700 LINE"
);
},
{
closed = 1;
nodes = (
"-2 -200 LINE",
"-2 -200 OFFCURVE",
"325 -210 OFFCURVE",
"325 80 CURVE SMOOTH",
"325 700 LINE",
"95 700 LINE",
"95 -30 LINE SMOOTH",
"95 -143 OFFCURVE",
"-6 -186 OFFCURVE",
"-6 -186 CURVE"
);
}
);
width = 413;
},
{
anchors = (
{
name = bottom;
position = "{192, 0}";
},
{
name = top;
position = "{192, 700}";
}
);
associatedMasterId = "E633209E-E2B6-404C-90C5-15D4CC42EC04";
layerId = "EE283D32-8A43-4747-8650-8EFC639D04CB";
name = "Regular Jul 23 16, 10:18";
paths = (
{
closed = 1;
nodes = (
"26 676 LINE",
"381 676 LINE",
"381 700 LINE",
"26 700 LINE"
);
},
{
closed = 1;
nodes = (
"53 -173 OFFCURVE",
"42 -157 OFFCURVE",
"42 -123 CURVE SMOOTH",
"42 -66 OFFCURVE",
"73 -25 OFFCURVE",
"73 -25 CURVE",
"73 -25 OFFCURVE",
"52 -20 OFFCURVE",
"28 -20 CURVE SMOOTH",
"-38 -20 OFFCURVE",
"-73 -57 OFFCURVE",
"-73 -110 CURVE SMOOTH",
"-73 -165 OFFCURVE",
"-35 -200 OFFCURVE",
"50 -200 CURVE SMOOTH",
"142 -200 OFFCURVE",
"327 -160 OFFCURVE",
"327 40 CURVE SMOOTH",
"327 700 LINE",
"97 700 LINE",
"97 -50 LINE SMOOTH",
"97 -159 OFFCURVE",
"84 -173 OFFCURVE",
"69 -173 CURVE SMOOTH"
);
}
);
width = 384;
}
);
leftKerningGroup = J;
rightKerningGroup = J;
rightMetricsKey = "=H-3";
unicode = 004A;
},
{
color = 3;
glyphname = K;
lastChange = "2016-10-31 18:38:27 +0000";
layers = (
{
anchors = (
{
name = bottom;
position = "{377, 0}";
},
{
name = top;
position = "{377, 700}";
}
);
layerId = "E633209E-E2B6-404C-90C5-15D4CC42EC04";
paths = (
{
closed = 1;
nodes = (
"91 700 LINE",
"91 0 LINE",
"321 0 LINE",
"321 700 LINE"
);
},
{
closed = 1;
nodes = (
"8 676 LINE",
"384 676 LINE",
"384 700 LINE",
"8 700 LINE"
);
},
{
closed = 1;
nodes = (
"8 0 LINE",
"359 0 LINE",
"359 24 LINE",
"8 24 LINE"
);
},
{
closed = 1;
nodes = (
"515 0 LINE",
"793 0 LINE",
"793 24 LINE",
"515 24 LINE"
);
},
{
closed = 1;
nodes = (
"762 700 LINE",
"485 700 LINE",
"485 680 LINE",
"565 585 LINE",
"346 390 LINE",
"511 0 LINE",
"755 0 LINE",
"579 390 LINE",
"397 390 LINE",
"616 585 LINE",
"762 680 LINE"
);
}
);
width = 796;
},
{
anchors = (
{
name = bottom;
position = "{377, 0}";
},
{
name = top;
position = "{377, 700}";
}
);
associatedMasterId = "E633209E-E2B6-404C-90C5-15D4CC42EC04";
layerId = "EBCAC897-17D6-4DFF-B740-A1BA7CB0A963";
name = "Sep 9 15, 10:06";
paths = (
{
closed = 1;
nodes = (
"91 700 LINE",
"91 0 LINE",
"321 0 LINE",
"321 700 LINE"
);
},
{
closed = 1;
nodes = (
"8 676 LINE",
"384 676 LINE",
"384 700 LINE",
"8 700 LINE"
);
},
{
closed = 1;
nodes = (
"8 0 LINE",
"359 0 LINE",
"359 24 LINE",
"8 24 LINE"
);
},
{
closed = 1;
nodes = (
"488 0 LINE",
"781 0 LINE",
"781 24 LINE",
"488 24 LINE"
);
},
{
closed = 1;
nodes = (
"767 700 LINE",
"530 700 LINE",
"530 676 LINE",
"621 676 LINE",
"346 390 LINE",
"484 0 LINE",
"728 0 LINE",
"579 390 LINE",
"393 390 LINE",
"676 676 LINE",
"767 676 LINE"
);
}
);
width = 771;
},
{
anchors = (
{
name = bottom;
position = "{342, 0}";
},
{
name = top;
position = "{342, 700}";
}
);
associatedMasterId = "F46DA1CF-2E88-465F-AE2F-6AF07AC13E65";
layerId = "FCD6FEE8-6CEE-4140-9408-69DC5896B9F2";
name = "Sep 9 15, 10:06";
paths = (
{
closed = 1;
nodes = (
"134 700 LINE",
"134 0 LINE",
"158 0 LINE",
"158 700 LINE"
);
},
{
closed = 1;
nodes = (
"26 684 LINE",
"262 684 LINE",
"262 700 LINE",
"26 700 LINE"
);
},
{
closed = 1;
nodes = (
"26 0 LINE",
"240 0 LINE",
"240 16 LINE",
"26 16 LINE"
);
},
{
closed = 1;
nodes = (
"534 0 LINE",
"640 0 LINE",
"640 16 LINE",
"534 16 LINE"
);
},
{
closed = 1;
nodes = (
"623 700 LINE",
"441 700 LINE",
"441 684 LINE",
"520 684 LINE",
"261 357 LINE",
"527 0 LINE",
"558 0 LINE",
"291 357 LINE",
"285 357 LINE",
"545 684 LINE",
"623 684 LINE"
);
}
);
width = 650;
}
);
leftKerningGroup = H;
leftMetricsKey = H;
rightKerningGroup = K;
unicode = 004B;
},
{
color = 3;
glyphname = L;
lastChange = "2016-10-31 18:46:57 +0000";
layers = (
{
anchors = (
{
name = bottom;
position = "{315, 0}";
},
{
name = center;
position = "{315, 350}";
},
{
name = top;
position = "{315, 700}";
},
{
name = topright;
position = "{609, 700}";
}
);
components = (
{
name = beak_case;
transform = "{1, 0, 0, 1, 609, 0}";
}
);
layerId = "E633209E-E2B6-404C-90C5-15D4CC42EC04";
paths = (
{
closed = 1;
nodes = (
"91 700 LINE",
"91 0 LINE",
"321 0 LINE",
"321 700 LINE"
);
},
{
closed = 1;
nodes = (
"8 676 LINE",
"427 676 LINE",
"427 700 LINE",
"8 700 LINE"
);
},
{
closed = 1;
nodes = (
"609 24 LINE",
"8 24 LINE",
"8 0 LINE",
"609 0 LINE"
);
}
);
width = 614;
},
{
associatedMasterId = "E633209E-E2B6-404C-90C5-15D4CC42EC04";
layerId = "014B40FC-7BBB-481A-A384-CE6E619A5C8D";
name = "Regular Jul 11 16, 10:03";
paths = (
{
closed = 1;
nodes = (
"97 700 LINE",
"97 0 LINE",
"327 0 LINE",
"327 700 LINE"
);
},
{
closed = 1;
nodes = (
"23 676 LINE",
"423 676 LINE",
"423 700 LINE",
"23 700 LINE"
);
},
{
closed = 1;
nodes = (
"23 0 LINE",
"153 0 LINE",
"153 24 LINE",
"23 24 LINE"
);
},
{
closed = 1;
nodes = (
"492 111 OFFCURVE",
"442 24 OFFCURVE",
"349 24 CURVE SMOOTH",
"261 24 LINE",
"261 0 LINE",
"532 0 LINE",
"532 211 LINE",
"508 211 LINE"
);
}
);
width = 580;
}
);
leftKerningGroup = H;
leftMetricsKey = H;
rightKerningGroup = L;
unicode = 004C;
},
{
color = 3;
glyphname = Lslash;
lastChange = "2016-10-31 18:38:27 +0000";
layers = (
{
components = (
{
name = L;
transform = "{1, 0, 0, 1, -1, 0}";
}
);
layerId = "E633209E-E2B6-404C-90C5-15D4CC42EC04";
paths = (
{
closed = 1;
nodes = (
"167 277 LINE",
"486 469 LINE",
"469 500 LINE",
"167 319 LINE"
);
},
{
closed = 1;
nodes = (
"227 373 LINE",
"-16 228 LINE",
"2 196 LINE",
"227 331 LINE"
);
}
);
width = 613;
}
);
leftKerningGroup = Lslash;
rightKerningGroup = L;
rightMetricsKey = L;
unicode = 0141;
},
{
color = 3;
glyphname = M;
lastChange = "2016-10-31 18:38:27 +0000";
layers = (
{
anchors = (
{
name = bottom;
position = "{463, 0}";
},
{
name = top;
position = "{463, 700}";
}
);
guideLines = (
{
angle = 111.5732;
position = "{479, 291}";
}
);
layerId = "E633209E-E2B6-404C-90C5-15D4CC42EC04";
paths = (
{
closed = 1;
nodes = (
"624 700 LINE",
"469 297 LINE",
"483 297 LINE",
"328 700 LINE",
"91 700 LINE",
"91 0 LINE",
"131 0 LINE",
"131 608 LINE",
"122 607 LINE",
"362 0 LINE",
"396 0 LINE",
"613 564 LINE",
"602 565 LINE",
"602 0 LINE",
"833 0 LINE",
"833 700 LINE"
);
},
{
closed = 1;
nodes = (
"6 676 LINE",
"255 676 LINE",
"255 700 LINE",
"6 700 LINE"
);
},
{
closed = 1;
nodes = (
"0 0 LINE",
"265 0 LINE",
"265 20 LINE",
"109 144 LINE",
"0 20 LINE"
);
},
{
closed = 1;
nodes = (
"492 0 LINE",
"916 0 LINE",
"916 24 LINE",
"492 24 LINE"
);
},
{
closed = 1;
nodes = (
"678 676 LINE",
"916 676 LINE",
"916 700 LINE",
"678 700 LINE"
);
}
);
width = 924;
},
{
anchors = (
{
name = bottom;
position = "{456, 0}";
},
{
name = top;
position = "{456, 700}";
}
);
associatedMasterId = "E633209E-E2B6-404C-90C5-15D4CC42EC04";
layerId = "9D67DA14-9E84-41E5-A2B0-209DBA288BF6";
name = "Oct 14 15, 11:39";
paths = (
{
closed = 1;
nodes = (
"603 700 LINE",
"449 291 LINE",
"464 291 LINE",
"330 700 LINE",
"91 700 LINE",
"91 0 LINE",
"130 0 LINE",
"130 558 LINE",
"121 557 LINE",
"347 0 LINE",
"388 0 LINE",
"599 564 LINE",
"589 565 LINE",
"589 0 LINE",
"820 0 LINE",
"820 700 LINE"
);
},
{
closed = 1;
nodes = (
"8 676 LINE",
"254 676 LINE",
"254 700 LINE",
"8 700 LINE"
);
},
{
closed = 1;
nodes = (
"8 0 LINE",
"242 0 LINE",
"242 24 LINE",
"8 24 LINE"
);
},
{
closed = 1;
nodes = (
"481 0 LINE",
"903 0 LINE",
"903 24 LINE",
"481 24 LINE"
);
},
{
closed = 1;
nodes = (
"664 676 LINE",
"903 676 LINE",
"903 700 LINE",
"664 700 LINE"
);
}
);
width = 911;
},
{
anchors = (
{
name = bottom;
position = "{416, 0}";
},
{
name = top;
position = "{416, 700}";
}
);
associatedMasterId = "F46DA1CF-2E88-465F-AE2F-6AF07AC13E65";
layerId = "21A7EFE0-A746-4A3A-A435-8C726AFBA92E";
name = "Oct 14 15, 11:39";
paths = (
{
closed = 1;
nodes = (
"684 700 LINE",
"420 15 LINE",
"432 15 LINE",
"166 700 LINE",
"134 700 LINE",
"134 0 LINE",
"154 0 LINE",
"154 694 LINE",
"144 693 LINE",
"413 0 LINE",
"435 0 LINE",
"701 690 LINE",
"694 690 LINE",
"694 0 LINE",
"718 0 LINE",
"718 700 LINE"
);
},
{
closed = 1;
nodes = (
"26 684 LINE",
"157 684 LINE",
"157 700 LINE",
"26 700 LINE"
);
},
{
closed = 1;
nodes = (
"26 0 LINE",
"245 0 LINE",
"245 16 LINE",
"26 16 LINE"
);
},
{
closed = 1;
nodes = (
"593 0 LINE",
"826 0 LINE",
"826 16 LINE",
"593 16 LINE"
);
},
{
closed = 1;
nodes = (
"706 684 LINE",
"826 684 LINE",
"826 700 LINE",
"706 700 LINE"
);
}
);
width = 852;
}
);
leftKerningGroup = M;
rightKerningGroup = M;
rightMetricsKey = H;
unicode = 004D;
},
{
color = 3;
glyphname = N;
lastChange = "2016-10-31 18:45:49 +0000";
layers = (
{
anchors = (
{
name = bottom;
position = "{401, 0}";
},
{
name = top;
position = "{401, 700}";
}
);
layerId = "E633209E-E2B6-404C-90C5-15D4CC42EC04";
paths = (
{
closed = 1;
nodes = (
"470 680 LINE",
"628 556 LINE",
"733 680 LINE",
"733 700 LINE",
"470 700 LINE"
);
},
{
closed = 1;
nodes = (
"8 0 LINE",
"271 0 LINE",
"271 20 LINE",
"112 144 LINE",
"8 20 LINE"
);
},
{
closed = 1;
nodes = (
"510 0 LINE",
"650 0 LINE",
"650 700 LINE",
"607 700 LINE",
"607 172 LINE",
"633 225 LINE",
"293 700 LINE",
"115 685 LINE",
"115 555 LINE"
);
},
{
closed = 1;
nodes = (
"8 676 LINE",
"292 676 LINE",
"292 700 LINE",
"8 700 LINE"
);
},
{
closed = 1;
nodes = (
"91 700 LINE",
"91 0 LINE",
"134 0 LINE",
"134 700 LINE"
);
}
);
width = 737;
},
{
anchors = (
{
name = bottom;
position = "{349, 0}";
},
{
name = top;
position = "{349, 700}";
}
);
associatedMasterId = "E633209E-E2B6-404C-90C5-15D4CC42EC04";
layerId = "E96D5D5C-AA81-4D6E-B7B6-BD32BD9ED326";
name = "Sep 9 15, 09:59";
paths = (
{
closed = 1;
nodes = (
"467 676 LINE",
"682 676 LINE",
"682 700 LINE",
"467 700 LINE"
);
},
{
closed = 1;
nodes = (
"8 0 LINE",
"217 0 LINE",
"217 24 LINE",
"8 24 LINE"
);
},
{
closed = 1;
nodes = (
"423 0 LINE",
"599 0 LINE",
"599 700 LINE",
"559 700 LINE",
"559 172 LINE",
"584 191 LINE",
"297 700 LINE",
"113 685 LINE",
"113 555 LINE"
);
},
{
closed = 1;
nodes = (
"8 676 LINE",
"297 676 LINE",
"297 700 LINE",
"8 700 LINE"
);
},
{
closed = 1;
nodes = (
"91 700 LINE",
"91 0 LINE",
"131 0 LINE",
"131 700 LINE"
);
}
);
width = 690;
},
{
anchors = (
{
name = bottom;
position = "{346, 0}";
},
{
name = top;
position = "{346, 700}";
}
);
associatedMasterId = "F46DA1CF-2E88-465F-AE2F-6AF07AC13E65";
layerId = "6834E10E-7AF7-442C-8F78-657E902A401B";
name = "Sep 9 15, 10:04";
paths = (
{
closed = 1;
nodes = (
"449 684 LINE",
"677 684 LINE",
"677 700 LINE",
"449 700 LINE"
);
},
{
closed = 1;
nodes = (
"23 0 LINE",
"251 0 LINE",
"251 16 LINE",
"23 16 LINE"
);
},
{
closed = 1;
nodes = (
"551 0 LINE",
"568 0 LINE",
"568 700 LINE",
"548 700 LINE",
"548 22 LINE",
"560 32 LINE",
"165 700 LINE",
"141 699 LINE",
"141 693 LINE"
);
},
{
closed = 1;
nodes = (
"23 684 LINE",
"159 684 LINE",
"159 700 LINE",
"23 700 LINE"
);
},
{
closed = 1;
nodes = (
"130 700 LINE",
"130 0 LINE",
"150 0 LINE",
"150 700 LINE"
);
}
);
width = 698;
}
);
leftKerningGroup = H;
leftMetricsKey = H;
rightKerningGroup = H;
rightMetricsKey = "=H-4";
unicode = 004E;
},
{
color = 3;
glyphname = O;
lastChange = "2016-10-31 18:38:27 +0000";
layers = (
{
anchors = (
{
name = bottom;
position = "{369, 0}";
},
{
name = center;
position = "{369, 350}";
},
{
name = ogonek;
position = "{453, 0}";
},
{
name = top;
position = "{369, 700}";
},
{
name = topleft;
position = "{1, 700}";
},
{
name = topright;
position = "{736, 700}";
}
);
layerId = "E633209E-E2B6-404C-90C5-15D4CC42EC04";
paths = (
{
closed = 1;
nodes = (
"587 -10 OFFCURVE",
"706 109 OFFCURVE",
"706 354 CURVE SMOOTH",
"706 593 OFFCURVE",
"593 710 OFFCURVE",
"374 710 CURVE SMOOTH",
"149 710 OFFCURVE",
"31 586 OFFCURVE",
"31 342 CURVE SMOOTH",
"31 105 OFFCURVE",
"142 -10 OFFCURVE",
"363 -10 CURVE SMOOTH"
);
},
{
closed = 1;
nodes = (
"304 28 OFFCURVE",
"271 144 OFFCURVE",
"271 360 CURVE SMOOTH",
"271 576 OFFCURVE",
"304 672 OFFCURVE",
"365 672 CURVE SMOOTH",
"434 672 OFFCURVE",
"466 548 OFFCURVE",
"466 335 CURVE SMOOTH",
"466 118 OFFCURVE",
"433 28 OFFCURVE",
"372 28 CURVE SMOOTH"
);
}
);
width = 737;
}
);
leftKerningGroup = O;
rightKerningGroup = O;
unicode = 004F;
},
{
color = 3;
glyphname = P;
lastChange = "2016-10-31 18:38:27 +0000";
layers = (
{
anchors = (
{
name = bottom;
position = "{292, 0}";
},
{
name = top;
position = "{292, 700}";
}
);
associatedMasterId = "F46DA1CF-2E88-465F-AE2F-6AF07AC13E65";
layerId = "4ED08C66-BA95-4DF5-BFCF-E235CC43DEE8";
name = "Light ]//90]";
paths = (
{
closed = 1;
nodes = (
"503 334 OFFCURVE",
"380 278 OFFCURVE",
"298 278 CURVE SMOOTH",
"278 278 OFFCURVE",
"263 281 OFFCURVE",
"263 281 CURVE",
"263 267 LINE",
"263 267 OFFCURVE",
"279 264 OFFCURVE",
"301 264 CURVE SMOOTH",
"424 264 OFFCURVE",
"529 358 OFFCURVE",
"529 489 CURVE SMOOTH",
"529 619 OFFCURVE",
"425 700 OFFCURVE",
"268 700 CURVE SMOOTH",
"26 700 LINE",
"26 684 LINE",
"263 684 LINE SMOOTH",
"407 684 OFFCURVE",
"503 615 OFFCURVE",
"503 483 CURVE SMOOTH"
);
},
{
closed = 1;
nodes = (
"134 700 LINE",
"134 0 LINE",
"158 0 LINE",
"158 700 LINE"
);
},
{
closed = 1;
nodes = (
"26 0 LINE",
"260 0 LINE",
"260 16 LINE",
"26 16 LINE"
);
}
);
width = 584;
},
{
anchors = (
{
name = bottom;
position = "{328, 0}";
},
{
name = top;
position = "{328, 700}";
}
);
associatedMasterId = "E633209E-E2B6-404C-90C5-15D4CC42EC04";
layerId = "535D87AA-3B13-4C35-A381-FE671A4C57D5";
name = "Bold ]//90]";
paths = (
{
closed = 1;
nodes = (
"434 360 OFFCURVE",
"389 307 OFFCURVE",
"366 289 CURVE SMOOTH",
"357 282 OFFCURVE",
"351 280 OFFCURVE",
"351 280 CURVE",
"351 272 LINE",
"351 272 OFFCURVE",
"367 269 OFFCURVE",
"396 269 CURVE SMOOTH",
"558 269 OFFCURVE",
"664 362 OFFCURVE",
"664 491 CURVE SMOOTH",
"664 633 OFFCURVE",
"537 700 OFFCURVE",
"321 700 CURVE SMOOTH",
"8 700 LINE",
"8 676 LINE",
"304 676 LINE SMOOTH",
"386 676 OFFCURVE",
"434 604 OFFCURVE",
"434 480 CURVE SMOOTH"
);
},
{
closed = 1;
nodes = (
"91 700 LINE",
"91 0 LINE",
"321 0 LINE",
"321 700 LINE"
);
},
{
closed = 1;
nodes = (
"8 0 LINE",
"403 0 LINE",
"403 24 LINE",
"8 24 LINE"
);
}
);
width = 685;
},
{
anchors = (
{
name = bottom;
position = "{328, 0}";
},
{
name = top;
position = "{328, 700}";
}
);
associatedMasterId = "E633209E-E2B6-404C-90C5-15D4CC42EC04";
layerId = "BDE6BA37-B1AE-49F0-8A4C-890BB256113C";
name = "Oct 6 16, 15:15";
paths = (
{
closed = 1;
nodes = (
"91 700 LINE",
"91 0 LINE",
"321 0 LINE",
"321 700 LINE"
);
},
{
closed = 1;
nodes = (
"8 0 LINE",
"403 0 LINE",
"403 24 LINE",
"8 24 LINE"
);
},
{
closed = 1;
nodes = (
"8 700 LINE",
"8 676 LINE",
"304 676 LINE SMOOTH",
"386 676 OFFCURVE",
"434 600 OFFCURVE",
"434 487 CURVE SMOOTH",
"434 339 OFFCURVE",
"351 272 OFFCURVE",
"351 272 CURVE SMOOTH",
"351 272 OFFCURVE",
"367 269 OFFCURVE",
"396 269 CURVE SMOOTH",
"558 269 OFFCURVE",
"664 362 OFFCURVE",
"664 491 CURVE SMOOTH",
"664 633 OFFCURVE",
"537 700 OFFCURVE",
"321 700 CURVE SMOOTH"
);
}
);
width = 685;
},
{
anchors = (
{
name = bottom;
position = "{292, 0}";
},
{
name = top;
position = "{292, 700}";
}
);
associatedMasterId = "F46DA1CF-2E88-465F-AE2F-6AF07AC13E65";
layerId = "6DDD0E0D-DF32-4FDC-BE35-F68E949D43B4";
name = "Oct 6 16, 15:15";
paths = (
{
closed = 1;
nodes = (
"134 700 LINE",
"134 0 LINE",
"158 0 LINE",
"158 700 LINE"
);
},
{
closed = 1;
nodes = (
"26 0 LINE",
"260 0 LINE",
"260 16 LINE",
"26 16 LINE"
);
},
{
closed = 1;
nodes = (
"26 700 LINE",
"26 684 LINE",
"263 684 LINE SMOOTH",
"407 684 OFFCURVE",
"503 618 OFFCURVE",
"503 486 CURVE SMOOTH",
"503 288 OFFCURVE",
"293 270 OFFCURVE",
"293 270 CURVE SMOOTH",
"293 270 OFFCURVE",
"300 269 OFFCURVE",
"311 269 CURVE SMOOTH",
"424 269 OFFCURVE",
"529 361 OFFCURVE",
"529 491 CURVE SMOOTH",
"529 619 OFFCURVE",
"425 700 OFFCURVE",
"268 700 CURVE SMOOTH"
);
}
);
width = 584;
},
{
anchors = (
{
name = bottom;
position = "{328, 0}";
},
{
name = top;
position = "{328, 700}";
}
);
associatedMasterId = "E633209E-E2B6-404C-90C5-15D4CC42EC04";
layerId = "53379BBA-7D1C-4EC0-9E4A-2C2A671E2B4F";
name = "Bold Oct 6 16, 15:16";
paths = (
{
closed = 1;
nodes = (
"91 700 LINE",
"91 0 LINE",
"321 0 LINE",
"321 700 LINE"
);
},
{
closed = 1;
nodes = (
"8 0 LINE",
"403 0 LINE",
"403 24 LINE",
"8 24 LINE"
);
},
{
closed = 1;
nodes = (
"8 700 LINE",
"8 676 LINE",
"304 676 LINE SMOOTH",
"386 676 OFFCURVE",
"434 600 OFFCURVE",
"434 487 CURVE SMOOTH",
"434 339 OFFCURVE",
"351 272 OFFCURVE",
"351 272 CURVE SMOOTH",
"351 272 OFFCURVE",
"367 269 OFFCURVE",
"396 269 CURVE SMOOTH",
"558 269 OFFCURVE",
"664 362 OFFCURVE",
"664 491 CURVE SMOOTH",
"664 633 OFFCURVE",
"537 700 OFFCURVE",
"321 700 CURVE SMOOTH"
);
}
);
width = 685;
},
{
anchors = (
{
name = bottom;
position = "{328, 0}";
},
{
name = top;
position = "{328, 700}";
}
);
layerId = "E633209E-E2B6-404C-90C5-15D4CC42EC04";
paths = (
{
closed = 1;
nodes = (
"434 372 OFFCURVE",
"403 325 OFFCURVE",
"379 305 CURVE SMOOTH",
"364 293 OFFCURVE",
"351 291 OFFCURVE",
"351 291 CURVE",
"351 272 LINE",
"351 272 OFFCURVE",
"367 269 OFFCURVE",
"396 269 CURVE SMOOTH",
"558 269 OFFCURVE",
"664 362 OFFCURVE",
"664 491 CURVE SMOOTH",
"664 633 OFFCURVE",
"537 700 OFFCURVE",
"321 700 CURVE SMOOTH",
"8 700 LINE",
"8 676 LINE",
"304 676 LINE SMOOTH",
"386 676 OFFCURVE",
"434 604 OFFCURVE",
"434 477 CURVE SMOOTH"
);
},
{
closed = 1;
nodes = (
"91 700 LINE",
"91 0 LINE",
"321 0 LINE",
"321 700 LINE"
);
},
{
closed = 1;
nodes = (
"8 0 LINE",
"416 0 LINE",
"416 24 LINE",
"8 24 LINE"
);
}
);
width = 677;
},
{
anchors = (
{
name = bottom;
position = "{292, 0}";
},
{
name = top;
position = "{292, 700}";
}
);
associatedMasterId = "F46DA1CF-2E88-465F-AE2F-6AF07AC13E65";
layerId = "0F228CA7-705D-488E-92DF-1D5504BDD694";
name = "Light Oct 6 16, 15:16";
paths = (
{
closed = 1;
nodes = (
"134 700 LINE",
"134 0 LINE",
"158 0 LINE",
"158 700 LINE"
);
},
{
closed = 1;
nodes = (
"26 0 LINE",
"260 0 LINE",
"260 16 LINE",
"26 16 LINE"
);
},
{
closed = 1;
nodes = (
"26 700 LINE",
"26 684 LINE",
"263 684 LINE SMOOTH",
"407 684 OFFCURVE",
"503 618 OFFCURVE",
"503 486 CURVE SMOOTH",
"503 288 OFFCURVE",
"293 270 OFFCURVE",
"293 270 CURVE SMOOTH",
"293 270 OFFCURVE",
"300 269 OFFCURVE",
"311 269 CURVE SMOOTH",
"424 269 OFFCURVE",
"529 361 OFFCURVE",
"529 491 CURVE SMOOTH",
"529 619 OFFCURVE",
"425 700 OFFCURVE",
"268 700 CURVE SMOOTH"
);
}
);
width = 584;
}
);
leftKerningGroup = H;
leftMetricsKey = H;
rightKerningGroup = P;
unicode = 0050;
},
{
color = 3;
glyphname = Q;
lastChange = "2016-10-31 18:38:27 +0000";
layers = (
{
anchors = (
{
name = bottom;
position = "{321, 0}";
},
{
name = top;
position = "{321, 700}";
}
);
associatedMasterId = "E633209E-E2B6-404C-90C5-15D4CC42EC04";
components = (
{
name = O;
}
);
layerId = "47BD7CA0-D3E6-4463-9101-F585C249C302";
name = "Regular Aug 3 16, 13:34";
paths = (
{
closed = 1;
nodes = (
"401 14 LINE",
"401 14 OFFCURVE",
"123 -16 OFFCURVE",
"123 -123 CURVE SMOOTH",
"123 -159 OFFCURVE",
"155 -180 OFFCURVE",
"219 -180 CURVE SMOOTH",
"320 -180 OFFCURVE",
"373 -127 OFFCURVE",
"500 -127 CURVE SMOOTH",
"568 -127 OFFCURVE",
"581 -142 OFFCURVE",
"581 -158 CURVE SMOOTH",
"581 -170 OFFCURVE",
"573 -183 OFFCURVE",
"573 -183 CURVE",
"584 -190 LINE",
"584 -190 OFFCURVE",
"627 -138 OFFCURVE",
"627 -90 CURVE SMOOTH",
"627 -54 OFFCURVE",
"603 -19 OFFCURVE",
"512 -19 CURVE SMOOTH",
"399 -19 OFFCURVE",
"322 -72 OFFCURVE",
"251 -72 CURVE SMOOTH",
"228 -72 OFFCURVE",
"217 -67 OFFCURVE",
"217 -58 CURVE SMOOTH",
"217 -22 OFFCURVE",
"404 0 OFFCURVE",
"404 0 CURVE"
);
}
);
width = 642;
},
{
components = (
{
name = O;
}
);
layerId = "E633209E-E2B6-404C-90C5-15D4CC42EC04";
paths = (
{
closed = 1;
nodes = (
"756 -200 OFFCURVE",
"809 -23 OFFCURVE",
"809 -23 CURVE",
"774 -10 LINE",
"774 -10 OFFCURVE",
"749 -78 OFFCURVE",
"666 -78 CURVE SMOOTH",
"578 -78 OFFCURVE",
"506 0 OFFCURVE",
"380 0 CURVE SMOOTH",
"224 0 OFFCURVE",
"134 -118 OFFCURVE",
"134 -118 CURVE",
"160 -142 LINE",
"160 -142 OFFCURVE",
"215 -75 OFFCURVE",
"293 -75 CURVE SMOOTH",
"399 -75 OFFCURVE",
"460 -200 OFFCURVE",
"595 -200 CURVE SMOOTH"
);
}
);
width = 737;
},
{
associatedMasterId = "E633209E-E2B6-404C-90C5-15D4CC42EC04";
components = (
{
name = O;
}
);
layerId = "6F2D45E7-06B4-463C-9642-FBBDC2A65D9A";
name = "Sep 5 15, 16:23";
paths = (
{
closed = 1;
nodes = (
"376 -93 OFFCURVE",
"485 -169 OFFCURVE",
"636 -176 CURVE",
"661 -57 LINE",
"530 -63 OFFCURVE",
"414 -39 OFFCURVE",
"307 2 CURVE",
"279 13 LINE"
);
}
);
width = 709;
},
{
associatedMasterId = "F46DA1CF-2E88-465F-AE2F-6AF07AC13E65";
components = (
{
name = O;
}
);
layerId = "50A01EBB-EF9B-4CD2-87B0-D26164F27D41";
name = "Sep 5 15, 16:24";
paths = (
{
closed = 1;
nodes = (
"382 -69 OFFCURVE",
"489 -132 OFFCURVE",
"624 -131 CURVE",
"626 -106 LINE",
"501 -108 OFFCURVE",
"410 -60 OFFCURVE",
"311 10 CURVE",
"282 10 LINE"
);
}
);
width = 651;
}
);
leftKerningGroup = O;
leftMetricsKey = O;
rightKerningGroup = O;
unicode = 0051;
},
{
color = 3;
glyphname = R;
lastChange = "2016-10-31 18:38:27 +0000";
layers = (
{
anchors = (
{
name = bottom;
position = "{290, 0}";
},
{
name = top;
position = "{290, 700}";
}
);
associatedMasterId = "F46DA1CF-2E88-465F-AE2F-6AF07AC13E65";
layerId = "5CBC7787-1C5B-4B9B-9A68-9745E1785ED4";
name = "Light ]////90]";
paths = (
{
closed = 1;
nodes = (
"499 0 LINE",
"605 0 LINE",
"605 16 LINE",
"499 16 LINE"
);
},
{
closed = 1;
nodes = (
"273 310 LINE",
"485 0 LINE",
"510 0 LINE",
"303 303 LINE",
"284 312 LINE"
);
},
{
closed = 1;
nodes = (
"114 700 LINE",
"114 0 LINE",
"138 0 LINE",
"138 700 LINE"
);
},
{
closed = 1;
nodes = (
"26 700 LINE",
"26 684 LINE",
"243 684 LINE SMOOTH",
"381 684 OFFCURVE",
"483 643 OFFCURVE",
"483 509 CURVE SMOOTH",
"483 361 OFFCURVE",
"361 323 OFFCURVE",
"291 323 CURVE SMOOTH",
"280 323 OFFCURVE",
"273 324 OFFCURVE",
"273 324 CURVE",
"273 310 LINE",
"273 310 OFFCURVE",
"280 309 OFFCURVE",
"293 309 CURVE SMOOTH",
"403 309 OFFCURVE",
"509 383 OFFCURVE",
"509 516 CURVE SMOOTH",
"509 653 OFFCURVE",
"397 700 OFFCURVE",
"248 700 CURVE SMOOTH"
);
},
{
closed = 1;
nodes = (
"26 0 LINE",
"240 0 LINE",
"240 16 LINE",
"26 16 LINE"
);
}
);
width = 600;
},
{
anchors = (
{
name = bottom;
position = "{290, 0}";
},
{
name = top;
position = "{290, 700}";
}
);
associatedMasterId = "F46DA1CF-2E88-465F-AE2F-6AF07AC13E65";
layerId = "60C4DB72-7EAC-4D73-9169-29409907ED89";
name = dwa;
paths = (
{
closed = 1;
nodes = (
"499 0 LINE",
"605 0 LINE",
"605 16 LINE",
"499 16 LINE"
);
},
{
closed = 1;
nodes = (
"273 310 LINE",
"485 0 LINE",
"510 0 LINE",
"303 303 LINE",
"284 312 LINE"
);
},
{
closed = 1;
nodes = (
"114 700 LINE",
"114 0 LINE",
"138 0 LINE",
"138 700 LINE"
);
},
{
closed = 1;
nodes = (
"26 700 LINE",
"26 684 LINE",
"243 684 LINE SMOOTH",
"381 684 OFFCURVE",
"483 643 OFFCURVE",
"483 509 CURVE SMOOTH",
"483 361 OFFCURVE",
"361 323 OFFCURVE",
"291 323 CURVE SMOOTH",
"274 323 OFFCURVE",
"263 324 OFFCURVE",
"263 324 CURVE",
"273 310 LINE",
"273 310 OFFCURVE",
"280 309 OFFCURVE",
"293 309 CURVE SMOOTH",
"403 309 OFFCURVE",
"509 383 OFFCURVE",
"509 516 CURVE SMOOTH",
"509 653 OFFCURVE",
"397 700 OFFCURVE",
"248 700 CURVE SMOOTH"
);
},
{
closed = 1;
nodes = (
"26 0 LINE",
"240 0 LINE",
"240 16 LINE",
"26 16 LINE"
);
}
);
width = 600;
},
{
anchors = (
{
name = bottom;
position = "{366, 0}";
},
{
name = top;
position = "{366, 700}";
}
);
layerId = "E633209E-E2B6-404C-90C5-15D4CC42EC04";
paths = (
{
closed = 1;
nodes = (
"499 0 LINE",
"764 0 LINE",
"764 24 LINE",
"499 24 LINE"
);
},
{
closed = 1;
nodes = (
"349 345 LINE",
"488 0 LINE",
"729 0 LINE",
"594 310 LINE",
"376 343 LINE"
);
},
{
closed = 1;
nodes = (
"91 700 LINE",
"91 0 LINE",
"321 0 LINE",
"321 700 LINE"
);
},
{
closed = 1;
nodes = (
"8 700 LINE",
"8 676 LINE",
"334 676 LINE SMOOTH",
"408 676 OFFCURVE",
"442 610 OFFCURVE",
"442 529 CURVE SMOOTH",
"442 399 OFFCURVE",
"349 345 OFFCURVE",
"349 345 CURVE",
"360 339 LINE",
"537 339 OFFCURVE",
"672 413 OFFCURVE",
"672 539 CURVE SMOOTH",
"672 653 OFFCURVE",
"559 700 OFFCURVE",
"351 700 CURVE SMOOTH"
);
},
{
closed = 1;
nodes = (
"8 0 LINE",
"403 0 LINE",
"403 24 LINE",
"8 24 LINE"
);
}
);
width = 762;
},
{
anchors = (
{
name = bottom;
position = "{366, 0}";
},
{
name = top;
position = "{366, 700}";
}
);
associatedMasterId = "E633209E-E2B6-404C-90C5-15D4CC42EC04";
layerId = "D474656A-60AF-42EF-B5A2-FE72F9006BA1";
name = "Bold ]////90]";
paths = (
{
closed = 1;
nodes = (
"499 0 LINE",
"764 0 LINE",
"764 24 LINE",
"499 24 LINE"
);
},
{
closed = 1;
nodes = (
"349 345 LINE",
"488 0 LINE",
"729 0 LINE",
"594 310 LINE",
"376 343 LINE"
);
},
{
closed = 1;
nodes = (
"91 700 LINE",
"91 0 LINE",
"321 0 LINE",
"321 700 LINE"
);
},
{
closed = 1;
nodes = (
"8 700 LINE",
"8 676 LINE",
"304 676 LINE SMOOTH",
"386 676 OFFCURVE",
"434 600 OFFCURVE",
"434 510 CURVE SMOOTH",
"434 454 OFFCURVE",
"407 390 OFFCURVE",
"373 360 CURVE SMOOTH",
"367 355 OFFCURVE",
"361 351 OFFCURVE",
"355 348 CURVE",
"349 345 LINE",
"349 345 OFFCURVE",
"365 342 OFFCURVE",
"394 342 CURVE SMOOTH",
"557 342 OFFCURVE",
"664 405 OFFCURVE",
"664 520 CURVE SMOOTH",
"664 643 OFFCURVE",
"537 700 OFFCURVE",
"321 700 CURVE SMOOTH"
);
},
{
closed = 1;
nodes = (
"8 0 LINE",
"403 0 LINE",
"403 24 LINE",
"8 24 LINE"
);
}
);
width = 732;
},
{
anchors = (
{
name = bottom;
position = "{310, 0}";
},
{
name = top;
position = "{310, 700}";
}
);
associatedMasterId = "F46DA1CF-2E88-465F-AE2F-6AF07AC13E65";
layerId = "1803AB14-0FDB-4B95-B71C-F9B0D6B554E6";
name = "Oct 4 15, 23:28";
paths = (
{
closed = 1;
nodes = (
"519 0 LINE",
"625 0 LINE",
"625 16 LINE",
"519 16 LINE"
);
},
{
closed = 1;
nodes = (
"293 310 LINE",
"505 0 LINE",
"530 0 LINE",
"320 307 LINE",
"310 310 LINE"
);
},
{
closed = 1;
nodes = (
"134 700 LINE",
"134 0 LINE",
"158 0 LINE",
"158 700 LINE"
);
},
{
closed = 1;
nodes = (
"26 700 LINE",
"26 684 LINE",
"263 684 LINE SMOOTH",
"401 684 OFFCURVE",
"503 643 OFFCURVE",
"503 514 CURVE SMOOTH",
"503 324 OFFCURVE",
"293 310 OFFCURVE",
"293 310 CURVE",
"293 310 OFFCURVE",
"300 309 OFFCURVE",
"313 309 CURVE SMOOTH",
"423 309 OFFCURVE",
"529 383 OFFCURVE",
"529 516 CURVE SMOOTH",
"529 653 OFFCURVE",
"417 700 OFFCURVE",
"268 700 CURVE SMOOTH"
);
},
{
closed = 1;
nodes = (
"26 0 LINE",
"260 0 LINE",
"260 12 LINE",
"26 12 LINE"
);
}
);
width = 620;
},
{
anchors = (
{
name = bottom;
position = "{366, 0}";
},
{
name = top;
position = "{366, 700}";
}
);
associatedMasterId = "E633209E-E2B6-404C-90C5-15D4CC42EC04";
layerId = "36209223-494B-43B7-8BE4-E0176825C05C";
name = "Oct 4 15, 23:34";
paths = (
{
closed = 1;
nodes = (
"499 0 LINE",
"764 0 LINE",
"764 24 LINE",
"499 24 LINE"
);
},
{
closed = 1;
nodes = (
"349 345 LINE",
"488 0 LINE",
"729 0 LINE",
"594 310 LINE",
"376 343 LINE"
);
},
{
closed = 1;
nodes = (
"91 700 LINE",
"91 0 LINE",
"321 0 LINE",
"321 700 LINE"
);
},
{
closed = 1;
nodes = (
"8 700 LINE",
"8 676 LINE",
"304 676 LINE SMOOTH",
"386 676 OFFCURVE",
"434 600 OFFCURVE",
"434 510 CURVE SMOOTH",
"434 389 OFFCURVE",
"349 345 OFFCURVE",
"349 345 CURVE SMOOTH",
"349 345 OFFCURVE",
"365 342 OFFCURVE",
"394 342 CURVE SMOOTH",
"557 342 OFFCURVE",
"664 405 OFFCURVE",
"664 520 CURVE SMOOTH",
"664 643 OFFCURVE",
"537 700 OFFCURVE",
"321 700 CURVE SMOOTH"
);
},
{
closed = 1;
nodes = (
"8 0 LINE",
"403 0 LINE",
"403 24 LINE",
"8 24 LINE"
);
}
);
width = 742;
}
);
leftKerningGroup = H;
leftMetricsKey = H;
rightKerningGroup = R;
unicode = 0052;
},
{
color = 3;
glyphname = S;
lastChange = "2016-10-31 18:38:27 +0000";
layers = (
{
anchors = (
{
name = bottom;
position = "{272, 0}";
},
{
name = top;
position = "{265, 700}";
}
);
associatedMasterId = "F46DA1CF-2E88-465F-AE2F-6AF07AC13E65";
layerId = "84BD4AB5-A9E7-4F74-9C07-7D42E93F2192";
name = "Oct 3 15, 17:53";
paths = (
{
closed = 1;
nodes = (
"213 405 LINE SMOOTH",
"151 446 OFFCURVE",
"108 479 OFFCURVE",
"108 547 CURVE SMOOTH",
"108 629 OFFCURVE",
"171 685 OFFCURVE",
"281 685 CURVE SMOOTH",
"352 685 OFFCURVE",
"406 662 OFFCURVE",
"406 662 CURVE",
"424 545 LINE",
"440 545 LINE",
"440 667 LINE",
"440 667 OFFCURVE",
"372 705 OFFCURVE",
"278 705 CURVE SMOOTH",
"155 705 OFFCURVE",
"85 640 OFFCURVE",
"85 543 CURVE SMOOTH",
"85 459 OFFCURVE",
"137 423 OFFCURVE",
"195 386 CURVE SMOOTH",
"303 317 LINE SMOOTH",
"378 269 OFFCURVE",
"437 238 OFFCURVE",
"437 155 CURVE SMOOTH",
"437 71 OFFCURVE",
"378 15 OFFCURVE",
"254 15 CURVE SMOOTH",
"166 15 OFFCURVE",
"108 43 OFFCURVE",
"108 43 CURVE",
"87 166 LINE",
"71 166 LINE",
"71 40 LINE",
"71 40 OFFCURVE",
"135 -5 OFFCURVE",
"250 -5 CURVE SMOOTH",
"389 -5 OFFCURVE",
"458 60 OFFCURVE",
"458 161 CURVE SMOOTH",
"458 259 OFFCURVE",
"391 288 OFFCURVE",
"318 336 CURVE SMOOTH"
);
}
);
width = 526;
},
{
anchors = (
{
name = bottom;
position = "{292, 0}";
},
{
name = top;
position = "{286, 700}";
}
);
associatedMasterId = "E633209E-E2B6-404C-90C5-15D4CC42EC04";
guideLines = (
{
angle = -43.6553;
position = "{375, 444}";
},
{
angle = -43.6553;
position = "{135, 314}";
}
);
layerId = "E6B1E00B-F73D-427B-878A-14073C6465D1";
name = "Bold Oct 4 15, 21:51";
paths = (
{
closed = 1;
nodes = (
"311 485 LINE SMOOTH",
"259 524 OFFCURVE",
"234 561 OFFCURVE",
"234 603 CURVE SMOOTH",
"234 631 OFFCURVE",
"255 678 OFFCURVE",
"317 678 CURVE SMOOTH",
"335 678 OFFCURVE",
"358 675 OFFCURVE",
"358 675 CURVE",
"488 495 LINE",
"501 495 LINE",
"501 677 LINE",
"501 677 OFFCURVE",
"404 710 OFFCURVE",
"305 710 CURVE SMOOTH",
"136 710 OFFCURVE",
"54 604 OFFCURVE",
"54 491 CURVE SMOOTH",
"54 419 OFFCURVE",
"81 357 OFFCURVE",
"144 311 CURVE SMOOTH",
"263 223 LINE SMOOTH",
"305 192 OFFCURVE",
"339 145 OFFCURVE",
"339 100 CURVE SMOOTH",
"339 61 OFFCURVE",
"307 24 OFFCURVE",
"250 24 CURVE SMOOTH",
"226 24 OFFCURVE",
"202 29 OFFCURVE",
"202 29 CURVE",
"68 215 LINE",
"54 215 LINE",
"54 21 LINE",
"54 21 OFFCURVE",
"142 -10 OFFCURVE",
"261 -10 CURVE SMOOTH",
"451 -10 OFFCURVE",
"542 80 OFFCURVE",
"542 195 CURVE SMOOTH",
"542 273 OFFCURVE",
"504 343 OFFCURVE",
"436 393 CURVE SMOOTH"
);
}
);
width = 580;
},
{
anchors = (
{
name = bottom;
position = "{297, 0}";
},
{
name = top;
position = "{291, 700}";
}
);
layerId = "E633209E-E2B6-404C-90C5-15D4CC42EC04";
paths = (
{
closed = 1;
nodes = (
"303 485 LINE SMOOTH",
"250 524 OFFCURVE",
"226 560 OFFCURVE",
"226 600 CURVE SMOOTH",
"226 637 OFFCURVE",
"247 678 OFFCURVE",
"310 678 CURVE SMOOTH",
"327 678 OFFCURVE",
"350 675 OFFCURVE",
"350 675 CURVE",
"473 495 LINE",
"493 495 LINE",
"493 677 LINE",
"493 677 OFFCURVE",
"394 710 OFFCURVE",
"299 710 CURVE SMOOTH",
"126 710 OFFCURVE",
"46 600 OFFCURVE",
"46 483 CURVE SMOOTH",
"46 412 OFFCURVE",
"75 356 OFFCURVE",
"136 311 CURVE SMOOTH",
"255 223 LINE SMOOTH",
"297 192 OFFCURVE",
"331 155 OFFCURVE",
"331 107 CURVE SMOOTH",
"331 61 OFFCURVE",
"300 24 OFFCURVE",
"241 24 CURVE SMOOTH",
"219 24 OFFCURVE",
"194 29 OFFCURVE",
"194 29 CURVE",
"66 215 LINE",
"46 215 LINE",
"46 21 LINE",
"46 21 OFFCURVE",
"137 -10 OFFCURVE",
"248 -10 CURVE SMOOTH",
"446 -10 OFFCURVE",
"534 90 OFFCURVE",
"534 206 CURVE SMOOTH",
"534 282 OFFCURVE",
"496 343 OFFCURVE",
"428 393 CURVE SMOOTH"
);
}
);
width = 568;
},
{
anchors = (
{
name = bottom;
position = "{292, 0}";
},
{
name = top;
position = "{286, 700}";
}
);
associatedMasterId = "E633209E-E2B6-404C-90C5-15D4CC42EC04";
guideLines = (
{
angle = -43.6553;
position = "{375, 444}";
},
{
angle = -43.6553;
position = "{135, 314}";
}
);
layerId = "FDE44D7C-EA91-44C0-A6F2-10CD182617DF";
name = "Oct 4 15, 21:51";
paths = (
{
closed = 1;
nodes = (
"323 484 LINE SMOOTH",
"268 533 OFFCURVE",
"244 571 OFFCURVE",
"244 613 CURVE SMOOTH",
"244 641 OFFCURVE",
"255 678 OFFCURVE",
"317 678 CURVE SMOOTH",
"335 678 OFFCURVE",
"358 675 OFFCURVE",
"358 675 CURVE",
"488 495 LINE",
"501 495 LINE",
"501 677 LINE",
"501 677 OFFCURVE",
"404 710 OFFCURVE",
"305 710 CURVE SMOOTH",
"136 710 OFFCURVE",
"64 614 OFFCURVE",
"64 501 CURVE SMOOTH",
"64 429 OFFCURVE",
"93 369 OFFCURVE",
"141 326 CURVE SMOOTH",
"251 227 LINE SMOOTH",
"299 184 OFFCURVE",
"329 135 OFFCURVE",
"329 90 CURVE SMOOTH",
"329 51 OFFCURVE",
"307 24 OFFCURVE",
"250 24 CURVE SMOOTH",
"226 24 OFFCURVE",
"202 29 OFFCURVE",
"202 29 CURVE",
"68 215 LINE",
"54 215 LINE",
"54 21 LINE",
"54 21 OFFCURVE",
"142 -10 OFFCURVE",
"261 -10 CURVE SMOOTH",
"451 -10 OFFCURVE",
"532 70 OFFCURVE",
"532 185 CURVE SMOOTH",
"532 263 OFFCURVE",
"494 331 OFFCURVE",
"439 380 CURVE SMOOTH"
);
}
);
width = 580;
}
);
leftKerningGroup = S;
rightKerningGroup = S;
unicode = 0053;
},
{
color = 3;
glyphname = T;
lastChange = "2016-10-31 18:47:04 +0000";
layers = (
{
anchors = (
{
name = bottom;
position = "{338, 0}";
},
{
name = center;
position = "{338, 350}";
},
{
name = top;
position = "{338, 700}";
}
);
components = (
{
name = beak_case;
transform = "{-1, 0, 0, -1, 14, 700}";
},
{
name = beak_case;
transform = "{1, 0, 0, -1, 662, 700}";
}
);
layerId = "E633209E-E2B6-404C-90C5-15D4CC42EC04";
paths = (
{
closed = 1;
nodes = (
"223 700 LINE",
"223 0 LINE",
"453 0 LINE",
"453 700 LINE"
);
},
{
closed = 1;
nodes = (
"109 0 LINE",
"566 0 LINE",
"566 24 LINE",
"109 24 LINE"
);
},
{
closed = 1;
nodes = (
"14 700 LINE",
"14 676 LINE",
"662 676 LINE",
"662 700 LINE"
);
}
);
width = 676;
},
{
anchors = (
{
name = bottom;
position = "{297, 0}";
},
{
name = center;
position = "{297, 350}";
},
{
name = top;
position = "{297, 700}";
}
);
associatedMasterId = "E633209E-E2B6-404C-90C5-15D4CC42EC04";
layerId = "9CF0E1D7-20DC-424E-9C1C-B746C21924C9";
name = "Bold Aug 8 15, 22:44";
paths = (
{
closed = 1;
nodes = (
"182 700 LINE",
"182 0 LINE",
"412 0 LINE",
"412 700 LINE"
);
},
{
closed = 1;
nodes = (
"88 0 LINE",
"506 0 LINE",
"506 24 LINE",
"88 24 LINE"
);
},
{
closed = 1;
nodes = (
"585 478 LINE",
"585 700 LINE",
"358 700 LINE",
"358 680 LINE",
"452 680 LINE",
"571 478 LINE"
);
},
{
closed = 1;
nodes = (
"142 680 LINE",
"236 680 LINE",
"236 700 LINE",
"9 700 LINE",
"9 478 LINE",
"23 478 LINE"
);
}
);
width = 594;
}
);
leftKerningGroup = T;
rightKerningGroup = T;
unicode = 0054;
},
{
color = 3;
glyphname = U;
lastChange = "2016-10-31 18:38:27 +0000";
layers = (
{
anchors = (
{
name = bottom;
position = "{357, 0}";
},
{
name = ogonek;
position = "{426, 0}";
},
{
name = top;
position = "{357, 700}";
},
{
name = topright;
position = "{694, 700}";
}
);
layerId = "E633209E-E2B6-404C-90C5-15D4CC42EC04";
paths = (
{
closed = 1;
nodes = (
"88 220 LINE SMOOTH",
"88 69 OFFCURVE",
"187 -10 OFFCURVE",
"364 -10 CURVE SMOOTH",
"535 -10 OFFCURVE",
"630 64 OFFCURVE",
"630 190 CURVE SMOOTH",
"630 700 LINE",
"587 700 LINE",
"587 184 LINE SMOOTH",
"587 96 OFFCURVE",
"529 37 OFFCURVE",
"451 37 CURVE SMOOTH",
"380 37 OFFCURVE",
"340 85 OFFCURVE",
"340 156 CURVE SMOOTH",
"340 700 LINE",
"88 700 LINE"
);
},
{
closed = 1;
nodes = (
"452 680 LINE",
"613 556 LINE",
"721 680 LINE",
"721 700 LINE",
"452 700 LINE"
);
},
{
closed = 1;
nodes = (
"5 676 LINE",
"390 676 LINE",
"390 700 LINE",
"5 700 LINE"
);
}
);
width = 714;
},
{
anchors = (
{
name = bottom;
position = "{336, 0}";
},
{
name = ogonek;
position = "{439, 0}";
},
{
name = top;
position = "{336, 700}";
},
{
name = topright;
position = "{652, 700}";
}
);
associatedMasterId = "E633209E-E2B6-404C-90C5-15D4CC42EC04";
layerId = "A8A73BD6-97E1-4FF3-A10B-5467B1A5723A";
name = "Sep 9 16, 09:16";
paths = (
{
closed = 1;
nodes = (
"91 220 LINE SMOOTH",
"91 69 OFFCURVE",
"183 -10 OFFCURVE",
"356 -10 CURVE SMOOTH",
"505 -10 OFFCURVE",
"593 50 OFFCURVE",
"593 190 CURVE SMOOTH",
"593 700 LINE",
"554 700 LINE",
"554 184 LINE SMOOTH",
"554 85 OFFCURVE",
"496 37 OFFCURVE",
"424 37 CURVE SMOOTH",
"364 37 OFFCURVE",
"343 69 OFFCURVE",
"343 156 CURVE SMOOTH",
"343 700 LINE",
"91 700 LINE"
);
},
{
closed = 1;
nodes = (
"499 676 LINE",
"665 676 LINE",
"665 700 LINE",
"499 700 LINE"
);
},
{
closed = 1;
nodes = (
"8 676 LINE",
"433 676 LINE",
"433 700 LINE",
"8 700 LINE"
);
}
);
width = 672;
},
{
anchors = (
{
name = bottom;
position = "{290, 0}";
},
{
name = ogonek;
position = "{569, 10}";
},
{
name = top;
position = "{290, 700}";
},
{
name = topright;
position = "{616, 700}";
}
);
associatedMasterId = "F46DA1CF-2E88-465F-AE2F-6AF07AC13E65";
layerId = "BDAD4831-E1C7-47FD-B99A-5F2516B17157";
name = "Sep 9 16, 09:20";
paths = (
{
closed = 1;
nodes = (
"122 210 LINE SMOOTH",
"122 75 OFFCURVE",
"201 -5 OFFCURVE",
"335 -5 CURVE SMOOTH",
"473 -5 OFFCURVE",
"553 79 OFFCURVE",
"553 220 CURVE SMOOTH",
"553 700 LINE",
"532 700 LINE",
"532 214 LINE SMOOTH",
"532 88 OFFCURVE",
"460 13 OFFCURVE",
"338 13 CURVE SMOOTH",
"219 13 OFFCURVE",
"149 84 OFFCURVE",
"149 203 CURVE SMOOTH",
"149 700 LINE",
"122 700 LINE"
);
},
{
closed = 1;
nodes = (
"444 684 LINE",
"649 684 LINE",
"649 700 LINE",
"444 700 LINE"
);
},
{
closed = 1;
nodes = (
"26 684 LINE",
"249 684 LINE",
"249 700 LINE",
"26 700 LINE"
);
}
);
width = 639;
}
);
leftKerningGroup = U;
leftMetricsKey = "=H-3";
rightKerningGroup = U;
unicode = 0055;
},
{
color = 3;
glyphname = V;
lastChange = "2016-10-31 18:38:27 +0000";
layers = (
{
anchors = (
{
name = bottom;
position = "{302, 0}";
},
{
name = top;
position = "{301, 700}";
}
);
layerId = "E633209E-E2B6-404C-90C5-15D4CC42EC04";
paths = (
{
closed = 1;
nodes = (
"436 77 LINE",
"472 161 LINE",
"297 700 LINE",
"50 700 LINE",
"287 0 LINE",
"457 0 LINE",
"665 700 LINE",
"623 700 LINE"
);
},
{
closed = 1;
nodes = (
"5 676 LINE",
"380 676 LINE",
"380 700 LINE",
"5 700 LINE"
);
},
{
closed = 1;
nodes = (
"468 680 LINE",
"605 558 LINE",
"727 680 LINE",
"727 700 LINE",
"468 700 LINE"
);
}
);
width = 731;
}
);
leftKerningGroup = V;
rightKerningGroup = V;
unicode = 0056;
},
{
color = 3;
glyphname = W;
lastChange = "2016-10-31 18:38:27 +0000";
layers = (
{
anchors = (
{
name = bottom;
position = "{585, 0}";
},
{
name = top;
position = "{573, 700}";
}
);
layerId = "E633209E-E2B6-404C-90C5-15D4CC42EC04";
paths = (
{
closed = 1;
nodes = (
"504 700 LINE",
"703 0 LINE",
"897 0 LINE",
"1078 700 LINE",
"1034 700 LINE",
"888 144 LINE",
"897 144 LINE",
"740 700 LINE"
);
},
{
closed = 1;
nodes = (
"552 588 LINE",
"435 136 LINE",
"449 136 LINE",
"290 700 LINE",
"50 700 LINE",
"250 0 LINE",
"446 0 LINE",
"599 588 LINE"
);
},
{
closed = 1;
nodes = (
"856 680 LINE",
"1024 558 LINE",
"1145 680 LINE",
"1145 700 LINE",
"856 700 LINE"
);
},
{
closed = 1;
nodes = (
"2 676 LINE",
"380 676 LINE",
"380 700 LINE",
"2 700 LINE"
);
},
{
closed = 1;
nodes = (
"444 676 LINE",
"791 676 LINE",
"791 700 LINE",
"444 700 LINE"
);
}
);
width = 1146;
},
{
anchors = (
{
name = bottom;
position = "{496, 0}";
},
{
name = top;
position = "{496, 700}";
}
);
associatedMasterId = "F46DA1CF-2E88-465F-AE2F-6AF07AC13E65";
layerId = "FB0E2B79-CF45-4995-B6FD-5E0B46D94E9F";
name = "Oct 14 15, 11:11";
paths = (
{
closed = 1;
nodes = (
"475 700 LINE",
"711 0 LINE",
"730 0 LINE",
"960 700 LINE",
"940 700 LINE",
"715 19 LINE",
"729 19 LINE",
"500 700 LINE"
);
},
{
closed = 1;
nodes = (
"521 571 LINE",
"342 19 LINE",
"352 19 LINE",
"122 700 LINE",
"97 700 LINE",
"334 0 LINE",
"356 0 LINE",
"542 571 LINE"
);
},
{
closed = 1;
nodes = (
"826 684 LINE",
"941 674 LINE",
"1046 684 LINE",
"1046 700 LINE",
"826 700 LINE"
);
},
{
closed = 1;
nodes = (
"7 684 LINE",
"235 684 LINE",
"235 700 LINE",
"7 700 LINE"
);
},
{
closed = 1;
nodes = (
"382 684 LINE",
"634 684 LINE",
"634 700 LINE",
"382 700 LINE"
);
}
);
width = 1048;
},
{
anchors = (
{
name = bottom;
position = "{588, 0}";
},
{
name = top;
position = "{576, 700}";
}
);
associatedMasterId = "E633209E-E2B6-404C-90C5-15D4CC42EC04";
background = {
paths = (
{
closed = 1;
nodes = (
"992 588 LINE",
"881 136 LINE",
"895 136 LINE",
"744 700 LINE",
"504 700 LINE",
"696 0 LINE",
"892 0 LINE",
"1039 588 LINE"
);
}
);
};
layerId = "D95D865A-47E4-4CF9-941B-5A59088966FC";
name = "Oct 14 15, 11:12";
paths = (
{
closed = 1;
nodes = (
"508 700 LINE",
"699 0 LINE",
"893 0 LINE",
"1066 700 LINE",
"1022 700 LINE",
"884 144 LINE",
"893 144 LINE",
"744 700 LINE"
);
},
{
closed = 1;
nodes = (
"554 588 LINE",
"443 136 LINE",
"457 136 LINE",
"306 700 LINE",
"66 700 LINE",
"258 0 LINE",
"454 0 LINE",
"601 588 LINE"
);
},
{
closed = 1;
nodes = (
"869 684 LINE",
"1012 547 LINE",
"1151 684 LINE",
"1151 700 LINE",
"869 700 LINE"
);
},
{
closed = 1;
nodes = (
"15 676 LINE",
"392 676 LINE",
"392 700 LINE",
"15 700 LINE"
);
},
{
closed = 1;
nodes = (
"451 676 LINE",
"795 676 LINE",
"795 700 LINE",
"451 700 LINE"
);
}
);
width = 1140;
}
);
leftKerningGroup = W;
rightKerningGroup = W;
unicode = 0057;
},
{
color = 3;
glyphname = X;
lastChange = "2016-10-31 18:38:27 +0000";
layers = (
{
anchors = (
{
name = bottom;
position = "{361, 0}";
},
{
name = top;
position = "{361, 700}";
}
);
layerId = "E633209E-E2B6-404C-90C5-15D4CC42EC04";
paths = (
{
closed = 1;
nodes = (
"296 700 LINE",
"53 700 LINE",
"438 0 LINE",
"681 0 LINE"
);
},
{
closed = 1;
nodes = (
"624 700 LINE",
"437 321 LINE",
"469 321 LINE",
"659 700 LINE"
);
},
{
closed = 1;
nodes = (
"98 0 LINE",
"304 381 LINE",
"268 381 LINE",
"60 0 LINE"
);
},
{
closed = 1;
nodes = (
"22 676 LINE",
"376 676 LINE",
"376 700 LINE",
"22 700 LINE"
);
},
{
closed = 1;
nodes = (
"360 0 LINE",
"715 0 LINE",
"715 24 LINE",
"360 24 LINE"
);
},
{
closed = 1;
nodes = (
"455 680 LINE",
"582 563 LINE",
"713 680 LINE",
"713 700 LINE",
"455 700 LINE"
);
},
{
closed = 1;
nodes = (
"-1 0 LINE",
"264 0 LINE",
"264 16 LINE",
"147 139 LINE",
"-1 16 LINE"
);
}
);
width = 714;
},
{
anchors = (
{
name = bottom;
position = "{326, 0}";
},
{
name = top;
position = "{326, 700}";
}
);
associatedMasterId = "E633209E-E2B6-404C-90C5-15D4CC42EC04";
layerId = "B6AE96A2-9A38-479A-B986-6A7738FC3DC4";
name = "Oct 7 16, 12:15";
paths = (
{
closed = 1;
nodes = (
"291 700 LINE",
"48 700 LINE",
"378 0 LINE",
"621 0 LINE"
);
},
{
closed = 1;
nodes = (
"573 700 LINE",
"392 351 LINE",
"424 351 LINE",
"609 700 LINE"
);
},
{
closed = 1;
nodes = (
"78 0 LINE",
"280 351 LINE",
"243 351 LINE",
"40 0 LINE"
);
},
{
closed = 1;
nodes = (
"489 676 LINE",
"666 676 LINE",
"666 700 LINE",
"489 700 LINE"
);
},
{
closed = 1;
nodes = (
"-17 676 LINE",
"364 676 LINE",
"364 700 LINE",
"-17 700 LINE"
);
},
{
closed = 1;
nodes = (
"-17 0 LINE",
"180 0 LINE",
"180 24 LINE",
"-17 24 LINE"
);
},
{
closed = 1;
nodes = (
"306 0 LINE",
"666 0 LINE",
"666 24 LINE",
"306 24 LINE"
);
}
);
width = 652;
}
);
leftKerningGroup = X;
rightKerningGroup = X;
unicode = 0058;
},
{
color = 3;
glyphname = Y;
lastChange = "2016-10-31 18:38:27 +0000";
layers = (
{
anchors = (
{
name = bottom;
position = "{355, 0}";
},
{
name = top;
position = "{355, 700}";
},
{
name = topleft;
position = "{35, 700}";
}
);
layerId = "E633209E-E2B6-404C-90C5-15D4CC42EC04";
paths = (
{
closed = 1;
nodes = (
"626 700 LINE",
"427 245 LINE",
"471 318 LINE",
"295 700 LINE",
"45 700 LINE",
"251 288 LINE",
"251 0 LINE",
"481 0 LINE",
"481 288 LINE",
"664 700 LINE"
);
},
{
closed = 1;
nodes = (
"151 0 LINE",
"581 0 LINE",
"581 24 LINE",
"151 24 LINE"
);
},
{
closed = 1;
nodes = (
"468 680 LINE",
"591 558 LINE",
"713 680 LINE",
"713 700 LINE",
"468 700 LINE"
);
},
{
closed = 1;
nodes = (
"5 676 LINE",
"375 676 LINE",
"375 700 LINE",
"5 700 LINE"
);
}
);
width = 711;
},
{
anchors = (
{
name = bottom;
position = "{306, 0}";
},
{
name = top;
position = "{306, 700}";
},
{
name = topleft;
position = "{20, 700}";
}
);
associatedMasterId = "E633209E-E2B6-404C-90C5-15D4CC42EC04";
layerId = "5B37ABD6-F2EB-4D21-BD00-36DE47C14730";
name = "Regular Jul 13 16, 11:12";
paths = (
{
closed = 1;
nodes = (
"512 700 LINE",
"363 265 LINE",
"395 318 LINE",
"294 700 LINE",
"64 700 LINE",
"196 309 LINE",
"196 0 LINE",
"426 0 LINE",
"426 308 LINE",
"559 700 LINE"
);
},
{
closed = 1;
nodes = (
"132 0 LINE",
"498 0 LINE",
"498 24 LINE",
"132 24 LINE"
);
},
{
closed = 1;
nodes = (
"430 676 LINE",
"616 676 LINE",
"616 700 LINE",
"430 700 LINE"
);
},
{
closed = 1;
nodes = (
"13 676 LINE",
"379 676 LINE",
"379 700 LINE",
"13 700 LINE"
);
}
);
width = 612;
}
);
leftKerningGroup = Y;
rightKerningGroup = Y;
unicode = 0059;
},
{
color = 3;
glyphname = Z;
lastChange = "2016-10-31 18:38:27 +0000";
layers = (
{
anchors = (
{
name = bottom;
position = "{326, 0}";
},
{
name = top;
position = "{326, 700}";
}
);
components = (
{
name = beak_case;
transform = "{1, 0, 0, 1, 585, 0}";
},
{
name = beak_case;
transform = "{-1, 0, 0, -1, 41, 700}";
}
);
layerId = "E633209E-E2B6-404C-90C5-15D4CC42EC04";
paths = (
{
closed = 1;
nodes = (
"41 676 LINE",
"404 676 LINE",
"329 689 LINE",
"24 19 LINE",
"24 0 LINE",
"585 0 LINE",
"585 24 LINE",
"234 24 LINE",
"292 11 LINE",
"591 678 LINE",
"591 700 LINE",
"41 700 LINE"
);
}
);
width = 623;
},
{
anchors = (
{
name = bottom;
position = "{252, 0}";
},
{
name = top;
position = "{252, 700}";
}
);
associatedMasterId = "E633209E-E2B6-404C-90C5-15D4CC42EC04";
layerId = "C45BE747-E755-4A57-81C1-FE7F2D4156A6";
name = "Regular Jul 13 16, 11:08";
paths = (
{
closed = 1;
nodes = (
"33 683 LINE",
"296 683 LINE",
"235 689 LINE",
"6 19 LINE",
"6 0 LINE",
"492 0 LINE",
"492 17 LINE",
"216 17 LINE",
"274 11 LINE",
"497 678 LINE",
"497 700 LINE",
"33 700 LINE"
);
},
{
closed = 1;
nodes = (
"33 478 LINE",
"48 478 LINE",
"174 700 LINE",
"33 700 LINE"
);
},
{
closed = 1;
nodes = (
"492 227 LINE",
"475 227 LINE",
"351 0 LINE",
"492 0 LINE"
);
}
);
width = 503;
}
);
leftKerningGroup = Z;
rightKerningGroup = Z;
unicode = 005A;
},
{
color = 3;
glyphname = a;
lastChange = "2016-10-31 18:38:27 +0000";
layers = (
{
anchors = (
{
name = bottom;
position = "{288, 0}";
},
{
name = ogonek;
position = "{524, 0}";
},
{
name = top;
position = "{288, 540}";
}
);
background = {
paths = (
{
closed = 1;
nodes = (
"44 457 LINE",
"44 457 OFFCURVE",
"142 550 OFFCURVE",
"281 550 CURVE SMOOTH",
"393 550 OFFCURVE",
"506 489 OFFCURVE",
"506 318 CURVE SMOOTH",
"506 103 LINE SMOOTH",
"506 87 OFFCURVE",
"507 71 OFFCURVE",
"517 71 CURVE SMOOTH",
"537 71 OFFCURVE",
"552 133 OFFCURVE",
"552 133 CURVE",
"571 127 LINE",
"571 127 OFFCURVE",
"549 -10 OFFCURVE",
"412 -10 CURVE SMOOTH",
"328 -10 OFFCURVE",
"295 41 OFFCURVE",
"286 87 CURVE",
"286 309 LINE SMOOTH",
"286 415 OFFCURVE",
"283 497 OFFCURVE",
"193 497 CURVE SMOOTH",
"118 497 OFFCURVE",
"55 439 OFFCURVE",
"55 439 CURVE"
);
},
{
closed = 1;
nodes = (
"295 295 LINE",
"280 289 LINE SMOOTH",
"255 279 OFFCURVE",
"238 231 OFFCURVE",
"238 151 CURVE SMOOTH",
"238 107 OFFCURVE",
"243 69 OFFCURVE",
"261 69 CURVE SMOOTH",
"277 69 OFFCURVE",
"299 102 OFFCURVE",
"299 167 CURVE",
"305 157 LINE",
"305 57 OFFCURVE",
"243 -10 OFFCURVE",
"150 -10 CURVE SMOOTH",
"69 -10 OFFCURVE",
"15 41 OFFCURVE",
"15 129 CURVE SMOOTH",
"15 232 OFFCURVE",
"88 295 OFFCURVE",
"230 306 CURVE SMOOTH",
"293 311 LINE"
);
}
);
};
layerId = "E633209E-E2B6-404C-90C5-15D4CC42EC04";
paths = (
{
closed = 1;
nodes = (
"237 286 LINE SMOOTH",
"122 277 OFFCURVE",
"21 218 OFFCURVE",
"21 113 CURVE SMOOTH",
"21 35 OFFCURVE",
"76 -10 OFFCURVE",
"154 -10 CURVE SMOOTH",
"252 -10 OFFCURVE",
"316 61 OFFCURVE",
"316 167 CURVE",
"292 167 LINE",
"292 105 OFFCURVE",
"277 74 OFFCURVE",
"264 74 CURVE SMOOTH",
"249 74 OFFCURVE",
"244 114 OFFCURVE",
"244 151 CURVE SMOOTH",
"244 227 OFFCURVE",
"265 257 OFFCURVE",
"290 266 CURVE SMOOTH",
"301 270 LINE",
"299 291 LINE"
);
},
{
closed = 1;
nodes = (
"551 111 OFFCURVE",
"536 75 OFFCURVE",
"522 75 CURVE SMOOTH",
"513 75 OFFCURVE",
"512 91 OFFCURVE",
"512 103 CURVE SMOOTH",
"512 318 LINE SMOOTH",
"512 485 OFFCURVE",
"432 550 OFFCURVE",
"293 550 CURVE SMOOTH",
"153 550 OFFCURVE",
"53 484 OFFCURVE",
"53 403 CURVE SMOOTH",
"53 349 OFFCURVE",
"97 338 OFFCURVE",
"128 338 CURVE SMOOTH",
"141 338 OFFCURVE",
"152 340 OFFCURVE",
"152 340 CURVE",
"205 512 LINE",
"205 512 OFFCURVE",
"216 516 OFFCURVE",
"228 516 CURVE SMOOTH",
"289 516 OFFCURVE",
"292 422 OFFCURVE",
"292 309 CURVE SMOOTH",
"292 87 LINE",
"301 44 OFFCURVE",
"339 -10 OFFCURVE",
"428 -10 CURVE SMOOTH",
"537 -10 OFFCURVE",
"574 71 OFFCURVE",
"585 132 CURVE",
"554 138 LINE"
);
}
);
width = 580;
},
{
anchors = (
{
name = bottom;
position = "{240, 0}";
},
{
name = ogonek;
position = "{437, 10}";
},
{
name = top;
position = "{240, 520}";
}
);
associatedMasterId = "F46DA1CF-2E88-465F-AE2F-6AF07AC13E65";
layerId = "66D86781-4D11-4C61-B199-FEE97D2B7BB7";
name = "Sep 7 15, 14:17";
paths = (
{
closed = 1;
nodes = (
"240 250 LINE SMOOTH",
"130 234 OFFCURVE",
"56 176 OFFCURVE",
"56 100 CURVE SMOOTH",
"56 38 OFFCURVE",
"105 -5 OFFCURVE",
"181 -5 CURVE SMOOTH",
"297 -5 OFFCURVE",
"378 94 OFFCURVE",
"378 242 CURVE",
"362 242 LINE",
"362 113 OFFCURVE",
"290 12 OFFCURVE",
"185 12 CURVE SMOOTH",
"120 12 OFFCURVE",
"78 51 OFFCURVE",
"78 104 CURVE SMOOTH",
"78 170 OFFCURVE",
"143 219 OFFCURVE",
"240 233 CURVE SMOOTH",
"367 251 LINE",
"365 268 LINE"
);
},
{
closed = 1;
nodes = (
"474 70 OFFCURVE",
"461 12 OFFCURVE",
"419 12 CURVE SMOOTH",
"398 12 OFFCURVE",
"382 26 OFFCURVE",
"382 68 CURVE SMOOTH",
"382 338 LINE SMOOTH",
"382 482 OFFCURVE",
"315 525 OFFCURVE",
"229 525 CURVE SMOOTH",
"139 525 OFFCURVE",
"79 479 OFFCURVE",
"79 418 CURVE SMOOTH",
"79 396 OFFCURVE",
"87 387 OFFCURVE",
"99 387 CURVE SMOOTH",
"103 387 OFFCURVE",
"105 388 OFFCURVE",
"105 388 CURVE",
"133 482 LINE",
"133 482 OFFCURVE",
"163 507 OFFCURVE",
"226 507 CURVE SMOOTH",
"301 507 OFFCURVE",
"362 472 OFFCURVE",
"362 339 CURVE SMOOTH",
"362 69 LINE",
"362 14 OFFCURVE",
"385 -5 OFFCURVE",
"416 -5 CURVE SMOOTH",
"475 -5 OFFCURVE",
"489 66 OFFCURVE",
"489 66 CURVE",
"474 70 LINE"
);
}
);
width = 495;
}
);
leftKerningGroup = a;
rightKerningGroup = a;
unicode = 0061;
},
{
color = 3;
glyphname = aogonek;
lastChange = "2016-10-31 18:38:27 +0000";
layers = (
{
background = {
paths = (
{
closed = 1;
nodes = (
"237 286 LINE SMOOTH",
"122 277 OFFCURVE",
"21 218 OFFCURVE",
"21 113 CURVE SMOOTH",
"21 35 OFFCURVE",
"76 -10 OFFCURVE",
"154 -10 CURVE SMOOTH",
"252 -10 OFFCURVE",
"316 61 OFFCURVE",
"316 167 CURVE",
"292 167 LINE",
"292 105 OFFCURVE",
"277 74 OFFCURVE",
"264 74 CURVE SMOOTH",
"249 74 OFFCURVE",
"244 114 OFFCURVE",
"244 152 CURVE SMOOTH",
"244 230 OFFCURVE",
"265 262 OFFCURVE",
"290 271 CURVE SMOOTH",
"301 275 LINE",
"299 291 LINE"
);
},
{
closed = 1;
nodes = (
"551 133 OFFCURVE",
"540 71 OFFCURVE",
"522 71 CURVE SMOOTH",
"513 71 OFFCURVE",
"512 89 OFFCURVE",
"512 103 CURVE SMOOTH",
"512 318 LINE SMOOTH",
"512 489 OFFCURVE",
"432 550 OFFCURVE",
"286 550 CURVE SMOOTH",
"167 550 OFFCURVE",
"53 510 OFFCURVE",
"53 420 CURVE SMOOTH",
"53 337 OFFCURVE",
"152 340 OFFCURVE",
"152 340 CURVE",
"205 512 LINE",
"205 512 OFFCURVE",
"216 516 OFFCURVE",
"228 516 CURVE SMOOTH",
"289 516 OFFCURVE",
"292 422 OFFCURVE",
"292 309 CURVE SMOOTH",
"292 87 LINE",
"301 44 OFFCURVE",
"329 -10 OFFCURVE",
"421 -10 CURVE SMOOTH",
"567 -10 OFFCURVE",
"582 127 OFFCURVE",
"582 127 CURVE",
"551 133 LINE"
);
}
);
};
layerId = "E633209E-E2B6-404C-90C5-15D4CC42EC04";
paths = (
{
closed = 1;
nodes = (
"237 286 LINE SMOOTH",
"122 277 OFFCURVE",
"21 218 OFFCURVE",
"21 113 CURVE SMOOTH",
"21 35 OFFCURVE",
"76 -10 OFFCURVE",
"154 -10 CURVE SMOOTH",
"252 -10 OFFCURVE",
"316 61 OFFCURVE",
"316 167 CURVE",
"292 167 LINE",
"292 105 OFFCURVE",
"277 74 OFFCURVE",
"264 74 CURVE SMOOTH",
"249 74 OFFCURVE",
"244 114 OFFCURVE",
"244 151 CURVE SMOOTH",
"244 227 OFFCURVE",
"265 257 OFFCURVE",
"290 266 CURVE SMOOTH",
"301 270 LINE",
"299 291 LINE"
);
},
{
closed = 1;
nodes = (
"498 -120 OFFCURVE",
"487 -109 OFFCURVE",
"487 -87 CURVE SMOOTH",
"487 -51 OFFCURVE",
"502 -18 OFFCURVE",
"549 48 CURVE SMOOTH",
"576 86 OFFCURVE",
"582 127 OFFCURVE",
"582 127 CURVE",
"551 133 LINE",
"551 133 OFFCURVE",
"540 71 OFFCURVE",
"522 71 CURVE SMOOTH",
"513 71 OFFCURVE",
"512 89 OFFCURVE",
"512 103 CURVE SMOOTH",
"512 318 LINE SMOOTH",
"512 485 OFFCURVE",
"432 550 OFFCURVE",
"294 550 CURVE SMOOTH",
"154 550 OFFCURVE",
"53 483 OFFCURVE",
"53 406 CURVE SMOOTH",
"53 329 OFFCURVE",
"152 340 OFFCURVE",
"152 340 CURVE",
"205 512 LINE",
"205 512 OFFCURVE",
"216 516 OFFCURVE",
"228 516 CURVE SMOOTH",
"289 516 OFFCURVE",
"292 422 OFFCURVE",
"292 309 CURVE SMOOTH",
"292 87 LINE",
"301 44 OFFCURVE",
"329 -10 OFFCURVE",
"421 -10 CURVE SMOOTH",
"446 -10 OFFCURVE",
"466 -6 OFFCURVE",
"484 0 CURVE",
"448 -48 OFFCURVE",
"369 -56 OFFCURVE",
"369 -124 CURVE SMOOTH",
"369 -170 OFFCURVE",
"405 -200 OFFCURVE",
"455 -200 CURVE SMOOTH",
"521 -200 OFFCURVE",
"570 -150 OFFCURVE",
"581 -75 CURVE",
"550 -65 LINE",
"544 -89 OFFCURVE",
"531 -120 OFFCURVE",
"510 -120 CURVE SMOOTH"
);
}
);
width = 577;
},
{
associatedMasterId = "E633209E-E2B6-404C-90C5-15D4CC42EC04";
components = (
{
name = a;
}
);
layerId = "ED85D536-4235-4EFA-8527-0496B45EFDE9";
name = "Bold Aug 8 16, 11:12";
paths = (
{
closed = 1;
nodes = (
"489 14 LINE",
"434 -8 OFFCURVE",
"339 -60 OFFCURVE",
"339 -134 CURVE SMOOTH",
"339 -180 OFFCURVE",
"375 -200 OFFCURVE",
"420 -200 CURVE SMOOTH",
"481 -200 OFFCURVE",
"538 -164 OFFCURVE",
"538 -164 CURVE",
"532 -150 LINE",
"532 -150 OFFCURVE",
"512 -160 OFFCURVE",
"489 -160 CURVE SMOOTH",
"458 -160 OFFCURVE",
"449 -136 OFFCURVE",
"449 -106 CURVE SMOOTH",
"449 -29 OFFCURVE",
"507 21 OFFCURVE",
"507 21 CURVE"
);
}
);
width = 564;
}
);
leftKerningGroup = a;
leftMetricsKey = a;
rightKerningGroup = a;
rightMetricsKey = a;
unicode = 0105;
},
{
color = 3;
glyphname = b;
lastChange = "2016-10-31 18:38:27 +0000";
layers = (
{
associatedMasterId = "E633209E-E2B6-404C-90C5-15D4CC42EC04";
components = (
{
name = bowl;
transform = "{-1, 0, 0, -1, 582, 539}";
}
);
layerId = "DD9D0CC7-809D-4A28-9B1E-4F785F3468CA";
name = "Regular May 22 15, 23:44";
paths = (
{
closed = 1;
nodes = (
"253 740 LINE",
"181 682 OFFCURVE",
"98 658 OFFCURVE",
"10 650 CURVE",
"10 630 LINE",
"52 630 LINE",
"52 0 LINE",
"272 0 LINE",
"272 733 LINE"
);
}
);
width = 582;
},
{
anchors = (
{
name = bottom;
position = "{317, 0}";
},
{
name = top;
position = "{317, 540}";
}
);
background = {
paths = (
{
closed = 1;
nodes = (
"188 22 LINE",
"188 22 OFFCURVE",
"239 -8 OFFCURVE",
"323 -8 CURVE SMOOTH",
"500 -8 OFFCURVE",
"594 124 OFFCURVE",
"594 303 CURVE SMOOTH",
"594 466 OFFCURVE",
"517 550 OFFCURVE",
"421 550 CURVE SMOOTH",
"315 550 OFFCURVE",
"257 449 OFFCURVE",
"257 337 CURVE",
"291 337 LINE",
"291 414 OFFCURVE",
"310 458 OFFCURVE",
"331 458 CURVE SMOOTH",
"352 458 OFFCURVE",
"371 413 OFFCURVE",
"371 251 CURVE SMOOTH",
"371 127 OFFCURVE",
"360 23 OFFCURVE",
"284 23 CURVE SMOOTH",
"249 23 OFFCURVE",
"198 44 OFFCURVE",
"198 44 CURVE"
);
}
);
};
layerId = "E633209E-E2B6-404C-90C5-15D4CC42EC04";
paths = (
{
closed = 1;
nodes = (
"372 128 OFFCURVE",
"358 10 OFFCURVE",
"243 10 CURVE SMOOTH",
"241 10 OFFCURVE",
"240 10 OFFCURVE",
"238 10 CURVE",
"292 9 LINE",
"292 402 LINE",
"273 402 LINE",
"284 436 OFFCURVE",
"292 504 OFFCURVE",
"292 576 CURVE SMOOTH",
"292 783 LINE",
"273 790 LINE",
"195 732 OFFCURVE",
"106 708 OFFCURVE",
"10 700 CURVE",
"10 680 LINE",
"72 680 LINE",
"72 14 LINE",
"72 14 OFFCURVE",
"142 -10 OFFCURVE",
"247 -10 CURVE SMOOTH",
"492 -10 OFFCURVE",
"595 119 OFFCURVE",
"595 305 CURVE SMOOTH",
"595 463 OFFCURVE",
"521 550 OFFCURVE",
"421 550 CURVE SMOOTH",
"303 550 OFFCURVE",
"258 429 OFFCURVE",
"258 337 CURVE",
"292 337 LINE",
"292 414 OFFCURVE",
"309 458 OFFCURVE",
"330 458 CURVE SMOOTH",
"352 458 OFFCURVE",
"372 411 OFFCURVE",
"372 257 CURVE SMOOTH"
);
}
);
width = 621;
}
);
leftKerningGroup = h;
leftMetricsKey = "=|l-3";
rightKerningGroup = b;
rightMetricsKey = o;
unicode = 0062;
},
{
color = 3;
glyphname = c;
lastChange = "2016-10-31 18:38:27 +0000";
layers = (
{
anchors = (
{
name = bottom;
position = "{285, 0}";
},
{
name = top;
position = "{296, 540}";
}
);
background = {
components = (
{
name = o;
transform = "{1, 0, 0, 1, 4, 0}";
}
);
};
layerId = "E633209E-E2B6-404C-90C5-15D4CC42EC04";
paths = (
{
closed = 1;
nodes = (
"26 90 OFFCURVE",
"123 -10 OFFCURVE",
"262 -10 CURVE SMOOTH",
"401 -10 OFFCURVE",
"489 89 OFFCURVE",
"519 186 CURVE",
"490 198 LINE",
"467 139 OFFCURVE",
"419 110 OFFCURVE",
"369 110 CURVE SMOOTH",
"291 110 OFFCURVE",
"254 181 OFFCURVE",
"254 306 CURVE SMOOTH",
"254 383 OFFCURVE",
"268 519 OFFCURVE",
"337 519 CURVE SMOOTH",
"345 519 OFFCURVE",
"354 517 OFFCURVE",
"354 517 CURVE",
"403 332 LINE",
"403 332 OFFCURVE",
"416 329 OFFCURVE",
"430 329 CURVE SMOOTH",
"483 329 OFFCURVE",
"519 369 OFFCURVE",
"519 424 CURVE SMOOTH",
"519 501 OFFCURVE",
"450 550 OFFCURVE",
"324 550 CURVE SMOOTH",
"124 550 OFFCURVE",
"26 427 OFFCURVE",
"26 258 CURVE SMOOTH"
);
}
);
width = 540;
},
{
anchors = (
{
name = bottom;
position = "{237, 0}";
},
{
name = top;
position = "{237, 520}";
}
);
associatedMasterId = "F46DA1CF-2E88-465F-AE2F-6AF07AC13E65";
background = {
components = (
{
name = o;
transform = "{1, 0, 0, 1, -4, 0}";
}
);
};
layerId = "15DFCC31-4139-48FE-A241-978D509E921A";
name = "Light Aug 13 16, 20:23";
paths = (
{
closed = 1;
nodes = (
"66 89 OFFCURVE",
"133 -5 OFFCURVE",
"256 -5 CURVE SMOOTH",
"340 -5 OFFCURVE",
"400 38 OFFCURVE",
"400 38 CURVE",
"395 43 LINE",
"395 43 OFFCURVE",
"341 7 OFFCURVE",
"266 4 CURVE SMOOTH",
"152 4 OFFCURVE",
"88 97 OFFCURVE",
"88 256 CURVE SMOOTH",
"88 421 OFFCURVE",
"157 516 OFFCURVE",
"274 516 CURVE SMOOTH",
"332 516 OFFCURVE",
"369 490 OFFCURVE",
"369 490 CURVE",
"397 411 LINE",
"397 411 OFFCURVE",
"414 410 OFFCURVE",
"414 439 CURVE SMOOTH",
"414 490 OFFCURVE",
"363 525 OFFCURVE",
"282 525 CURVE SMOOTH",
"144 525 OFFCURVE",
"66 422 OFFCURVE",
"66 249 CURVE SMOOTH"
);
}
);
width = 464;
},
{
anchors = (
{
name = bottom;
position = "{276, 0}";
},
{
name = top;
position = "{287, 540}";
}
);
associatedMasterId = "E633209E-E2B6-404C-90C5-15D4CC42EC04";
background = {
components = (
{
name = o;
transform = "{1, 0, 0, 1, 4, 0}";
}
);
};
layerId = "13BA01D5-783B-4BAE-896D-32A0DDEE3E5B";
name = "Oct 4 16, 17:39";
paths = (
{
closed = 1;
nodes = (
"26 78 OFFCURVE",
"128 -10 OFFCURVE",
"271 -10 CURVE SMOOTH",
"386 -10 OFFCURVE",
"473 48 OFFCURVE",
"502 146 CURVE",
"474 158 LINE",
"453 102 OFFCURVE",
"411 70 OFFCURVE",
"362 70 CURVE SMOOTH",
"301 70 OFFCURVE",
"254 119 OFFCURVE",
"254 321 CURVE SMOOTH",
"254 414 OFFCURVE",
"264 519 OFFCURVE",
"326 519 CURVE SMOOTH",
"334 519 OFFCURVE",
"340 517 OFFCURVE",
"340 517 CURVE",
"388 332 LINE",
"388 332 OFFCURVE",
"401 329 OFFCURVE",
"415 329 CURVE SMOOTH",
"468 329 OFFCURVE",
"503 369 OFFCURVE",
"503 424 CURVE SMOOTH",
"503 501 OFFCURVE",
"435 550 OFFCURVE",
"317 550 CURVE SMOOTH",
"120 550 OFFCURVE",
"26 414 OFFCURVE",
"26 249 CURVE SMOOTH"
);
}
);
width = 515;
}
);
leftKerningGroup = o;
leftMetricsKey = o;
rightKerningGroup = c;
unicode = 0063;
},
{
color = 3;
glyphname = d;
lastChange = "2016-10-31 18:38:27 +0000";
layers = (
{
anchors = (
{
name = bottom;
position = "{312, 0}";
},
{
name = center;
position = "{424, 620}";
},
{
name = top;
position = "{312, 682}";
},
{
name = topright;
position = "{590, 540}";
}
);
background = {
paths = (
{
closed = 1;
nodes = (
"504 540 LINE",
"302 540 LINE",
"302 520 LINE",
"504 520 LINE"
);
},
{
closed = 1;
nodes = (
"363 0 LINE",
"604 0 LINE",
"604 20 LINE",
"549 20 LINE",
"549 540 LINE",
"329 540 LINE",
"329 168 LINE",
"342 168 LINE"
);
},
{
closed = 1;
nodes = (
"329 149 OFFCURVE",
"311 84 OFFCURVE",
"284 84 CURVE SMOOTH",
"265 84 OFFCURVE",
"258 116 OFFCURVE",
"258 165 CURVE SMOOTH",
"258 544 LINE",
"244 550 LINE",
"177 543 OFFCURVE",
"85 540 OFFCURVE",
"-17 540 CURVE",
"-17 520 LINE",
"38 520 LINE",
"38 222 LINE SMOOTH",
"38 71 OFFCURVE",
"76 -10 OFFCURVE",
"186 -10 CURVE SMOOTH",
"265 -10 OFFCURVE",
"336 32 OFFCURVE",
"354 186 CURVE",
"329 218 LINE"
);
}
);
};
components = (
{
name = bowl;
transform = "{1, 0, 0, 1, 16, 0}";
}
);
layerId = "E633209E-E2B6-404C-90C5-15D4CC42EC04";
paths = (
{
closed = 1;
nodes = (
"391 0 LINE",
"611 0 LINE",
"611 20 LINE",
"391 20 LINE"
);
},
{
closed = 1;
nodes = (
"530 790 LINE",
"452 732 OFFCURVE",
"363 708 OFFCURVE",
"267 700 CURVE",
"267 680 LINE",
"329 680 LINE",
"329 168 LINE",
"346 168 LINE",
"367 0 LINE",
"549 0 LINE",
"549 783 LINE"
);
}
);
width = 624;
}
);
leftKerningGroup = d;
leftMetricsKey = o;
rightKerningGroup = l;
rightMetricsKey = l;
unicode = 0064;
},
{
color = 3;
glyphname = e;
lastChange = "2016-10-31 18:38:27 +0000";
layers = (
{
anchors = (
{
name = bottom;
position = "{296, 0}";
},
{
name = ogonek;
position = "{491, 10}";
},
{
name = top;
position = "{278, 540}";
}
);
background = {
paths = (
{
closed = 1;
nodes = (
"24 75 OFFCURVE",
"124 -10 OFFCURVE",
"262 -10 CURVE SMOOTH",
"450 -10 OFFCURVE",
"498 146 OFFCURVE",
"498 146 CURVE",
"481 153 LINE",
"481 153 OFFCURVE",
"448 70 OFFCURVE",
"362 70 CURVE SMOOTH",
"298 70 OFFCURVE",
"256 115 OFFCURVE",
"256 311 CURVE SMOOTH",
"256 407 OFFCURVE",
"266 529 OFFCURVE",
"323 529 CURVE SMOOTH",
"330 529 OFFCURVE",
"343 527 OFFCURVE",
"343 527 CURVE",
"387 332 LINE",
"387 332 OFFCURVE",
"504 321 OFFCURVE",
"504 429 CURVE SMOOTH",
"504 519 OFFCURVE",
"424 550 OFFCURVE",
"325 550 CURVE SMOOTH",
"117 550 OFFCURVE",
"24 410 OFFCURVE",
"24 246 CURVE SMOOTH"
);
}
);
};
layerId = "E633209E-E2B6-404C-90C5-15D4CC42EC04";
paths = (
{
closed = 1;
nodes = (
"514 300 LINE",
"514 300 OFFCURVE",
"520 329 OFFCURVE",
"520 364 CURVE SMOOTH",
"520 514 OFFCURVE",
"413 550 OFFCURVE",
"310 550 CURVE SMOOTH",
"124 550 OFFCURVE",
"26 434 OFFCURVE",
"26 260 CURVE SMOOTH",
"26 85 OFFCURVE",
"124 -10 OFFCURVE",
"268 -10 CURVE SMOOTH",
"400 -10 OFFCURVE",
"477 70 OFFCURVE",
"521 191 CURVE",
"492 203 LINE",
"471 151 OFFCURVE",
"435 109 OFFCURVE",
"374 109 CURVE SMOOTH",
"306 109 OFFCURVE",
"246 160 OFFCURVE",
"246 320 CURVE SMOOTH",
"246 400 OFFCURVE",
"261 519 OFFCURVE",
"297 519 CURVE SMOOTH",
"321 519 OFFCURVE",
"331 467 OFFCURVE",
"331 408 CURVE SMOOTH",
"331 366 OFFCURVE",
"326 334 OFFCURVE",
"326 334 CURVE"
);
},
{
closed = 1;
nodes = (
"97 300 LINE",
"514 300 LINE",
"513 334 LINE",
"96 334 LINE"
);
}
);
width = 546;
},
{
anchors = (
{
name = bottom;
position = "{278, 0}";
},
{
name = ogonek;
position = "{491, 10}";
},
{
name = top;
position = "{260, 540}";
}
);
associatedMasterId = "E633209E-E2B6-404C-90C5-15D4CC42EC04";
background = {
paths = (
{
closed = 1;
nodes = (
"24 75 OFFCURVE",
"124 -10 OFFCURVE",
"262 -10 CURVE SMOOTH",
"450 -10 OFFCURVE",
"498 146 OFFCURVE",
"498 146 CURVE",
"481 153 LINE",
"481 153 OFFCURVE",
"448 70 OFFCURVE",
"362 70 CURVE SMOOTH",
"298 70 OFFCURVE",
"256 115 OFFCURVE",
"256 311 CURVE SMOOTH",
"256 407 OFFCURVE",
"266 529 OFFCURVE",
"323 529 CURVE SMOOTH",
"330 529 OFFCURVE",
"343 527 OFFCURVE",
"343 527 CURVE",
"387 332 LINE",
"387 332 OFFCURVE",
"504 321 OFFCURVE",
"504 429 CURVE SMOOTH",
"504 519 OFFCURVE",
"424 550 OFFCURVE",
"325 550 CURVE SMOOTH",
"117 550 OFFCURVE",
"24 410 OFFCURVE",
"24 246 CURVE SMOOTH"
);
}
);
};
layerId = "703A413B-E8DA-49BF-8B43-CA2015A93748";
name = "Oct 4 16, 17:36";
paths = (
{
closed = 1;
nodes = (
"514 300 LINE",
"514 300 OFFCURVE",
"520 329 OFFCURVE",
"520 364 CURVE SMOOTH",
"520 514 OFFCURVE",
"413 550 OFFCURVE",
"311 550 CURVE SMOOTH",
"124 550 OFFCURVE",
"26 428 OFFCURVE",
"26 254 CURVE SMOOTH",
"26 79 OFFCURVE",
"124 -10 OFFCURVE",
"277 -10 CURVE SMOOTH",
"406 -10 OFFCURVE",
"480 53 OFFCURVE",
"521 151 CURVE",
"492 163 LINE",
"469 106 OFFCURVE",
"436 69 OFFCURVE",
"383 69 CURVE SMOOTH",
"306 69 OFFCURVE",
"246 145 OFFCURVE",
"246 325 CURVE SMOOTH",
"246 415 OFFCURVE",
"261 519 OFFCURVE",
"296 519 CURVE SMOOTH",
"322 519 OFFCURVE",
"331 465 OFFCURVE",
"331 408 CURVE SMOOTH",
"331 366 OFFCURVE",
"326 334 OFFCURVE",
"326 334 CURVE"
);
},
{
closed = 1;
nodes = (
"97 300 LINE",
"514 300 LINE",
"513 334 LINE",
"96 334 LINE"
);
}
);
width = 546;
}
);
leftKerningGroup = o;
leftMetricsKey = o;
rightKerningGroup = e;
unicode = 0065;
},
{
color = 3;
glyphname = eogonek;
lastChange = "2016-10-31 18:38:27 +0000";
layers = (
{
anchors = (
{
name = top;
position = "{273, 540}";
}
);
layerId = "E633209E-E2B6-404C-90C5-15D4CC42EC04";
paths = (
{
closed = 1;
nodes = (
"97 300 LINE",
"514 300 LINE",
"513 334 LINE",
"96 334 LINE"
);
},
{
closed = 1;
nodes = (
"428 -120 OFFCURVE",
"417 -100 OFFCURVE",
"417 -66 CURVE SMOOTH",
"417 -30 OFFCURVE",
"429 19 OFFCURVE",
"465 78 CURVE SMOOTH",
"489 117 OFFCURVE",
"503 140 OFFCURVE",
"521 191 CURVE",
"492 203 LINE",
"467 150 OFFCURVE",
"438 109 OFFCURVE",
"376 109 CURVE SMOOTH",
"306 109 OFFCURVE",
"246 161 OFFCURVE",
"246 320 CURVE SMOOTH",
"246 400 OFFCURVE",
"261 519 OFFCURVE",
"297 519 CURVE SMOOTH",
"321 519 OFFCURVE",
"331 467 OFFCURVE",
"331 408 CURVE SMOOTH",
"331 366 OFFCURVE",
"326 334 OFFCURVE",
"326 334 CURVE",
"514 300 LINE",
"514 300 OFFCURVE",
"520 329 OFFCURVE",
"520 364 CURVE SMOOTH",
"520 514 OFFCURVE",
"413 550 OFFCURVE",
"310 550 CURVE SMOOTH",
"124 550 OFFCURVE",
"26 434 OFFCURVE",
"26 260 CURVE SMOOTH",
"26 85 OFFCURVE",
"124 -10 OFFCURVE",
"268 -10 CURVE SMOOTH",
"325 -10 OFFCURVE",
"371 5 OFFCURVE",
"409 31 CURVE",
"369 -11 OFFCURVE",
"299 -42 OFFCURVE",
"299 -119 CURVE SMOOTH",
"299 -177 OFFCURVE",
"340 -200 OFFCURVE",
"385 -200 CURVE SMOOTH",
"451 -200 OFFCURVE",
"500 -150 OFFCURVE",
"518 -75 CURVE",
"487 -65 LINE",
"481 -95 OFFCURVE",
"469 -120 OFFCURVE",
"448 -120 CURVE SMOOTH"
);
}
);
width = 546;
},
{
anchors = (
{
name = top;
position = "{273, 540}";
}
);
associatedMasterId = "E633209E-E2B6-404C-90C5-15D4CC42EC04";
layerId = "9433ED36-72ED-4B52-9296-F04D45D19F69";
name = "Oct 14 15, 15:35";
paths = (
{
closed = 1;
nodes = (
"97 300 LINE",
"514 300 LINE",
"513 334 LINE",
"96 334 LINE"
);
},
{
closed = 1;
nodes = (
"428 -120 OFFCURVE",
"417 -109 OFFCURVE",
"417 -87 CURVE SMOOTH",
"417 -42 OFFCURVE",
"432 -1 OFFCURVE",
"481 77 CURVE SMOOTH",
"496 100 OFFCURVE",
"510 124 OFFCURVE",
"521 151 CURVE",
"492 163 LINE",
"469 106 OFFCURVE",
"436 69 OFFCURVE",
"383 69 CURVE SMOOTH",
"306 69 OFFCURVE",
"246 145 OFFCURVE",
"246 325 CURVE SMOOTH",
"246 415 OFFCURVE",
"261 519 OFFCURVE",
"296 519 CURVE SMOOTH",
"322 519 OFFCURVE",
"331 465 OFFCURVE",
"331 408 CURVE SMOOTH",
"331 366 OFFCURVE",
"326 334 OFFCURVE",
"326 334 CURVE",
"514 300 LINE",
"514 300 OFFCURVE",
"520 329 OFFCURVE",
"520 364 CURVE SMOOTH",
"520 514 OFFCURVE",
"413 550 OFFCURVE",
"311 550 CURVE SMOOTH",
"124 550 OFFCURVE",
"26 428 OFFCURVE",
"26 254 CURVE SMOOTH",
"26 79 OFFCURVE",
"124 -10 OFFCURVE",
"277 -10 CURVE SMOOTH",
"327 -10 OFFCURVE",
"368 -1 OFFCURVE",
"403 16 CURVE",
"362 -30 OFFCURVE",
"299 -47 OFFCURVE",
"299 -124 CURVE SMOOTH",
"299 -170 OFFCURVE",
"335 -200 OFFCURVE",
"385 -200 CURVE SMOOTH",
"451 -200 OFFCURVE",
"500 -150 OFFCURVE",
"511 -75 CURVE",
"480 -65 LINE",
"474 -89 OFFCURVE",
"461 -120 OFFCURVE",
"440 -120 CURVE SMOOTH"
);
}
);
width = 546;
},
{
anchors = (
{
name = top;
position = "{243, 520}";
}
);
associatedMasterId = "F46DA1CF-2E88-465F-AE2F-6AF07AC13E65";
layerId = "26C496AE-3EE0-4E42-ADC9-D0CBF16F26AB";
name = "Oct 14 15, 15:36";
paths = (
{
closed = 1;
nodes = (
"73 307 LINE",
"424 307 LINE",
"424 321 LINE",
"73 321 LINE"
);
},
{
closed = 1;
nodes = (
"297 -174 OFFCURVE",
"275 -158 OFFCURVE",
"275 -124 CURVE SMOOTH",
"275 -63 OFFCURVE",
"342 -34 OFFCURVE",
"401 58 CURVE SMOOTH",
"410 72 OFFCURVE",
"419 88 OFFCURVE",
"426 105 CURVE",
"411 112 LINE",
"380 39 OFFCURVE",
"321 13 OFFCURVE",
"262 13 CURVE SMOOTH",
"156 13 OFFCURVE",
"87 98 OFFCURVE",
"87 254 CURVE SMOOTH",
"87 411 OFFCURVE",
"157 508 OFFCURVE",
"271 508 CURVE SMOOTH",
"355 508 OFFCURVE",
"403 449 OFFCURVE",
"403 336 CURVE SMOOTH",
"403 327 OFFCURVE",
"403 319 OFFCURVE",
"402 310 CURVE",
"424 307 LINE",
"424 307 OFFCURVE",
"425 320 OFFCURVE",
"425 336 CURVE SMOOTH",
"425 460 OFFCURVE",
"369 525 OFFCURVE",
"270 525 CURVE SMOOTH",
"145 525 OFFCURVE",
"65 421 OFFCURVE",
"65 252 CURVE SMOOTH",
"65 85 OFFCURVE",
"143 -5 OFFCURVE",
"259 -5 CURVE SMOOTH",
"292 -5 OFFCURVE",
"322 2 OFFCURVE",
"348 16 CURVE",
"303 -28 OFFCURVE",
"255 -68 OFFCURVE",
"255 -126 CURVE SMOOTH",
"255 -170 OFFCURVE",
"283 -190 OFFCURVE",
"318 -190 CURVE SMOOTH",
"363 -190 OFFCURVE",
"395 -157 OFFCURVE",
"403 -108 CURVE",
"387 -104 LINE",
"379 -147 OFFCURVE",
"356 -174 OFFCURVE",
"322 -174 CURVE SMOOTH"
);
}
);
width = 490;
}
);
leftKerningGroup = o;
leftMetricsKey = e;
rightKerningGroup = e;
rightMetricsKey = e;
unicode = 0119;
},
{
color = 3;
glyphname = f;
lastChange = "2016-10-31 18:52:07 +0000";
layers = (
{
anchors = (
{
name = bottom;
position = "{177, 0}";
},
{
name = top;
position = "{177, 540}";
}
);
components = (
{
name = longs;
}
);
layerId = "E633209E-E2B6-404C-90C5-15D4CC42EC04";
paths = (
{
closed = 1;
nodes = (
"159 520 LINE",
"391 520 LINE",
"391 540 LINE",
"159 540 LINE"
);
}
);
width = 422;
},
{
anchors = (
{
name = bottom;
position = "{177, 0}";
},
{
name = top;
position = "{177, 540}";
}
);
associatedMasterId = "E633209E-E2B6-404C-90C5-15D4CC42EC04";
layerId = "59573264-581E-4E73-AA79-C8A0F8A5D3CB";
name = "Bold Aug 23 15, 12:37";
paths = (
{
closed = 1;
nodes = (
"19 520 LINE",
"366 520 LINE",
"366 540 LINE",
"19 540 LINE"
);
},
{
closed = 1;
nodes = (
"19 0 LINE",
"323 0 LINE",
"323 20 LINE",
"19 20 LINE"
);
},
{
closed = 1;
nodes = (
"446 614 LINE",
"446 614 OFFCURVE",
"515 657 OFFCURVE",
"515 707 CURVE SMOOTH",
"515 762 OFFCURVE",
"433 790 OFFCURVE",
"345 790 CURVE SMOOTH",
"175 790 OFFCURVE",
"61 684 OFFCURVE",
"61 524 CURVE SMOOTH",
"61 0 LINE",
"281 0 LINE",
"281 669 LINE SMOOTH",
"281 709 OFFCURVE",
"288 776 OFFCURVE",
"352 776 CURVE SMOOTH",
"375 776 OFFCURVE",
"401 768 OFFCURVE",
"401 768 CURVE",
"324 788 LINE"
);
}
);
width = 354;
},
{
anchors = (
{
name = bottom;
position = "{156, 0}";
},
{
name = top;
position = "{156, 520}";
}
);
associatedMasterId = "F46DA1CF-2E88-465F-AE2F-6AF07AC13E65";
layerId = "C6BDA625-11FD-4F2B-81DE-B09A2CB5D075";
name = "Light Aug 24 15, 16:07";
paths = (
{
closed = 1;
nodes = (
"36 506 LINE",
"270 506 LINE",
"270 520 LINE",
"36 520 LINE"
);
},
{
closed = 1;
nodes = (
"36 0 LINE",
"232 0 LINE",
"232 14 LINE",
"36 14 LINE"
);
},
{
closed = 1;
nodes = (
"385 692 LINE",
"385 692 OFFCURVE",
"396 696 OFFCURVE",
"396 710 CURVE SMOOTH",
"396 733 OFFCURVE",
"346 745 OFFCURVE",
"293 745 CURVE SMOOTH",
"214 745 OFFCURVE",
"115 696 OFFCURVE",
"115 513 CURVE SMOOTH",
"115 0 LINE",
"135 0 LINE",
"135 514 LINE SMOOTH",
"135 667 OFFCURVE",
"212 733 OFFCURVE",
"303 733 CURVE SMOOTH",
"322 733 OFFCURVE",
"336 730 OFFCURVE",
"336 730 CURVE",
"318 737 LINE"
);
}
);
width = 311;
}
);
leftKerningGroup = f;
leftMetricsKey = l;
rightKerningGroup = f;
unicode = 0066;
},
{
color = 3;
glyphname = g;
lastChange = "2016-10-31 18:38:27 +0000";
layers = (
{
anchors = (
{
name = bottom;
position = "{289, 0}";
},
{
name = top;
position = "{289, 540}";
}
);
guideLines = (
{
angle = 5.8904;
position = "{332, -37}";
}
);
layerId = "E633209E-E2B6-404C-90C5-15D4CC42EC04";
paths = (
{
closed = 1;
nodes = (
"419 210 OFFCURVE",
"505 276 OFFCURVE",
"505 391 CURVE SMOOTH",
"505 499 OFFCURVE",
"430 550 OFFCURVE",
"287 550 CURVE SMOOTH",
"125 550 OFFCURVE",
"39 484 OFFCURVE",
"39 369 CURVE SMOOTH",
"39 261 OFFCURVE",
"114 210 OFFCURVE",
"257 210 CURVE SMOOTH"
);
},
{
closed = 1;
nodes = (
"245 240 OFFCURVE",
"241 331 OFFCURVE",
"241 399 CURVE SMOOTH",
"241 489 OFFCURVE",
"248 520 OFFCURVE",
"266 520 CURVE SMOOTH",
"298 520 OFFCURVE",
"303 426 OFFCURVE",
"303 361 CURVE SMOOTH",
"303 273 OFFCURVE",
"294 240 OFFCURVE",
"276 240 CURVE SMOOTH"
);
},
{
closed = 1;
nodes = (
"257 235 OFFCURVE",
"36 226 OFFCURVE",
"36 56 CURVE SMOOTH",
"36 -26 OFFCURVE",
"87 -66 OFFCURVE",
"178 -63 CURVE SMOOTH",
"361 -58 LINE SMOOTH",
"422 -56 OFFCURVE",
"432 -80 OFFCURVE",
"432 -96 CURVE SMOOTH",
"432 -129 OFFCURVE",
"389 -161 OFFCURVE",
"266 -161 CURVE SMOOTH",
"164 -161 OFFCURVE",
"146 -139 OFFCURVE",
"146 -105 CURVE SMOOTH",
"146 -88 OFFCURVE",
"151 -73 OFFCURVE",
"178 -56 CURVE",
"178 -51 LINE",
"75 -51 OFFCURVE",
"21 -90 OFFCURVE",
"21 -128 CURVE SMOOTH",
"21 -175 OFFCURVE",
"105 -200 OFFCURVE",
"228 -200 CURVE SMOOTH",
"509 -200 OFFCURVE",
"558 -69 OFFCURVE",
"558 21 CURVE SMOOTH",
"558 143 OFFCURVE",
"467 151 OFFCURVE",
"292 145 CURVE SMOOTH",
"160 141 LINE SMOOTH",
"143 140 OFFCURVE",
"136 146 OFFCURVE",
"136 155 CURVE SMOOTH",
"136 191 OFFCURVE",
"257 210 OFFCURVE",
"257 210 CURVE",
"257 235 LINE"
);
},
{
closed = 1;
nodes = (
"577 477 LINE",
"583 540 LINE",
"568 547 LINE",
"397 491 LINE",
"397 472 LINE"
);
}
);
width = 578;
},
{
anchors = (
{
name = bottom;
position = "{271, 0}";
},
{
name = top;
position = "{271, 520}";
}
);
associatedMasterId = "F46DA1CF-2E88-465F-AE2F-6AF07AC13E65";
layerId = "160D682E-1DCA-4A74-90BE-9067484F989E";
name = "Oct 4 16, 17:41";
paths = (
{
closed = 1;
nodes = (
"341 225 OFFCURVE",
"410 290 OFFCURVE",
"410 380 CURVE SMOOTH",
"410 470 OFFCURVE",
"341 525 OFFCURVE",
"241 525 CURVE SMOOTH",
"133 525 OFFCURVE",
"64 460 OFFCURVE",
"64 370 CURVE SMOOTH",
"64 280 OFFCURVE",
"133 225 OFFCURVE",
"233 225 CURVE SMOOTH"
);
},
{
closed = 1;
nodes = (
"150 242 OFFCURVE",
"85 293 OFFCURVE",
"85 375 CURVE SMOOTH",
"85 452 OFFCURVE",
"142 508 OFFCURVE",
"235 508 CURVE SMOOTH",
"324 508 OFFCURVE",
"389 457 OFFCURVE",
"389 375 CURVE SMOOTH",
"389 298 OFFCURVE",
"332 242 OFFCURVE",
"239 242 CURVE SMOOTH"
);
},
{
closed = 1;
nodes = (
"129 241 OFFCURVE",
"62 186 OFFCURVE",
"62 125 CURVE SMOOTH",
"62 75 OFFCURVE",
"108 50 OFFCURVE",
"185 54 CURVE SMOOTH",
"339 62 LINE SMOOTH",
"425 67 OFFCURVE",
"454 9 OFFCURVE",
"454 -42 CURVE SMOOTH",
"454 -130 OFFCURVE",
"370 -183 OFFCURVE",
"244 -183 CURVE SMOOTH",
"135 -183 OFFCURVE",
"68 -143 OFFCURVE",
"68 -72 CURVE SMOOTH",
"68 -14 OFFCURVE",
"113 51 OFFCURVE",
"225 60 CURVE",
"225 69 LINE",
"99 59 OFFCURVE",
"48 -7 OFFCURVE",
"48 -75 CURVE SMOOTH",
"48 -153 OFFCURVE",
"116 -200 OFFCURVE",
"237 -200 CURVE SMOOTH",
"374 -200 OFFCURVE",
"472 -140 OFFCURVE",
"472 -41 CURVE SMOOTH",
"472 23 OFFCURVE",
"431 88 OFFCURVE",
"331 82 CURVE SMOOTH",
"182 74 LINE SMOOTH",
"121 71 OFFCURVE",
"82 90 OFFCURVE",
"82 130 CURVE SMOOTH",
"82 179 OFFCURVE",
"141 225 OFFCURVE",
"230 225 CURVE",
"230 241 LINE"
);
},
{
closed = 1;
nodes = (
"476 595 LINE",
"476 609 LINE",
"389 609 LINE",
"389 595 LINE",
"437 573 LINE",
"351 474 LINE",
"370 474 LINE"
);
}
);
width = 511;
},
{
anchors = (
{
name = bottom;
position = "{289, 0}";
},
{
name = top;
position = "{289, 540}";
}
);
associatedMasterId = "E633209E-E2B6-404C-90C5-15D4CC42EC04";
guideLines = (
{
angle = 5.8904;
position = "{332, -37}";
}
);
layerId = "565BEFE0-CBF2-4E14-9A8D-57B7553217A8";
name = "Oct 7 16, 12:18";
paths = (
{
closed = 1;
nodes = (
"419 210 OFFCURVE",
"505 276 OFFCURVE",
"505 391 CURVE SMOOTH",
"505 499 OFFCURVE",
"430 550 OFFCURVE",
"287 550 CURVE SMOOTH",
"125 550 OFFCURVE",
"39 484 OFFCURVE",
"39 369 CURVE SMOOTH",
"39 261 OFFCURVE",
"114 210 OFFCURVE",
"257 210 CURVE SMOOTH"
);
},
{
closed = 1;
nodes = (
"242 240 OFFCURVE",
"240 376 OFFCURVE",
"240 422 CURVE SMOOTH",
"240 503 OFFCURVE",
"246 520 OFFCURVE",
"261 520 CURVE SMOOTH",
"302 520 OFFCURVE",
"304 384 OFFCURVE",
"304 338 CURVE SMOOTH",
"304 257 OFFCURVE",
"298 240 OFFCURVE",
"283 240 CURVE SMOOTH"
);
},
{
closed = 1;
nodes = (
"257 235 OFFCURVE",
"36 229 OFFCURVE",
"36 70 CURVE SMOOTH",
"36 -6 OFFCURVE",
"87 -48 OFFCURVE",
"178 -45 CURVE SMOOTH",
"360 -40 LINE SMOOTH",
"421 -38 OFFCURVE",
"431 -61 OFFCURVE",
"431 -80 CURVE SMOOTH",
"431 -120 OFFCURVE",
"388 -161 OFFCURVE",
"261 -161 CURVE SMOOTH",
"165 -161 OFFCURVE",
"146 -138 OFFCURVE",
"146 -100 CURVE SMOOTH",
"146 -80 OFFCURVE",
"151 -55 OFFCURVE",
"178 -38 CURVE",
"178 -33 LINE",
"78 -32 OFFCURVE",
"21 -75 OFFCURVE",
"21 -121 CURVE SMOOTH",
"21 -177 OFFCURVE",
"105 -200 OFFCURVE",
"220 -200 CURVE SMOOTH",
"512 -200 OFFCURVE",
"557 -50 OFFCURVE",
"557 35 CURVE SMOOTH",
"557 171 OFFCURVE",
"441 168 OFFCURVE",
"291 163 CURVE SMOOTH",
"171 159 LINE SMOOTH",
"153 158 OFFCURVE",
"145 164 OFFCURVE",
"145 172 CURVE SMOOTH",
"145 200 OFFCURVE",
"257 210 OFFCURVE",
"257 210 CURVE",
"257 235 LINE"
);
},
{
closed = 1;
nodes = (
"419 507 LINE",
"419 507 OFFCURVE",
"572 524 OFFCURVE",
"572 603 CURVE SMOOTH",
"572 629 OFFCURVE",
"556 648 OFFCURVE",
"529 648 CURVE SMOOTH",
"508 648 OFFCURVE",
"490 637 OFFCURVE",
"490 637 CURVE",
"419 527 LINE"
);
}
);
width = 578;
},
{
anchors = (
{
name = bottom;
position = "{289, 0}";
},
{
name = top;
position = "{289, 540}";
}
);
associatedMasterId = "E633209E-E2B6-404C-90C5-15D4CC42EC04";
guideLines = (
{
angle = 5.8904;
position = "{332, -37}";
}
);
layerId = "EF6AFAC4-360A-4FE7-87DC-B8620C2BDC0C";
name = "Oct 13 15, 17:04";
paths = (
{
closed = 1;
nodes = (
"419 210 OFFCURVE",
"505 276 OFFCURVE",
"505 391 CURVE SMOOTH",
"505 499 OFFCURVE",
"430 550 OFFCURVE",
"287 550 CURVE SMOOTH",
"125 550 OFFCURVE",
"39 484 OFFCURVE",
"39 369 CURVE SMOOTH",
"39 261 OFFCURVE",
"114 210 OFFCURVE",
"257 210 CURVE SMOOTH"
);
},
{
closed = 1;
nodes = (
"240 240 OFFCURVE",
"240 376 OFFCURVE",
"241 422 CURVE SMOOTH",
"242 503 OFFCURVE",
"250 520 OFFCURVE",
"265 520 CURVE SMOOTH",
"304 520 OFFCURVE",
"304 384 OFFCURVE",
"303 338 CURVE SMOOTH",
"301 257 OFFCURVE",
"293 240 OFFCURVE",
"279 240 CURVE SMOOTH"
);
},
{
closed = 1;
nodes = (
"257 235 OFFCURVE",
"36 228 OFFCURVE",
"36 52 CURVE SMOOTH",
"36 -24 OFFCURVE",
"87 -66 OFFCURVE",
"178 -63 CURVE SMOOTH",
"360 -58 LINE SMOOTH",
"421 -56 OFFCURVE",
"431 -79 OFFCURVE",
"431 -98 CURVE SMOOTH",
"431 -129 OFFCURVE",
"388 -161 OFFCURVE",
"261 -161 CURVE SMOOTH",
"165 -161 OFFCURVE",
"146 -138 OFFCURVE",
"146 -105 CURVE SMOOTH",
"146 -88 OFFCURVE",
"151 -73 OFFCURVE",
"178 -56 CURVE",
"178 -51 LINE",
"78 -50 OFFCURVE",
"21 -93 OFFCURVE",
"21 -121 CURVE SMOOTH",
"21 -177 OFFCURVE",
"105 -200 OFFCURVE",
"220 -200 CURVE SMOOTH",
"512 -200 OFFCURVE",
"557 -68 OFFCURVE",
"557 17 CURVE SMOOTH",
"557 153 OFFCURVE",
"441 150 OFFCURVE",
"291 145 CURVE SMOOTH",
"160 141 LINE SMOOTH",
"143 140 OFFCURVE",
"136 146 OFFCURVE",
"136 155 CURVE SMOOTH",
"136 191 OFFCURVE",
"257 210 OFFCURVE",
"257 210 CURVE",
"257 235 LINE"
);
},
{
closed = 1;
nodes = (
"559 454 LINE",
"559 454 OFFCURVE",
"585 476 OFFCURVE",
"585 508 CURVE SMOOTH",
"585 526 OFFCURVE",
"577 551 OFFCURVE",
"533 551 CURVE SMOOTH",
"524 551 OFFCURVE",
"509 550 OFFCURVE",
"491 548 CURVE SMOOTH",
"362 536 LINE",
"362 512 LINE",
"472 522 LINE"
);
}
);
width = 578;
},
{
anchors = (
{
name = bottom;
position = "{271, 0}";
},
{
name = top;
position = "{271, 520}";
}
);
associatedMasterId = "F46DA1CF-2E88-465F-AE2F-6AF07AC13E65";
layerId = "E219E0A8-52A8-4CB5-B2A2-F121237F6507";
name = "Oct 13 15, 17:04";
paths = (
{
closed = 1;
nodes = (
"344 225 OFFCURVE",
"410 289 OFFCURVE",
"410 379 CURVE SMOOTH",
"410 469 OFFCURVE",
"338 525 OFFCURVE",
"238 525 CURVE SMOOTH",
"130 525 OFFCURVE",
"64 461 OFFCURVE",
"64 371 CURVE SMOOTH",
"64 281 OFFCURVE",
"136 225 OFFCURVE",
"236 225 CURVE SMOOTH"
);
},
{
closed = 1;
nodes = (
"146 242 OFFCURVE",
"85 293 OFFCURVE",
"85 373 CURVE SMOOTH",
"85 453 OFFCURVE",
"146 508 OFFCURVE",
"236 508 CURVE SMOOTH",
"328 508 OFFCURVE",
"389 457 OFFCURVE",
"389 377 CURVE SMOOTH",
"389 297 OFFCURVE",
"328 242 OFFCURVE",
"238 242 CURVE SMOOTH"
);
},
{
closed = 1;
nodes = (
"131 241 OFFCURVE",
"62 186 OFFCURVE",
"62 125 CURVE SMOOTH",
"62 75 OFFCURVE",
"108 50 OFFCURVE",
"185 54 CURVE SMOOTH",
"339 62 LINE SMOOTH",
"424 67 OFFCURVE",
"452 9 OFFCURVE",
"452 -42 CURVE SMOOTH",
"452 -130 OFFCURVE",
"369 -183 OFFCURVE",
"244 -183 CURVE SMOOTH",
"135 -183 OFFCURVE",
"68 -143 OFFCURVE",
"68 -72 CURVE SMOOTH",
"68 -14 OFFCURVE",
"113 50 OFFCURVE",
"225 59 CURVE",
"225 73 LINE",
"99 63 OFFCURVE",
"48 -5 OFFCURVE",
"48 -74 CURVE SMOOTH",
"48 -153 OFFCURVE",
"115 -200 OFFCURVE",
"237 -200 CURVE SMOOTH",
"374 -200 OFFCURVE",
"472 -140 OFFCURVE",
"472 -41 CURVE SMOOTH",
"472 23 OFFCURVE",
"431 88 OFFCURVE",
"331 82 CURVE SMOOTH",
"182 74 LINE SMOOTH",
"121 71 OFFCURVE",
"82 90 OFFCURVE",
"82 130 CURVE SMOOTH",
"82 179 OFFCURVE",
"143 225 OFFCURVE",
"236 225 CURVE",
"236 241 LINE"
);
},
{
closed = 1;
nodes = (
"467 495 LINE",
"467 495 OFFCURVE",
"473 500 OFFCURVE",
"473 508 CURVE SMOOTH",
"473 516 OFFCURVE",
"468 525 OFFCURVE",
"438 525 CURVE SMOOTH",
"427 525 OFFCURVE",
"402 524 OFFCURVE",
"381 523 CURVE SMOOTH",
"287 518 LINE",
"287 503 LINE",
"383 508 LINE"
);
}
);
width = 511;
}
);
leftKerningGroup = g;
rightKerningGroup = g;
unicode = 0067;
},
{
color = 3;
glyphname = h;
lastChange = "2016-10-31 18:38:27 +0000";
layers = (
{
anchors = (
{
name = bottom;
position = "{325, 0}";
},
{
name = center;
position = "{201, 620}";
},
{
name = top;
position = "{325, 760}";
}
);
layerId = "E633209E-E2B6-404C-90C5-15D4CC42EC04";
paths = (
{
closed = 1;
nodes = (
"586 318 LINE SMOOTH",
"586 467 OFFCURVE",
"548 550 OFFCURVE",
"440 550 CURVE SMOOTH",
"352 550 OFFCURVE",
"270 495 OFFCURVE",
"241 275 CURVE",
"186 275 LINE",
"295 375 OFFCURVE",
"295 479 OFFCURVE",
"295 576 CURVE SMOOTH",
"295 783 LINE",
"276 790 LINE",
"198 732 OFFCURVE",
"108 708 OFFCURVE",
"13 700 CURVE",
"13 680 LINE",
"75 680 LINE",
"75 0 LINE",
"295 0 LINE",
"295 322 LINE SMOOTH",
"295 391 OFFCURVE",
"313 456 OFFCURVE",
"340 456 CURVE SMOOTH",
"359 456 OFFCURVE",
"366 424 OFFCURVE",
"366 375 CURVE SMOOTH",
"366 0 LINE",
"641 0 LINE",
"641 20 LINE",
"586 20 LINE"
);
},
{
closed = 1;
nodes = (
"13 0 LINE",
"337 0 LINE",
"337 20 LINE",
"13 20 LINE"
);
}
);
width = 646;
},
{
anchors = (
{
name = bottom;
position = "{311, 0}";
},
{
name = center;
position = "{311, 270}";
},
{
name = top;
position = "{311, 540}";
}
);
associatedMasterId = "E633209E-E2B6-404C-90C5-15D4CC42EC04";
components = (
{
name = l;
}
);
layerId = "A179045F-0134-4046-BA87-F2BF05D70EFF";
name = "Bold Aug 8 15, 13:27";
paths = (
{
closed = 1;
nodes = (
"421 0 LINE",
"630 0 LINE",
"630 20 LINE",
"421 20 LINE"
);
},
{
closed = 1;
nodes = (
"281 322 LINE",
"281 391 OFFCURVE",
"299 456 OFFCURVE",
"326 456 CURVE SMOOTH",
"345 456 OFFCURVE",
"352 424 OFFCURVE",
"352 375 CURVE SMOOTH",
"352 0 LINE",
"572 0 LINE",
"572 318 LINE SMOOTH",
"572 469 OFFCURVE",
"534 550 OFFCURVE",
"424 550 CURVE SMOOTH",
"345 550 OFFCURVE",
"274 508 OFFCURVE",
"256 354 CURVE"
);
}
);
width = 632;
}
);
leftKerningGroup = h;
leftMetricsKey = l;
rightKerningGroup = h;
rightMetricsKey = n;
unicode = 0068;
},
{
glyphname = idotless;
lastChange = "2016-10-31 18:52:22 +0000";
layers = (
{
anchors = (
{
name = bottom;
position = "{185, 0}";
},
{
name = ogonek;
position = "{292, 0}";
},
{
name = top;
position = "{185, 540}";
}
);
layerId = "E633209E-E2B6-404C-90C5-15D4CC42EC04";
paths = (
{
closed = 1;
nodes = (
"13 0 LINE",
"357 0 LINE",
"357 20 LINE",
"13 20 LINE"
);
},
{
closed = 1;
nodes = (
"281 550 LINE",
"212 543 OFFCURVE",
"118 540 OFFCURVE",
"13 540 CURVE",
"13 520 LINE",
"75 520 LINE",
"75 0 LINE",
"295 0 LINE",
"295 544 LINE"
);
}
);
width = 368;
}
);
leftKerningGroup = i;
leftMetricsKey = n;
rightKerningGroup = i;
unicode = 0131;
},
{
color = 3;
glyphname = j;
lastChange = "2016-10-31 18:38:27 +0000";
layers = (
{
components = (
{
name = jdotless;
},
{
name = dotaccentcomb;
}
);
layerId = "E633209E-E2B6-404C-90C5-15D4CC42EC04";
width = 355;
},
{
associatedMasterId = "E633209E-E2B6-404C-90C5-15D4CC42EC04";
layerId = "280CBC9E-32D4-49EF-828C-16BF4136C070";
name = "Regular Jul 5 15, 10:13";
paths = (
{
closed = 1;
nodes = (
"251 591 OFFCURVE",
"288 628 OFFCURVE",
"288 699 CURVE SMOOTH",
"288 769 OFFCURVE",
"251 806 OFFCURVE",
"181 806 CURVE SMOOTH",
"110 806 OFFCURVE",
"73 769 OFFCURVE",
"73 699 CURVE SMOOTH",
"73 628 OFFCURVE",
"110 591 OFFCURVE",
"181 591 CURVE SMOOTH"
);
},
{
closed = 1;
nodes = (
"291 540 LINE",
"277 546 LINE",
"210 514 OFFCURVE",
"118 500 OFFCURVE",
"16 500 CURVE",
"16 480 LINE",
"71 480 LINE",
"71 -3 LINE SMOOTH",
"71 -172 OFFCURVE",
"-37 -172 OFFCURVE",
"-37 -172 CURVE",
"-36 -195 LINE",
"-36 -195 OFFCURVE",
"291 -236 OFFCURVE",
"291 110 CURVE SMOOTH"
);
}
);
width = 349;
}
);
leftKerningGroup = j;
rightKerningGroup = j;
unicode = 006A;
},
{
glyphname = jdotless;
lastChange = "2016-10-31 18:52:22 +0000";
layers = (
{
anchors = (
{
name = bottom;
position = "{185, 0}";
},
{
name = top;
position = "{185, 540}";
}
);
layerId = "E633209E-E2B6-404C-90C5-15D4CC42EC04";
paths = (
{
closed = 1;
nodes = (
"-26 -177 OFFCURVE",
"-31 -176 OFFCURVE",
"-31 -176 CURVE",
"-31 -198 LINE",
"-31 -198 OFFCURVE",
"-24 -200 OFFCURVE",
"-1 -200 CURVE SMOOTH",
"81 -200 OFFCURVE",
"295 -173 OFFCURVE",
"295 110 CURVE SMOOTH",
"295 544 LINE",
"281 550 LINE",
"212 543 OFFCURVE",
"118 540 OFFCURVE",
"13 540 CURVE",
"13 520 LINE",
"75 520 LINE",
"75 -3 LINE SMOOTH",
"75 -161 OFFCURVE",
"9 -177 OFFCURVE",
"-20 -177 CURVE SMOOTH"
);
}
);
width = 355;
},
{
anchors = (
{
name = bottom;
position = "{178, 0}";
},
{
name = top;
position = "{178, 540}";
}
);
associatedMasterId = "E633209E-E2B6-404C-90C5-15D4CC42EC04";
layerId = "D95953A1-A520-430F-9936-DBE6AC6039D1";
name = "Oct 6 16, 14:41";
paths = (
{
closed = 1;
nodes = (
"212 543 OFFCURVE",
"118 540 OFFCURVE",
"13 540 CURVE",
"13 520 LINE",
"75 520 LINE",
"75 -3 LINE SMOOTH",
"75 -176 OFFCURVE",
"-33 -176 OFFCURVE",
"-33 -176 CURVE",
"-32 -199 LINE",
"-32 -199 OFFCURVE",
"-20 -200 OFFCURVE",
"-1 -200 CURVE SMOOTH",
"81 -200 OFFCURVE",
"295 -173 OFFCURVE",
"295 110 CURVE SMOOTH",
"295 544 LINE",
"281 550 LINE"
);
}
);
width = 345;
}
);
leftKerningGroup = j;
rightKerningGroup = j;
unicode = 0237;
},
{
color = 3;
glyphname = k;
lastChange = "2016-10-31 18:49:43 +0000";
layers = (
{
anchors = (
{
name = bottom;
position = "{263, 0}";
},
{
name = top;
position = "{263, 520}";
}
);
associatedMasterId = "F46DA1CF-2E88-465F-AE2F-6AF07AC13E65";
components = (
{
name = vertical_1;
transform = "{1, 0, 0, 1, -11, 0}";
}
);
layerId = "6A00353D-CD3F-4A92-A3A9-81B5E4396D77";
name = "Light Sep 5 15, 10:08";
paths = (
{
closed = 1;
nodes = (
"21 0 LINE",
"226 0 LINE",
"226 14 LINE",
"21 14 LINE"
);
},
{
closed = 1;
nodes = (
"413 0 LINE",
"524 0 LINE",
"524 14 LINE",
"413 14 LINE"
);
},
{
closed = 1;
nodes = (
"471 520 LINE",
"463 525 LINE",
"428 520 OFFCURVE",
"392 520 OFFCURVE",
"356 520 CURVE",
"356 506 LINE",
"444 499 LINE",
"223 307 LINE",
"400 0 LINE",
"424 0 LINE",
"246 307 LINE",
"243 307 LINE",
"471 506 LINE"
);
}
);
width = 543;
},
{
anchors = (
{
name = bottom;
position = "{333, 0}";
},
{
name = top;
position = "{333, 540}";
}
);
associatedMasterId = "E633209E-E2B6-404C-90C5-15D4CC42EC04";
components = (
{
name = vertical_1;
transform = "{1, 0, 0, 1, 7, 0}";
}
);
layerId = "F5DBCA39-0FDE-4832-9E13-DF64CC7568BA";
name = "Bold Sep 5 15, 10:09";
paths = (
{
closed = 1;
nodes = (
"18 0 LINE",
"332 0 LINE",
"332 20 LINE",
"18 20 LINE"
);
},
{
closed = 1;
nodes = (
"408 0 LINE",
"652 0 LINE",
"652 20 LINE",
"408 20 LINE"
);
},
{
closed = 1;
nodes = (
"627 550 LINE",
"542 542 OFFCURVE",
"458 540 OFFCURVE",
"373 540 CURVE",
"373 526 LINE",
"436 423 LINE",
"310 329 LINE",
"378 0 LINE",
"608 0 LINE",
"530 329 LINE",
"359 329 LINE",
"632 536 LINE"
);
}
);
width = 644;
},
{
anchors = (
{
name = bottom;
position = "{333, 0}";
},
{
name = top;
position = "{333, 540}";
}
);
associatedMasterId = "E633209E-E2B6-404C-90C5-15D4CC42EC04";
components = (
{
name = vertical_1;
transform = "{1, 0, 0, 1, 7, 0}";
}
);
layerId = "BB9EB322-D385-462F-A078-6817A4160F84";
name = "Bold Sep 5 15, 10:18";
paths = (
{
closed = 1;
nodes = (
"18 0 LINE",
"332 0 LINE",
"332 20 LINE",
"18 20 LINE"
);
},
{
closed = 1;
nodes = (
"408 0 LINE",
"652 0 LINE",
"652 20 LINE",
"408 20 LINE"
);
},
{
closed = 1;
nodes = (
"652 520 LINE",
"652 540 LINE",
"373 540 LINE",
"373 520 LINE",
"458 473 LINE",
"310 329 LINE",
"378 0 LINE",
"608 0 LINE",
"530 329 LINE",
"359 329 LINE",
"508 473 LINE"
);
}
);
width = 644;
},
{
anchors = (
{
name = bottom;
position = "{333, 0}";
},
{
name = top;
position = "{333, 540}";
}
);
components = (
{
name = vertical_1;
transform = "{1, 0, 0, 1, 7, 0}";
}
);
layerId = "E633209E-E2B6-404C-90C5-15D4CC42EC04";
paths = (
{
closed = 1;
nodes = (
"18 0 LINE",
"332 0 LINE",
"332 20 LINE",
"18 20 LINE"
);
},
{
closed = 1;
nodes = (
"408 0 LINE",
"652 0 LINE",
"652 20 LINE",
"408 20 LINE"
);
},
{
closed = 1;
nodes = (
"620 550 LINE",
"539 542 OFFCURVE",
"456 540 OFFCURVE",
"373 540 CURVE",
"373 526 LINE",
"438 427 LINE",
"310 329 LINE",
"378 0 LINE",
"608 0 LINE",
"530 329 LINE",
"359 329 LINE",
"628 528 LINE"
);
}
);
width = 654;
},
{
anchors = (
{
name = bottom;
position = "{263, 0}";
},
{
name = top;
position = "{263, 520}";
}
);
associatedMasterId = "F46DA1CF-2E88-465F-AE2F-6AF07AC13E65";
components = (
{
name = vertical_1;
transform = "{1, 0, 0, 1, -11, 0}";
}
);
layerId = "3A2D541D-0ABD-42E0-930F-B2C7027C3AB8";
name = "Light Sep 5 15, 10:19";
paths = (
{
closed = 1;
nodes = (
"41 0 LINE",
"226 0 LINE",
"226 14 LINE",
"41 14 LINE"
);
},
{
closed = 1;
nodes = (
"427 0 LINE",
"518 0 LINE",
"518 14 LINE",
"427 14 LINE"
);
},
{
closed = 1;
nodes = (
"504 506 LINE",
"504 520 LINE",
"336 520 LINE",
"336 506 LINE",
"406 493 LINE",
"211 307 LINE",
"415 0 LINE",
"439 0 LINE",
"234 307 LINE",
"231 307 LINE",
"432 493 LINE"
);
}
);
width = 503;
},
{
anchors = (
{
name = bottom;
position = "{263, 0}";
},
{
name = top;
position = "{263, 520}";
}
);
associatedMasterId = "F46DA1CF-2E88-465F-AE2F-6AF07AC13E65";
components = (
{
name = vertical_1;
transform = "{1, 0, 0, 1, -11, 0}";
}
);
layerId = "B81ED8C2-DC88-4C86-A9E4-59444954E64E";
name = "Oct 4 15, 23:42";
paths = (
{
closed = 1;
nodes = (
"41 0 LINE",
"226 0 LINE",
"226 14 LINE",
"41 14 LINE"
);
},
{
closed = 1;
nodes = (
"427 0 LINE",
"518 0 LINE",
"518 14 LINE",
"427 14 LINE"
);
},
{
closed = 1;
nodes = (
"469 520 LINE",
"373 520 LINE",
"373 506 LINE",
"421 487 LINE",
"211 307 LINE",
"415 0 LINE",
"439 0 LINE",
"234 307 LINE",
"231 307 LINE",
"469 506 LINE"
);
}
);
width = 533;
},
{
anchors = (
{
name = bottom;
position = "{333, 0}";
},
{
name = top;
position = "{333, 540}";
}
);
associatedMasterId = "E633209E-E2B6-404C-90C5-15D4CC42EC04";
components = (
{
name = vertical_1;
transform = "{1, 0, 0, 1, 7, 0}";
}
);
layerId = "BA5F948E-2A56-4F3B-BADF-F5E3FAFAA1DD";
name = "Oct 4 15, 23:42";
paths = (
{
closed = 1;
nodes = (
"18 0 LINE",
"332 0 LINE",
"332 20 LINE",
"18 20 LINE"
);
},
{
closed = 1;
nodes = (
"408 0 LINE",
"652 0 LINE",
"652 20 LINE",
"408 20 LINE"
);
},
{
closed = 1;
nodes = (
"627 540 LINE",
"373 540 LINE",
"373 526 LINE",
"436 423 LINE",
"310 329 LINE",
"378 0 LINE",
"608 0 LINE",
"530 329 LINE",
"359 329 LINE",
"627 520 LINE"
);
}
);
width = 654;
}
);
leftKerningGroup = h;
leftMetricsKey = l;
rightKerningGroup = k;
unicode = 006B;
},
{
color = 3;
glyphname = l;
lastChange = "2016-10-31 18:38:27 +0000";
layers = (
{
anchors = (
{
name = bottom;
position = "{185, 0}";
},
{
name = center;
position = "{185, 270}";
},
{
name = top;
position = "{185, 763}";
},
{
name = topright;
position = "{350, 540}";
}
);
components = (
{
name = vertical_1;
transform = "{1, 0, 0, 1, 7, 0}";
}
);
layerId = "E633209E-E2B6-404C-90C5-15D4CC42EC04";
paths = (
{
closed = 1;
nodes = (
"13 0 LINE",
"357 0 LINE",
"357 20 LINE",
"13 20 LINE"
);
}
);
width = 370;
}
);
leftKerningGroup = h;
rightKerningGroup = l;
unicode = 006C;
},
{
color = 3;
glyphname = lslash;
lastChange = "2016-10-31 18:38:27 +0000";
layers = (
{
anchors = (
{
name = _center;
position = "{203, 357}";
}
);
components = (
{
name = l;
transform = "{1, 0, 0, 1, 8, 0}";
}
);
guideLines = (
{
alignment = center;
angle = 90;
position = "{333, 234}";
}
);
layerId = "E633209E-E2B6-404C-90C5-15D4CC42EC04";
paths = (
{
closed = 1;
nodes = (
"193 400 LINE",
"397 520 LINE",
"382 550 LINE",
"193 436 LINE"
);
},
{
closed = 1;
nodes = (
"193 456 LINE",
"-8 336 LINE",
"7 306 LINE",
"193 420 LINE"
);
}
);
width = 386;
}
);
leftKerningGroup = lslash;
rightKerningGroup = lslash;
unicode = 0142;
},
{
color = 3;
glyphname = m;
lastChange = "2016-10-31 18:38:27 +0000";
layers = (
{
associatedMasterId = "E633209E-E2B6-404C-90C5-15D4CC42EC04";
guideLines = (
{
position = "{509, 430}";
}
);
layerId = "3E611A12-7403-4697-9244-AE7A1AC29774";
name = "Regular Jul 11 16, 10:07";
paths = (
{
closed = 1;
nodes = (
"19 0 LINE",
"318 0 LINE",
"318 20 LINE",
"19 20 LINE"
);
},
{
closed = 1;
nodes = (
"379 0 LINE",
"588 0 LINE",
"588 20 LINE",
"379 20 LINE"
);
},
{
closed = 1;
nodes = (
"294 322 LINE",
"294 391 OFFCURVE",
"312 456 OFFCURVE",
"331 456 CURVE SMOOTH",
"346 456 OFFCURVE",
"350 424 OFFCURVE",
"350 375 CURVE SMOOTH",
"350 0 LINE",
"570 0 LINE",
"570 318 LINE SMOOTH",
"570 469 OFFCURVE",
"536 550 OFFCURVE",
"432 550 CURVE SMOOTH",
"358 550 OFFCURVE",
"287 508 OFFCURVE",
"269 354 CURVE"
);
},
{
closed = 1;
nodes = (
"695 0 LINE",
"884 0 LINE",
"884 20 LINE",
"695 20 LINE"
);
},
{
closed = 1;
nodes = (
"570 322 LINE",
"570 391 OFFCURVE",
"588 456 OFFCURVE",
"607 456 CURVE SMOOTH",
"622 456 OFFCURVE",
"626 424 OFFCURVE",
"626 375 CURVE SMOOTH",
"626 0 LINE",
"846 0 LINE",
"846 318 LINE SMOOTH",
"846 469 OFFCURVE",
"812 550 OFFCURVE",
"708 550 CURVE SMOOTH",
"634 550 OFFCURVE",
"563 508 OFFCURVE",
"545 354 CURVE"
);
},
{
closed = 1;
nodes = (
"240 550 LINE",
"19 454 LINE",
"19 440 LINE",
"74 430 LINE",
"74 0 LINE",
"294 0 LINE",
"294 372 LINE",
"291 402 LINE",
"254 544 LINE"
);
}
);
width = 892;
},
{
anchors = (
{
name = bottom;
position = "{469, 0}";
},
{
name = top;
position = "{469, 540}";
}
);
background = {
paths = (
{
closed = 1;
nodes = (
"20 0 LINE",
"319 0 LINE",
"319 20 LINE",
"20 20 LINE"
);
},
{
closed = 1;
nodes = (
"435 0 LINE",
"644 0 LINE",
"644 20 LINE",
"435 20 LINE"
);
},
{
closed = 1;
nodes = (
"295 322 LINE",
"295 391 OFFCURVE",
"313 456 OFFCURVE",
"340 456 CURVE SMOOTH",
"359 456 OFFCURVE",
"366 424 OFFCURVE",
"366 375 CURVE SMOOTH",
"366 0 LINE",
"586 0 LINE",
"586 318 LINE SMOOTH",
"586 469 OFFCURVE",
"548 550 OFFCURVE",
"438 550 CURVE SMOOTH",
"359 550 OFFCURVE",
"288 508 OFFCURVE",
"270 354 CURVE"
);
},
{
closed = 1;
nodes = (
"261 550 LINE",
"199 543 OFFCURVE",
"114 540 OFFCURVE",
"20 540 CURVE",
"20 520 LINE",
"75 520 LINE",
"75 0 LINE",
"295 0 LINE",
"295 372 LINE",
"282 372 LINE",
"275 544 LINE"
);
}
);
};
layerId = "E633209E-E2B6-404C-90C5-15D4CC42EC04";
paths = (
{
closed = 1;
nodes = (
"257 550 LINE",
"194 543 OFFCURVE",
"108 540 OFFCURVE",
"13 540 CURVE",
"13 520 LINE",
"75 520 LINE",
"75 0 LINE",
"295 0 LINE",
"295 372 LINE",
"278 372 LINE",
"271 544 LINE"
);
},
{
closed = 1;
nodes = (
"13 0 LINE",
"319 0 LINE",
"319 20 LINE",
"13 20 LINE"
);
},
{
closed = 1;
nodes = (
"410 0 LINE",
"619 0 LINE",
"619 20 LINE",
"410 20 LINE"
);
},
{
closed = 1;
nodes = (
"726 0 LINE",
"935 0 LINE",
"935 20 LINE",
"726 20 LINE"
);
},
{
closed = 1;
nodes = (
"295 322 LINE",
"295 391 OFFCURVE",
"313 456 OFFCURVE",
"340 456 CURVE SMOOTH",
"359 456 OFFCURVE",
"366 424 OFFCURVE",
"366 375 CURVE SMOOTH",
"366 0 LINE",
"586 0 LINE",
"586 318 LINE SMOOTH",
"586 470 OFFCURVE",
"548 550 OFFCURVE",
"437 550 CURVE SMOOTH",
"357 550 OFFCURVE",
"284 508 OFFCURVE",
"266 354 CURVE"
);
},
{
closed = 1;
nodes = (
"586 322 LINE",
"586 391 OFFCURVE",
"604 456 OFFCURVE",
"631 456 CURVE SMOOTH",
"650 456 OFFCURVE",
"657 424 OFFCURVE",
"657 375 CURVE SMOOTH",
"657 0 LINE",
"877 0 LINE",
"877 318 LINE SMOOTH",
"877 470 OFFCURVE",
"839 550 OFFCURVE",
"728 550 CURVE SMOOTH",
"648 550 OFFCURVE",
"575 508 OFFCURVE",
"557 354 CURVE"
);
}
);
width = 940;
}
);
leftKerningGroup = n;
leftMetricsKey = n;
rightKerningGroup = h;
rightMetricsKey = n;
unicode = 006D;
},
{
color = 3;
glyphname = n;
lastChange = "2016-10-31 18:46:03 +0000";
layers = (
{
anchors = (
{
name = bottom;
position = "{337, 0}";
},
{
name = top;
position = "{337, 540}";
},
{
name = topleft;
position = "{169, 700}";
}
);
layerId = "E633209E-E2B6-404C-90C5-15D4CC42EC04";
paths = (
{
closed = 1;
nodes = (
"13 0 LINE",
"319 0 LINE",
"319 20 LINE",
"13 20 LINE"
);
},
{
closed = 1;
nodes = (
"435 0 LINE",
"641 0 LINE",
"641 20 LINE",
"435 20 LINE"
);
},
{
closed = 1;
nodes = (
"295 322 LINE",
"295 391 OFFCURVE",
"313 456 OFFCURVE",
"340 456 CURVE SMOOTH",
"359 456 OFFCURVE",
"366 424 OFFCURVE",
"366 375 CURVE SMOOTH",
"366 0 LINE",
"586 0 LINE",
"586 318 LINE SMOOTH",
"586 470 OFFCURVE",
"548 550 OFFCURVE",
"437 550 CURVE SMOOTH",
"357 550 OFFCURVE",
"284 508 OFFCURVE",
"266 354 CURVE"
);
},
{
closed = 1;
nodes = (
"257 550 LINE",
"194 543 OFFCURVE",
"108 540 OFFCURVE",
"13 540 CURVE",
"13 520 LINE",
"75 520 LINE",
"75 0 LINE",
"295 0 LINE",
"295 372 LINE",
"278 372 LINE",
"271 544 LINE"
);
}
);
width = 646;
},
{
associatedMasterId = "F46DA1CF-2E88-465F-AE2F-6AF07AC13E65";
layerId = "8F62E0AB-2653-4AAE-B6D7-272565A0F246";
name = "Light Aug 8 16, 12:23";
paths = (
{
closed = 1;
nodes = (
"39 0 LINE",
"243 0 LINE",
"243 10 LINE",
"39 10 LINE"
);
},
{
closed = 1;
nodes = (
"451 0 LINE",
"554 0 LINE",
"554 10 LINE",
"451 10 LINE"
);
},
{
closed = 1;
nodes = (
"161 278 LINE",
"161 436 OFFCURVE",
"228 514 OFFCURVE",
"315 514 CURVE SMOOTH",
"399 514 OFFCURVE",
"432 454 OFFCURVE",
"432 289 CURVE SMOOTH",
"432 0 LINE",
"472 0 LINE",
"472 286 LINE SMOOTH",
"472 460 OFFCURVE",
"428 524 OFFCURVE",
"322 524 CURVE SMOOTH",
"237 524 OFFCURVE",
"150 460 OFFCURVE",
"150 278 CURVE"
);
},
{
closed = 1;
nodes = (
"143 525 LINE",
"109 520 OFFCURVE",
"75 520 OFFCURVE",
"39 520 CURVE",
"39 510 LINE",
"121 510 LINE",
"121 0 LINE",
"161 0 LINE",
"161 296 LINE",
"154 296 LINE",
"151 521 LINE"
);
}
);
width = 581;
}
);
leftKerningGroup = n;
rightKerningGroup = h;
unicode = 006E;
},
{
color = 3;
glyphname = o;
lastChange = "2016-10-31 18:38:27 +0000";
layers = (
{
anchors = (
{
name = bottom;
position = "{300, 0}";
},
{
name = center;
position = "{300, 270}";
},
{
name = ogonek;
position = "{537, 10}";
},
{
name = top;
position = "{300, 540}";
},
{
name = topright;
position = "{576, 540}";
}
);
layerId = "E633209E-E2B6-404C-90C5-15D4CC42EC04";
paths = (
{
closed = 1;
nodes = (
"479 -10 OFFCURVE",
"574 94 OFFCURVE",
"574 279 CURVE SMOOTH",
"574 462 OFFCURVE",
"482 550 OFFCURVE",
"309 550 CURVE SMOOTH",
"121 550 OFFCURVE",
"26 446 OFFCURVE",
"26 261 CURVE SMOOTH",
"26 78 OFFCURVE",
"118 -10 OFFCURVE",
"291 -10 CURVE SMOOTH"
);
},
{
closed = 1;
nodes = (
"271 20 OFFCURVE",
"257 117 OFFCURVE",
"257 294 CURVE SMOOTH",
"257 458 OFFCURVE",
"269 520 OFFCURVE",
"296 520 CURVE SMOOTH",
"329 520 OFFCURVE",
"343 423 OFFCURVE",
"343 246 CURVE SMOOTH",
"343 82 OFFCURVE",
"331 20 OFFCURVE",
"304 20 CURVE SMOOTH"
);
}
);
width = 600;
},
{
anchors = (
{
name = bottom;
position = "{276, 0}";
},
{
name = center;
position = "{276, 260}";
},
{
name = ogonek;
position = "{496, 10}";
},
{
name = top;
position = "{276, 520}";
},
{
name = topright;
position = "{531, 520}";
}
);
associatedMasterId = "F46DA1CF-2E88-465F-AE2F-6AF07AC13E65";
guideLines = (
{
angle = 269.3069;
position = "{268, 260}";
}
);
layerId = "E4E88604-B52E-407A-8AF5-5C60FCFE0EC2";
name = "Sep 3 15, 17:03";
paths = (
{
closed = 1;
nodes = (
"401 -5 OFFCURVE",
"484 94 OFFCURVE",
"484 266 CURVE SMOOTH",
"484 427 OFFCURVE",
"412 525 OFFCURVE",
"281 525 CURVE SMOOTH",
"150 525 OFFCURVE",
"68 426 OFFCURVE",
"68 254 CURVE SMOOTH",
"68 93 OFFCURVE",
"140 -5 OFFCURVE",
"271 -5 CURVE SMOOTH"
);
},
{
closed = 1;
nodes = (
"156 12 OFFCURVE",
"90 107 OFFCURVE",
"90 260 CURVE SMOOTH",
"90 419 OFFCURVE",
"162 508 OFFCURVE",
"277 508 CURVE SMOOTH",
"396 508 OFFCURVE",
"462 413 OFFCURVE",
"462 260 CURVE SMOOTH",
"462 101 OFFCURVE",
"389 12 OFFCURVE",
"275 12 CURVE SMOOTH"
);
}
);
width = 552;
},
{
anchors = (
{
name = bottom;
position = "{300, 0}";
},
{
name = center;
position = "{300, 270}";
},
{
name = ogonek;
position = "{537, 10}";
},
{
name = top;
position = "{300, 540}";
},
{
name = topright;
position = "{576, 540}";
}
);
associatedMasterId = "E633209E-E2B6-404C-90C5-15D4CC42EC04";
layerId = "A48FDECD-C470-4FA8-9F1C-30F5D710CB68";
name = "Sep 23 16, 17:27";
paths = (
{
closed = 1;
nodes = (
"475 -10 OFFCURVE",
"574 94 OFFCURVE",
"574 284 CURVE SMOOTH",
"574 462 OFFCURVE",
"486 550 OFFCURVE",
"313 550 CURVE SMOOTH",
"125 550 OFFCURVE",
"26 446 OFFCURVE",
"26 256 CURVE SMOOTH",
"26 78 OFFCURVE",
"114 -10 OFFCURVE",
"287 -10 CURVE SMOOTH"
);
},
{
closed = 1;
nodes = (
"261 20 OFFCURVE",
"257 224 OFFCURVE",
"257 322 CURVE SMOOTH",
"257 484 OFFCURVE",
"268 520 OFFCURVE",
"289 520 CURVE SMOOTH",
"339 520 OFFCURVE",
"343 316 OFFCURVE",
"343 218 CURVE SMOOTH",
"343 56 OFFCURVE",
"332 20 OFFCURVE",
"311 20 CURVE SMOOTH"
);
}
);
width = 600;
}
);
leftKerningGroup = o;
rightKerningGroup = o;
unicode = 006F;
},
{
color = 3;
glyphname = p;
lastChange = "2016-10-31 18:38:27 +0000";
layers = (
{
anchors = (
{
name = bottom;
position = "{310, 0}";
},
{
name = top;
position = "{310, 540}";
}
);
components = (
{
name = bowl;
transform = "{-1, 0, 0, -1, 608, 540}";
}
);
layerId = "E633209E-E2B6-404C-90C5-15D4CC42EC04";
paths = (
{
closed = 1;
nodes = (
"13 -190 LINE",
"359 -190 LINE",
"359 -170 LINE",
"13 -170 LINE"
);
},
{
closed = 1;
nodes = (
"256 550 LINE",
"193 543 OFFCURVE",
"108 540 OFFCURVE",
"13 540 CURVE",
"13 520 LINE",
"75 520 LINE",
"75 -190 LINE",
"295 -190 LINE",
"295 372 LINE",
"277 372 LINE",
"270 544 LINE"
);
}
);
width = 624;
}
);
leftKerningGroup = n;
leftMetricsKey = n;
rightKerningGroup = b;
rightMetricsKey = o;
unicode = 0070;
},
{
color = 3;
glyphname = q;
lastChange = "2016-10-31 18:38:27 +0000";
layers = (
{
anchors = (
{
name = bottom;
position = "{306, 0}";
},
{
name = top;
position = "{306, 540}";
}
);
layerId = "E633209E-E2B6-404C-90C5-15D4CC42EC04";
paths = (
{
closed = 1;
nodes = (
"237 -190 LINE",
"613 -190 LINE",
"613 -170 LINE",
"237 -170 LINE"
);
},
{
closed = 1;
nodes = (
"249 412 OFFCURVE",
"263 530 OFFCURVE",
"378 530 CURVE SMOOTH",
"380 530 OFFCURVE",
"381 530 OFFCURVE",
"383 530 CURVE",
"329 531 LINE",
"329 138 LINE",
"348 138 LINE",
"337 104 OFFCURVE",
"329 36 OFFCURVE",
"329 -36 CURVE SMOOTH",
"329 -190 LINE",
"549 -190 LINE",
"549 526 LINE",
"549 526 OFFCURVE",
"479 550 OFFCURVE",
"374 550 CURVE SMOOTH",
"129 550 OFFCURVE",
"26 421 OFFCURVE",
"26 235 CURVE SMOOTH",
"26 77 OFFCURVE",
"100 -10 OFFCURVE",
"200 -10 CURVE SMOOTH",
"318 -10 OFFCURVE",
"363 111 OFFCURVE",
"363 203 CURVE",
"329 203 LINE",
"329 126 OFFCURVE",
"312 82 OFFCURVE",
"291 82 CURVE SMOOTH",
"269 82 OFFCURVE",
"249 129 OFFCURVE",
"249 283 CURVE SMOOTH"
);
}
);
width = 621;
}
);
leftKerningGroup = d;
leftMetricsKey = o;
rightKerningGroup = l;
unicode = 0071;
},
{
color = 3;
glyphname = r;
lastChange = "2016-10-31 18:38:27 +0000";
layers = (
{
anchors = (
{
name = bottom;
position = "{255, 0}";
},
{
name = top;
position = "{255, 540}";
}
);
layerId = "E633209E-E2B6-404C-90C5-15D4CC42EC04";
paths = (
{
closed = 1;
nodes = (
"295 280 LINE",
"295 402 OFFCURVE",
"324 498 OFFCURVE",
"361 498 CURVE SMOOTH",
"365 498 OFFCURVE",
"369 497 OFFCURVE",
"369 497 CURVE",
"379 340 LINE",
"379 340 OFFCURVE",
"395 337 OFFCURVE",
"412 337 CURVE SMOOTH",
"476 337 OFFCURVE",
"518 380 OFFCURVE",
"518 443 CURVE SMOOTH",
"518 508 OFFCURVE",
"472 550 OFFCURVE",
"404 550 CURVE SMOOTH",
"322 550 OFFCURVE",
"272 488 OFFCURVE",
"264 280 CURVE"
);
},
{
closed = 1;
nodes = (
"13 0 LINE",
"379 0 LINE",
"379 20 LINE",
"13 20 LINE"
);
},
{
closed = 1;
nodes = (
"251 550 LINE",
"190 543 OFFCURVE",
"106 540 OFFCURVE",
"13 540 CURVE",
"13 520 LINE",
"75 520 LINE",
"75 0 LINE",
"295 0 LINE",
"295 280 LINE",
"271 335 LINE",
"265 544 LINE"
);
}
);
width = 506;
},
{
anchors = (
{
name = bottom;
position = "{255, 0}";
},
{
name = top;
position = "{255, 540}";
}
);
associatedMasterId = "E633209E-E2B6-404C-90C5-15D4CC42EC04";
layerId = "06DD92C1-B88C-469C-9267-5DBAF03BECD8";
name = "Sep 20 16, 14:48";
paths = (
{
closed = 1;
nodes = (
"295 280 LINE",
"295 402 OFFCURVE",
"340 498 OFFCURVE",
"377 498 CURVE SMOOTH",
"381 498 OFFCURVE",
"385 497 OFFCURVE",
"385 497 CURVE",
"395 340 LINE",
"395 340 OFFCURVE",
"411 337 OFFCURVE",
"428 337 CURVE SMOOTH",
"492 337 OFFCURVE",
"534 380 OFFCURVE",
"534 443 CURVE SMOOTH",
"534 508 OFFCURVE",
"488 550 OFFCURVE",
"420 550 CURVE SMOOTH",
"338 550 OFFCURVE",
"273 488 OFFCURVE",
"264 280 CURVE"
);
},
{
closed = 1;
nodes = (
"13 0 LINE",
"379 0 LINE",
"379 20 LINE",
"13 20 LINE"
);
},
{
closed = 1;
nodes = (
"251 550 LINE",
"190 543 OFFCURVE",
"106 540 OFFCURVE",
"13 540 CURVE",
"13 520 LINE",
"75 520 LINE",
"75 0 LINE",
"295 0 LINE",
"295 280 LINE",
"271 335 LINE",
"265 544 LINE"
);
}
);
width = 526;
},
{
anchors = (
{
name = bottom;
position = "{191, 0}";
},
{
name = top;
position = "{191, 520}";
}
);
associatedMasterId = "F46DA1CF-2E88-465F-AE2F-6AF07AC13E65";
background = {
components = (
{
name = n;
transform = "{1, 0, 0, 1, 5, 0}";
}
);
};
layerId = "424E7784-D809-4C12-A7B4-CB4CEDA56229";
name = "Sep 20 16, 14:56";
paths = (
{
closed = 1;
nodes = (
"140 147 LINE",
"140 422 OFFCURVE",
"231 507 OFFCURVE",
"314 507 CURVE SMOOTH",
"342 507 OFFCURVE",
"361 498 OFFCURVE",
"361 498 CURVE",
"383 424 LINE",
"383 424 OFFCURVE",
"387 422 OFFCURVE",
"392 422 CURVE SMOOTH",
"404 422 OFFCURVE",
"412 434 OFFCURVE",
"412 453 CURVE SMOOTH",
"412 495 OFFCURVE",
"374 525 OFFCURVE",
"318 525 CURVE SMOOTH",
"224 525 OFFCURVE",
"125 439 OFFCURVE",
"125 147 CURVE"
);
},
{
closed = 1;
nodes = (
"21 0 LINE",
"220 0 LINE",
"220 14 LINE",
"21 14 LINE"
);
},
{
closed = 1;
nodes = (
"132 525 LINE",
"95 520 OFFCURVE",
"59 520 OFFCURVE",
"21 520 CURVE",
"21 506 LINE",
"120 506 LINE",
"120 0 LINE",
"140 0 LINE",
"140 296 LINE",
"139 296 LINE",
"140 521 LINE"
);
}
);
width = 426;
}
);
leftKerningGroup = n;
leftMetricsKey = n;
rightKerningGroup = r;
unicode = 0072;
},
{
color = 3;
glyphname = s;
lastChange = "2016-10-31 18:38:27 +0000";
layers = (
{
anchors = (
{
name = bottom;
position = "{241, 0}";
},
{
name = top;
position = "{241, 540}";
}
);
guideLines = (
{
angle = 144.0903;
position = "{351, 312}";
}
);
layerId = "E633209E-E2B6-404C-90C5-15D4CC42EC04";
paths = (
{
closed = 1;
nodes = (
"304 346 LINE SMOOTH",
"255 381 OFFCURVE",
"225 406 OFFCURVE",
"225 455 CURVE SMOOTH",
"225 501 OFFCURVE",
"251 531 OFFCURVE",
"276 531 CURVE SMOOTH",
"281 531 OFFCURVE",
"287 530 OFFCURVE",
"287 530 CURVE",
"357 385 LINE",
"357 385 OFFCURVE",
"363 384 OFFCURVE",
"371 384 CURVE SMOOTH",
"392 384 OFFCURVE",
"428 391 OFFCURVE",
"428 441 CURVE SMOOTH",
"428 514 OFFCURVE",
"351 550 OFFCURVE",
"261 550 CURVE SMOOTH",
"124 550 OFFCURVE",
"38 466 OFFCURVE",
"38 364 CURVE SMOOTH",
"38 310 OFFCURVE",
"62 261 OFFCURVE",
"124 216 CURVE SMOOTH",
"182 174 LINE SMOOTH",
"233 137 OFFCURVE",
"253 106 OFFCURVE",
"253 72 CURVE SMOOTH",
"253 43 OFFCURVE",
"239 17 OFFCURVE",
"207 17 CURVE SMOOTH",
"192 17 OFFCURVE",
"174 23 OFFCURVE",
"174 23 CURVE",
"96 163 LINE",
"96 163 OFFCURVE",
"90 165 OFFCURVE",
"81 165 CURVE SMOOTH",
"60 165 OFFCURVE",
"25 155 OFFCURVE",
"25 106 CURVE SMOOTH",
"25 26 OFFCURVE",
"121 -10 OFFCURVE",
"221 -10 CURVE SMOOTH",
"372 -10 OFFCURVE",
"443 71 OFFCURVE",
"443 162 CURVE SMOOTH",
"443 210 OFFCURVE",
"423 260 OFFCURVE",
"351 312 CURVE SMOOTH"
);
}
);
width = 466;
},
{
anchors = (
{
name = bottom;
position = "{229, 0}";
},
{
name = top;
position = "{229, 540}";
}
);
associatedMasterId = "E633209E-E2B6-404C-90C5-15D4CC42EC04";
layerId = "06E373C9-BA4C-43D6-B2EA-E4166AA745CD";
name = "Aug 29 16, 09:29";
paths = (
{
closed = 1;
nodes = (
"300 343 LINE SMOOTH",
"247 391 OFFCURVE",
"219 434 OFFCURVE",
"219 477 CURVE SMOOTH",
"219 514 OFFCURVE",
"239 531 OFFCURVE",
"262 531 CURVE SMOOTH",
"270 531 OFFCURVE",
"275 530 OFFCURVE",
"275 530 CURVE",
"345 385 LINE",
"345 385 OFFCURVE",
"351 384 OFFCURVE",
"360 384 CURVE SMOOTH",
"382 384 OFFCURVE",
"416 391 OFFCURVE",
"416 444 CURVE SMOOTH",
"416 524 OFFCURVE",
"335 550 OFFCURVE",
"251 550 CURVE SMOOTH",
"112 550 OFFCURVE",
"32 478 OFFCURVE",
"32 371 CURVE SMOOTH",
"32 319 OFFCURVE",
"52 270 OFFCURVE",
"101 226 CURVE SMOOTH",
"167 167 LINE SMOOTH",
"204 134 OFFCURVE",
"241 91 OFFCURVE",
"241 54 CURVE SMOOTH",
"241 30 OFFCURVE",
"226 17 OFFCURVE",
"200 17 CURVE SMOOTH",
"189 17 OFFCURVE",
"180 18 OFFCURVE",
"180 18 CURVE",
"100 163 LINE",
"100 163 OFFCURVE",
"94 165 OFFCURVE",
"84 165 CURVE SMOOTH",
"64 165 OFFCURVE",
"29 156 OFFCURVE",
"29 103 CURVE SMOOTH",
"29 16 OFFCURVE",
"127 -10 OFFCURVE",
"215 -10 CURVE SMOOTH",
"357 -10 OFFCURVE",
"431 57 OFFCURVE",
"431 148 CURVE SMOOTH",
"431 194 OFFCURVE",
"411 244 OFFCURVE",
"350 298 CURVE SMOOTH"
);
}
);
width = 457;
},
{
anchors = (
{
name = bottom;
position = "{214, 0}";
},
{
name = top;
position = "{214, 520}";
}
);
associatedMasterId = "F46DA1CF-2E88-465F-AE2F-6AF07AC13E65";
background = {
paths = (
{
closed = 0;
nodes = (
"195 513 LINE SMOOTH",
"248 513 OFFCURVE",
"282 496 OFFCURVE",
"282 496 CURVE",
"325 422 LINE",
"325 422 OFFCURVE",
"344 414 OFFCURVE",
"344 440 CURVE SMOOTH",
"344 478 OFFCURVE",
"290 525 OFFCURVE",
"200 525 CURVE SMOOTH"
);
}
);
};
layerId = "4F253202-0FFF-48C3-9D85-A84A4BAB2969";
name = "Sep 3 15, 17:22";
paths = (
{
closed = 1;
nodes = (
"167 300 LINE SMOOTH",
"122 324 OFFCURVE",
"92 355 OFFCURVE",
"92 405 CURVE SMOOTH",
"92 473 OFFCURVE",
"146 508 OFFCURVE",
"216 508 CURVE SMOOTH",
"266 508 OFFCURVE",
"293 490 OFFCURVE",
"293 490 CURVE",
"335 424 LINE",
"335 424 OFFCURVE",
"337 423 OFFCURVE",
"340 423 CURVE SMOOTH",
"345 423 OFFCURVE",
"352 426 OFFCURVE",
"352 439 CURVE SMOOTH",
"352 475 OFFCURVE",
"297 525 OFFCURVE",
"213 525 CURVE SMOOTH",
"134 525 OFFCURVE",
"74 481 OFFCURVE",
"74 401 CURVE SMOOTH",
"74 341 OFFCURVE",
"109 307 OFFCURVE",
"155 283 CURVE SMOOTH",
"242 238 LINE SMOOTH",
"295 211 OFFCURVE",
"335 178 OFFCURVE",
"335 117 CURVE SMOOTH",
"335 58 OFFCURVE",
"297 12 OFFCURVE",
"204 12 CURVE SMOOTH",
"139 12 OFFCURVE",
"105 34 OFFCURVE",
"105 34 CURVE",
"63 112 LINE",
"63 112 OFFCURVE",
"61 113 OFFCURVE",
"59 113 CURVE SMOOTH",
"54 113 OFFCURVE",
"47 109 OFFCURVE",
"47 93 CURVE SMOOTH",
"47 53 OFFCURVE",
"91 -5 OFFCURVE",
"199 -5 CURVE SMOOTH",
"304 -5 OFFCURVE",
"354 49 OFFCURVE",
"354 124 CURVE SMOOTH",
"354 197 OFFCURVE",
"305 226 OFFCURVE",
"251 255 CURVE SMOOTH"
);
}
);
width = 420;
},
{
anchors = (
{
name = bottom;
position = "{234, 0}";
},
{
name = top;
position = "{234, 540}";
}
);
associatedMasterId = "E633209E-E2B6-404C-90C5-15D4CC42EC04";
layerId = "3C3E9F17-77D3-4C5C-AA02-41CB792908AA";
name = "Oct 5 15, 00:48";
paths = (
{
closed = 1;
nodes = (
"305 343 LINE SMOOTH",
"252 391 OFFCURVE",
"224 434 OFFCURVE",
"224 477 CURVE SMOOTH",
"224 514 OFFCURVE",
"244 531 OFFCURVE",
"268 531 CURVE SMOOTH",
"274 531 OFFCURVE",
"280 530 OFFCURVE",
"280 530 CURVE",
"350 385 LINE",
"350 385 OFFCURVE",
"356 384 OFFCURVE",
"364 384 CURVE SMOOTH",
"385 384 OFFCURVE",
"421 391 OFFCURVE",
"421 441 CURVE SMOOTH",
"421 514 OFFCURVE",
"344 550 OFFCURVE",
"251 550 CURVE SMOOTH",
"119 550 OFFCURVE",
"37 478 OFFCURVE",
"37 372 CURVE SMOOTH",
"37 319 OFFCURVE",
"57 270 OFFCURVE",
"106 226 CURVE SMOOTH",
"172 167 LINE SMOOTH",
"209 134 OFFCURVE",
"246 91 OFFCURVE",
"246 54 CURVE SMOOTH",
"246 30 OFFCURVE",
"231 17 OFFCURVE",
"203 17 CURVE SMOOTH",
"184 17 OFFCURVE",
"167 23 OFFCURVE",
"167 23 CURVE",
"89 163 LINE",
"89 163 OFFCURVE",
"83 165 OFFCURVE",
"74 165 CURVE SMOOTH",
"53 165 OFFCURVE",
"18 155 OFFCURVE",
"18 106 CURVE SMOOTH",
"18 26 OFFCURVE",
"113 -10 OFFCURVE",
"218 -10 CURVE SMOOTH",
"362 -10 OFFCURVE",
"436 57 OFFCURVE",
"436 148 CURVE SMOOTH",
"436 197 OFFCURVE",
"415 244 OFFCURVE",
"355 298 CURVE SMOOTH"
);
}
);
width = 461;
}
);
leftKerningGroup = s;
rightKerningGroup = s;
unicode = 0073;
},
{
glyphname = longs;
lastChange = "2016-10-31 18:52:03 +0000";
layers = (
{
layerId = "E633209E-E2B6-404C-90C5-15D4CC42EC04";
paths = (
{
closed = 1;
nodes = (
"13 520 LINE",
"280 520 LINE",
"280 540 LINE",
"13 540 LINE"
);
},
{
closed = 1;
nodes = (
"13 0 LINE",
"386 0 LINE",
"386 20 LINE",
"13 20 LINE"
);
},
{
closed = 1;
nodes = (
"398 758 OFFCURVE",
"410 754 OFFCURVE",
"410 754 CURVE",
"420 583 LINE",
"420 583 OFFCURVE",
"438 579 OFFCURVE",
"459 579 CURVE SMOOTH",
"501 579 OFFCURVE",
"559 595 OFFCURVE",
"559 668 CURVE SMOOTH",
"559 747 OFFCURVE",
"493 790 OFFCURVE",
"364 790 CURVE SMOOTH",
"179 790 OFFCURVE",
"75 701 OFFCURVE",
"75 520 CURVE SMOOTH",
"75 0 LINE",
"295 0 LINE",
"295 629 LINE SMOOTH",
"295 714 OFFCURVE",
"324 758 OFFCURVE",
"381 758 CURVE SMOOTH"
);
}
);
width = 422;
},
{
associatedMasterId = "E633209E-E2B6-404C-90C5-15D4CC42EC04";
layerId = "8FECEBDF-AABC-407D-BA9A-2D1903E6D42C";
name = "Sep 3 15, 17:26";
paths = (
{
closed = 1;
nodes = (
"13 520 LINE",
"280 520 LINE",
"280 540 LINE",
"13 540 LINE"
);
},
{
closed = 1;
nodes = (
"13 0 LINE",
"368 0 LINE",
"368 20 LINE",
"13 20 LINE"
);
},
{
closed = 1;
nodes = (
"382 758 OFFCURVE",
"390 756 OFFCURVE",
"390 756 CURVE",
"400 580 LINE",
"400 580 OFFCURVE",
"539 576 OFFCURVE",
"539 680 CURVE SMOOTH",
"539 750 OFFCURVE",
"475 790 OFFCURVE",
"367 790 CURVE SMOOTH",
"209 790 OFFCURVE",
"75 704 OFFCURVE",
"75 514 CURVE SMOOTH",
"75 0 LINE",
"295 0 LINE",
"295 629 LINE SMOOTH",
"295 666 OFFCURVE",
"298 758 OFFCURVE",
"371 758 CURVE SMOOTH"
);
}
);
width = 362;
}
);
leftKerningGroup = h;
leftMetricsKey = l;
rightKerningGroup = longs;
unicode = 017F;
},
{
color = 3;
glyphname = t;
lastChange = "2016-10-31 18:38:27 +0000";
layers = (
{
anchors = (
{
name = bottom;
position = "{231, 0}";
},
{
name = center;
position = "{194, 350}";
},
{
name = top;
position = "{194, 650}";
},
{
name = topright;
position = "{358, 540}";
}
);
layerId = "E633209E-E2B6-404C-90C5-15D4CC42EC04";
paths = (
{
closed = 1;
nodes = (
"295 677 LINE",
"282 682 LINE",
"234 641 OFFCURVE",
"169 620 OFFCURVE",
"75 616 CURVE",
"75 171 LINE SMOOTH",
"75 53 OFFCURVE",
"140 -9 OFFCURVE",
"236 -9 CURVE SMOOTH",
"384 -9 OFFCURVE",
"408 133 OFFCURVE",
"408 133 CURVE",
"378 143 LINE",
"378 143 OFFCURVE",
"359 66 OFFCURVE",
"321 66 CURVE SMOOTH",
"307 66 OFFCURVE",
"295 77 OFFCURVE",
"295 125 CURVE SMOOTH"
);
},
{
closed = 1;
nodes = (
"1 520 LINE",
"397 520 LINE",
"397 540 LINE",
"1 540 LINE"
);
}
);
width = 410;
},
{
anchors = (
{
name = bottom;
position = "{164, 0}";
},
{
name = center;
position = "{164, 260}";
},
{
name = top;
position = "{164, 520}";
},
{
name = topright;
position = "{308, 520}";
}
);
associatedMasterId = "F46DA1CF-2E88-465F-AE2F-6AF07AC13E65";
layerId = "54D692A2-04C8-4730-8F3C-5D476C0C9579";
name = "Light ]90]";
paths = (
{
closed = 1;
nodes = (
"140 626 LINE",
"120 620 LINE",
"120 85 LINE SMOOTH",
"120 31 OFFCURVE",
"153 -5 OFFCURVE",
"205 -5 CURVE SMOOTH",
"283 -5 OFFCURVE",
"307 79 OFFCURVE",
"307 79 CURVE",
"292 85 LINE",
"292 85 OFFCURVE",
"270 13 OFFCURVE",
"208 13 CURVE SMOOTH",
"168 13 OFFCURVE",
"140 40 OFFCURVE",
"140 81 CURVE SMOOTH"
);
},
{
closed = 1;
nodes = (
"9 506 LINE",
"296 506 LINE",
"296 520 LINE",
"9 520 LINE"
);
}
);
width = 328;
},
{
anchors = (
{
name = bottom;
position = "{234, 0}";
},
{
name = center;
position = "{197, 270}";
},
{
name = top;
position = "{197, 650}";
},
{
name = topright;
position = "{361, 540}";
}
);
associatedMasterId = "E633209E-E2B6-404C-90C5-15D4CC42EC04";
layerId = "BD52F936-B35D-4A7F-94B8-8FBFB7B9C7E1";
name = "Bold ]90]";
paths = (
{
closed = 1;
nodes = (
"298 677 LINE",
"78 616 LINE",
"78 171 LINE SMOOTH",
"78 53 OFFCURVE",
"139 -9 OFFCURVE",
"235 -9 CURVE SMOOTH",
"374 -9 OFFCURVE",
"397 123 OFFCURVE",
"397 123 CURVE",
"378 130 LINE",
"378 130 OFFCURVE",
"362 68 OFFCURVE",
"326 68 CURVE SMOOTH",
"311 68 OFFCURVE",
"298 79 OFFCURVE",
"298 125 CURVE SMOOTH"
);
},
{
closed = 1;
nodes = (
"11 520 LINE",
"388 520 LINE",
"388 540 LINE",
"11 540 LINE"
);
}
);
width = 391;
},
{
anchors = (
{
name = bottom;
position = "{231, 0}";
},
{
name = center;
position = "{194, 270}";
},
{
name = top;
position = "{194, 650}";
},
{
name = topright;
position = "{358, 540}";
}
);
associatedMasterId = "E633209E-E2B6-404C-90C5-15D4CC42EC04";
layerId = "7BDAF2BE-80DD-4819-B8C5-C8B91E17807A";
name = "Oct 14 16, 15:41";
paths = (
{
closed = 1;
nodes = (
"295 677 LINE",
"282 682 LINE",
"234 641 OFFCURVE",
"169 620 OFFCURVE",
"75 616 CURVE",
"75 171 LINE SMOOTH",
"75 53 OFFCURVE",
"136 -9 OFFCURVE",
"232 -9 CURVE SMOOTH",
"371 -9 OFFCURVE",
"394 123 OFFCURVE",
"394 123 CURVE",
"364 133 LINE",
"364 133 OFFCURVE",
"350 68 OFFCURVE",
"320 68 CURVE SMOOTH",
"308 68 OFFCURVE",
"295 79 OFFCURVE",
"295 125 CURVE SMOOTH"
);
},
{
closed = 1;
nodes = (
"1 520 LINE",
"385 520 LINE",
"385 540 LINE",
"1 540 LINE"
);
}
);
width = 398;
}
);
leftKerningGroup = t;
rightKerningGroup = t;
unicode = 0074;
},
{
color = 3;
glyphname = u;
lastChange = "2016-10-31 18:38:27 +0000";
layers = (
{
associatedMasterId = "E633209E-E2B6-404C-90C5-15D4CC42EC04";
layerId = "1007BD9B-3372-41E4-82F7-30A59E916B8D";
name = "Regular Jun 20 16, 20:39";
paths = (
{
closed = 1;
nodes = (
"611 540 LINE",
"412 540 LINE",
"412 520 LINE",
"611 520 LINE"
);
},
{
closed = 1;
nodes = (
"370 0 LINE",
"611 0 LINE",
"611 20 LINE",
"556 20 LINE",
"556 540 LINE",
"336 540 LINE",
"336 168 LINE",
"349 168 LINE"
);
},
{
closed = 1;
nodes = (
"336 149 OFFCURVE",
"318 84 OFFCURVE",
"299 84 CURVE SMOOTH",
"284 84 OFFCURVE",
"280 116 OFFCURVE",
"280 165 CURVE SMOOTH",
"280 537 LINE",
"266 543 LINE",
"199 511 OFFCURVE",
"107 497 OFFCURVE",
"5 497 CURVE",
"5 477 LINE",
"60 477 LINE",
"60 222 LINE SMOOTH",
"60 71 OFFCURVE",
"94 -10 OFFCURVE",
"198 -10 CURVE SMOOTH",
"272 -10 OFFCURVE",
"343 32 OFFCURVE",
"361 186 CURVE",
"336 218 LINE"
);
}
);
width = 621;
},
{
anchors = (
{
name = bottom;
position = "{324, 0}";
},
{
name = ogonek;
position = "{586, 0}";
},
{
name = top;
position = "{324, 540}";
},
{
name = topright;
position = "{618, 540}";
}
);
layerId = "E633209E-E2B6-404C-90C5-15D4CC42EC04";
paths = (
{
closed = 1;
nodes = (
"541 540 LINE",
"342 540 LINE",
"342 520 LINE",
"541 520 LINE"
);
},
{
closed = 1;
nodes = (
"404 0 LINE",
"641 0 LINE",
"641 20 LINE",
"586 20 LINE",
"586 540 LINE",
"366 540 LINE",
"366 168 LINE",
"383 168 LINE"
);
},
{
closed = 1;
nodes = (
"366 149 OFFCURVE",
"348 84 OFFCURVE",
"321 84 CURVE SMOOTH",
"302 84 OFFCURVE",
"295 116 OFFCURVE",
"295 165 CURVE SMOOTH",
"295 544 LINE",
"281 550 LINE",
"212 543 OFFCURVE",
"118 540 OFFCURVE",
"13 540 CURVE",
"13 520 LINE",
"75 520 LINE",
"75 222 LINE SMOOTH",
"75 70 OFFCURVE",
"113 -10 OFFCURVE",
"224 -10 CURVE SMOOTH",
"304 -10 OFFCURVE",
"377 32 OFFCURVE",
"395 186 CURVE",
"366 218 LINE"
);
}
);
width = 659;
},
{
associatedMasterId = "E633209E-E2B6-404C-90C5-15D4CC42EC04";
layerId = "C10CC8AF-8CE2-48D0-8DF9-9EBCB9F94BD3";
name = "Regular Jul 4 16, 22:05";
paths = (
{
closed = 1;
nodes = (
"611 540 LINE",
"412 540 LINE",
"412 520 LINE",
"611 520 LINE"
);
},
{
closed = 1;
nodes = (
"370 0 LINE",
"611 0 LINE",
"611 20 LINE",
"556 20 LINE",
"556 540 LINE",
"336 540 LINE",
"336 168 LINE",
"349 168 LINE"
);
},
{
closed = 1;
nodes = (
"336 149 OFFCURVE",
"318 84 OFFCURVE",
"299 84 CURVE SMOOTH",
"284 84 OFFCURVE",
"280 116 OFFCURVE",
"280 165 CURVE SMOOTH",
"280 544 LINE",
"266 550 LINE",
"199 506 OFFCURVE",
"107 487 OFFCURVE",
"5 487 CURVE",
"5 467 LINE",
"60 467 LINE",
"60 222 LINE SMOOTH",
"60 71 OFFCURVE",
"94 -10 OFFCURVE",
"198 -10 CURVE SMOOTH",
"272 -10 OFFCURVE",
"343 32 OFFCURVE",
"361 186 CURVE",
"336 218 LINE"
);
}
);
width = 621;
}
);
leftKerningGroup = u;
rightKerningGroup = u;
unicode = 0075;
},
{
color = 3;
glyphname = v;
lastChange = "2016-10-31 18:38:27 +0000";
layers = (
{
anchors = (
{
name = bottom;
position = "{272, 0}";
},
{
name = top;
position = "{272, 540}";
}
);
associatedMasterId = "E633209E-E2B6-404C-90C5-15D4CC42EC04";
background = {
paths = (
{
closed = 1;
nodes = (
"346 45 LINE",
"268 540 LINE",
"26 540 LINE",
"137 45 LINE"
);
},
{
closed = 1;
nodes = (
"-15 520 LINE",
"218 520 LINE",
"218 540 LINE",
"-15 540 LINE"
);
},
{
closed = 1;
nodes = (
"330 540 LINE",
"330 526 LINE",
"453 397 LINE",
"334 56 LINE",
"102 -163 LINE",
"283 -200 LINE",
"521 526 LINE",
"521 540 LINE"
);
}
);
};
layerId = "C6F78BB4-B622-4D06-975F-E07B591FEC14";
name = "Bold Sep 1 16, 10:44";
paths = (
{
closed = 1;
nodes = (
"-22 520 LINE",
"272 520 LINE",
"272 540 LINE",
"-22 540 LINE"
);
},
{
closed = 1;
nodes = (
"346 540 LINE",
"346 526 LINE",
"484 397 LINE",
"368 56 LINE",
"388 56 LINE",
"274 540 LINE",
"30 540 LINE",
"183 0 LINE",
"385 0 LINE",
"560 520 LINE",
"560 540 LINE"
);
}
);
width = 552;
},
{
anchors = (
{
name = bottom;
position = "{279, 0}";
},
{
name = top;
position = "{279, 540}";
}
);
background = {
paths = (
{
closed = 1;
nodes = (
"353 45 LINE",
"275 540 LINE",
"33 540 LINE",
"144 45 LINE"
);
},
{
closed = 1;
nodes = (
"-8 520 LINE",
"225 520 LINE",
"225 540 LINE",
"-8 540 LINE"
);
},
{
closed = 1;
nodes = (
"337 540 LINE",
"337 526 LINE",
"460 397 LINE",
"341 56 LINE",
"109 -163 LINE",
"290 -200 LINE",
"528 526 LINE",
"528 540 LINE"
);
}
);
};
layerId = "E633209E-E2B6-404C-90C5-15D4CC42EC04";
paths = (
{
closed = 1;
nodes = (
"353 526 LINE",
"491 397 LINE",
"387 91 LINE",
"280 544 LINE",
"263 550 LINE",
"172 541 OFFCURVE",
"79 539 OFFCURVE",
"-15 540 CURVE",
"-15 520 LINE",
"43 520 LINE",
"190 0 LINE",
"392 0 LINE",
"574 540 LINE",
"557 550 LINE",
"490 540 OFFCURVE",
"420 540 OFFCURVE",
"353 540 CURVE"
);
}
);
width = 581;
},
{
anchors = (
{
name = bottom;
position = "{280, 0}";
},
{
name = top;
position = "{280, 520}";
}
);
associatedMasterId = "F46DA1CF-2E88-465F-AE2F-6AF07AC13E65";
layerId = "EC3D5E94-EE76-492C-BAF0-FD512EEFE1C2";
name = "Sep 2 16, 20:16";
paths = (
{
closed = 1;
nodes = (
"-3 506 LINE",
"97 506 LINE",
"97 520 LINE",
"-3 520 LINE"
);
},
{
closed = 1;
nodes = (
"373 520 LINE",
"373 506 LINE",
"461 499 LINE",
"272 19 LINE",
"282 19 LINE",
"103 520 LINE",
"79 520 LINE",
"267 0 LINE",
"282 0 LINE",
"483 508 LINE",
"483 520 LINE"
);
}
);
width = 510;
}
);
leftKerningGroup = v;
rightKerningGroup = v;
unicode = 0076;
},
{
color = 3;
glyphname = w;
lastChange = "2016-10-31 18:38:27 +0000";
layers = (
{
anchors = (
{
name = bottom;
position = "{412, 0}";
},
{
name = top;
position = "{412, 540}";
}
);
associatedMasterId = "E633209E-E2B6-404C-90C5-15D4CC42EC04";
layerId = "5470F3AC-632D-4C69-844A-A4DA6ABE5E12";
name = "Sep 1 15, 20:46";
paths = (
{
closed = 1;
nodes = (
"665 130 LINE",
"681 130 LINE",
"569 540 LINE",
"419 540 LINE",
"319 138 LINE",
"336 138 LINE",
"246 540 LINE",
"17 540 LINE",
"152 0 LINE",
"320 0 LINE",
"409 342 LINE",
"394 342 LINE",
"502 0 LINE",
"659 0 LINE",
"836 526 LINE",
"836 540 LINE",
"628 540 LINE",
"628 526 LINE",
"756 397 LINE"
);
},
{
closed = 1;
nodes = (
"-30 519 LINE",
"231 519 LINE",
"231 540 LINE",
"-30 540 LINE"
);
}
);
width = 823;
},
{
anchors = (
{
name = bottom;
position = "{341, 0}";
},
{
name = top;
position = "{341, 520}";
}
);
associatedMasterId = "F46DA1CF-2E88-465F-AE2F-6AF07AC13E65";
layerId = "B29BA755-8DBB-440A-A3C3-98CBA3A84D5F";
name = "Sep 2 16, 20:13";
paths = (
{
closed = 1;
nodes = (
"523 20 LINE",
"540 20 LINE",
"379 520 LINE",
"361 520 LINE",
"193 20 LINE",
"206 20 LINE",
"73 520 LINE",
"49 520 LINE",
"193 0 LINE",
"206 0 LINE",
"375 499 LINE",
"364 499 LINE",
"525 0 LINE",
"537 0 LINE",
"712 506 LINE",
"712 520 LINE",
"555 520 LINE",
"555 506 LINE",
"689 500 LINE"
);
},
{
closed = 1;
nodes = (
"-19 506 LINE",
"200 506 LINE",
"200 520 LINE",
"-19 520 LINE"
);
}
);
width = 707;
},
{
anchors = (
{
name = bottom;
position = "{443, 0}";
},
{
name = top;
position = "{443, 540}";
}
);
associatedMasterId = "E633209E-E2B6-404C-90C5-15D4CC42EC04";
background = {
paths = (
{
closed = 0;
nodes = (
"312 544 LINE",
"295 550 LINE",
"204 541 OFFCURVE",
"111 539 OFFCURVE",
"17 540 CURVE",
"17 520 LINE",
"75 520 LINE"
);
}
);
};
guideLines = (
{
angle = -73.8798;
position = "{616, 540}";
}
);
layerId = "773E89B0-4456-4248-85FD-42F69D6D50F4";
name = "Bold Oct 4 15, 23:24";
paths = (
{
closed = 1;
nodes = (
"647 526 LINE",
"772 397 LINE",
"703 156 LINE",
"605 540 LINE",
"449 540 LINE",
"370 174 LINE",
"277 544 LINE",
"260 550 LINE",
"178 543 OFFCURVE",
"94 540 OFFCURVE",
"7 540 CURVE",
"7 519 LINE",
"55 519 LINE",
"198 0 LINE",
"366 0 LINE",
"431 316 LINE",
"516 0 LINE",
"687 0 LINE",
"856 544 LINE",
"839 550 LINE",
"775 541 OFFCURVE",
"711 539 OFFCURVE",
"647 540 CURVE"
);
}
);
width = 863;
},
{
anchors = (
{
name = bottom;
position = "{442, 0}";
},
{
name = top;
position = "{442, 540}";
}
);
background = {
paths = (
{
closed = 0;
nodes = (
"295 544 LINE",
"278 550 LINE",
"187 541 OFFCURVE",
"94 539 OFFCURVE",
"0 540 CURVE",
"0 520 LINE",
"58 520 LINE"
);
}
);
};
guideLines = (
{
angle = -73.8798;
position = "{599, 540}";
}
);
layerId = "E633209E-E2B6-404C-90C5-15D4CC42EC04";
paths = (
{
closed = 1;
nodes = (
"658 526 LINE",
"786 397 LINE",
"710 156 LINE",
"599 540 LINE",
"449 540 LINE",
"363 174 LINE",
"265 544 LINE",
"248 550 LINE",
"164 543 OFFCURVE",
"79 540 OFFCURVE",
"-10 540 CURVE",
"-10 519 LINE",
"42 519 LINE",
"192 0 LINE",
"360 0 LINE",
"432 316 LINE",
"523 0 LINE",
"694 0 LINE",
"871 544 LINE",
"854 550 LINE",
"789 541 OFFCURVE",
"723 539 OFFCURVE",
"658 540 CURVE"
);
}
);
width = 880;
}
);
leftKerningGroup = w;
rightKerningGroup = w;
unicode = 0077;
},
{
color = 3;
glyphname = x;
lastChange = "2016-10-31 18:38:27 +0000";
layers = (
{
anchors = (
{
name = bottom;
position = "{300, 0}";
},
{
name = top;
position = "{300, 540}";
}
);
background = {
paths = (
{
closed = 1;
nodes = (
"421 77 LINE",
"429 77 LINE",
"373 540 LINE",
"131 540 LINE",
"229 0 LINE",
"432 0 LINE",
"545 540 LINE",
"511 540 LINE"
);
},
{
closed = 1;
nodes = (
"60 520 LINE",
"423 520 LINE",
"423 540 LINE",
"60 540 LINE"
);
},
{
closed = 1;
nodes = (
"470 520 LINE",
"623 520 LINE",
"623 540 LINE",
"470 540 LINE"
);
}
);
};
layerId = "E633209E-E2B6-404C-90C5-15D4CC42EC04";
paths = (
{
closed = 1;
nodes = (
"376 0 LINE",
"599 0 LINE",
"599 20 LINE",
"376 20 LINE"
);
},
{
closed = 1;
nodes = (
"516 542 OFFCURVE",
"448 539 OFFCURVE",
"379 540 CURVE",
"379 526 LINE",
"469 409 LINE",
"369 250 LINE",
"410 250 LINE",
"588 544 LINE",
"581 550 LINE"
);
},
{
closed = 1;
nodes = (
"205 310 LINE",
"21 20 LINE",
"21 0 LINE",
"228 0 LINE",
"228 14 LINE",
"137 136 LINE",
"246 310 LINE"
);
},
{
closed = 1;
nodes = (
"269 544 LINE",
"248 550 LINE",
"167 542 OFFCURVE",
"85 540 OFFCURVE",
"0 540 CURVE",
"0 520 LINE",
"49 520 LINE",
"329 0 LINE",
"564 0 LINE"
);
}
);
width = 599;
},
{
anchors = (
{
name = bottom;
position = "{300, 0}";
},
{
name = top;
position = "{300, 540}";
}
);
associatedMasterId = "E633209E-E2B6-404C-90C5-15D4CC42EC04";
background = {
paths = (
{
closed = 1;
nodes = (
"421 77 LINE",
"429 77 LINE",
"373 540 LINE",
"131 540 LINE",
"229 0 LINE",
"432 0 LINE",
"545 540 LINE",
"511 540 LINE"
);
},
{
closed = 1;
nodes = (
"60 520 LINE",
"423 520 LINE",
"423 540 LINE",
"60 540 LINE"
);
},
{
closed = 1;
nodes = (
"470 520 LINE",
"623 520 LINE",
"623 540 LINE",
"470 540 LINE"
);
}
);
};
layerId = "6DEB4C98-ED3B-4EFB-A965-622C2386178A";
name = "Sep 1 15, 20:49";
paths = (
{
closed = 1;
nodes = (
"272 540 LINE",
"38 540 LINE",
"329 0 LINE",
"564 0 LINE"
);
},
{
closed = 1;
nodes = (
"0 520 LINE",
"223 520 LINE",
"223 540 LINE",
"0 540 LINE"
);
},
{
closed = 1;
nodes = (
"376 0 LINE",
"599 0 LINE",
"599 20 LINE",
"376 20 LINE"
);
},
{
closed = 1;
nodes = (
"364 540 LINE",
"364 526 LINE",
"469 409 LINE",
"369 250 LINE",
"410 250 LINE",
"579 520 LINE",
"579 540 LINE"
);
},
{
closed = 1;
nodes = (
"205 310 LINE",
"32 20 LINE",
"32 0 LINE",
"235 0 LINE",
"235 14 LINE",
"141 136 LINE",
"246 310 LINE"
);
}
);
width = 599;
},
{
anchors = (
{
name = bottom;
position = "{300, 0}";
},
{
name = top;
position = "{300, 520}";
}
);
associatedMasterId = "F46DA1CF-2E88-465F-AE2F-6AF07AC13E65";
layerId = "BAFAA851-ED53-4D12-952E-AFB4EB75B046";
name = "Sep 2 16, 20:23";
paths = (
{
closed = 1;
nodes = (
"117 520 LINE",
"93 520 LINE",
"430 0 LINE",
"454 0 LINE"
);
},
{
closed = 1;
nodes = (
"29 508 LINE",
"112 508 LINE",
"110 520 LINE",
"29 520 LINE"
);
},
{
closed = 1;
nodes = (
"435 0 LINE",
"504 0 LINE",
"504 12 LINE",
"433 12 LINE"
);
},
{
closed = 1;
nodes = (
"336 520 LINE",
"336 508 LINE",
"443 500 LINE",
"259 268 LINE",
"280 268 LINE",
"470 508 LINE",
"470 520 LINE"
);
},
{
closed = 1;
nodes = (
"259 268 LINE",
"61 12 LINE",
"61 0 LINE",
"194 0 LINE",
"194 12 LINE",
"88 20 LINE",
"280 268 LINE"
);
}
);
width = 533;
},
{
anchors = (
{
name = bottom;
position = "{300, 0}";
},
{
name = top;
position = "{300, 540}";
}
);
associatedMasterId = "E633209E-E2B6-404C-90C5-15D4CC42EC04";
background = {
paths = (
{
closed = 1;
nodes = (
"421 77 LINE",
"429 77 LINE",
"373 540 LINE",
"131 540 LINE",
"229 0 LINE",
"432 0 LINE",
"545 540 LINE",
"511 540 LINE"
);
},
{
closed = 1;
nodes = (
"60 520 LINE",
"423 520 LINE",
"423 540 LINE",
"60 540 LINE"
);
},
{
closed = 1;
nodes = (
"470 520 LINE",
"623 520 LINE",
"623 540 LINE",
"470 540 LINE"
);
}
);
};
layerId = "648D8300-39AA-4882-82E6-4C8731D40ECB";
name = "Sep 5 15, 10:24";
paths = (
{
closed = 1;
nodes = (
"376 0 LINE",
"599 0 LINE",
"599 20 LINE",
"376 20 LINE"
);
},
{
closed = 1;
nodes = (
"379 540 LINE",
"379 526 LINE",
"469 409 LINE",
"369 250 LINE",
"410 250 LINE",
"579 520 LINE",
"579 540 LINE"
);
},
{
closed = 1;
nodes = (
"205 310 LINE",
"21 20 LINE",
"21 0 LINE",
"228 0 LINE",
"228 14 LINE",
"137 136 LINE",
"246 310 LINE"
);
},
{
closed = 1;
nodes = (
"269 544 LINE",
"248 550 LINE",
"167 542 OFFCURVE",
"85 540 OFFCURVE",
"0 540 CURVE",
"0 520 LINE",
"49 520 LINE",
"329 0 LINE",
"564 0 LINE"
);
}
);
width = 599;
},
{
anchors = (
{
name = bottom;
position = "{294, 0}";
},
{
name = top;
position = "{294, 520}";
}
);
associatedMasterId = "F46DA1CF-2E88-465F-AE2F-6AF07AC13E65";
layerId = "2BEBE857-F84A-4090-AA4C-7333500AF1C1";
name = "Sep 5 15, 10:24";
paths = (
{
closed = 1;
nodes = (
"407 0 LINE",
"508 0 LINE",
"508 12 LINE",
"405 12 LINE"
);
},
{
closed = 1;
nodes = (
"336 520 LINE",
"336 508 LINE",
"423 500 LINE",
"246 268 LINE",
"267 268 LINE",
"450 508 LINE",
"450 520 LINE"
);
},
{
closed = 1;
nodes = (
"244 268 LINE",
"53 12 LINE",
"53 0 LINE",
"166 0 LINE",
"166 12 LINE",
"80 20 LINE",
"265 268 LINE"
);
},
{
closed = 1;
nodes = (
"118 520 LINE",
"111 525 LINE",
"81 520 OFFCURVE",
"50 520 OFFCURVE",
"20 520 CURVE",
"20 508 LINE",
"102 508 LINE",
"402 0 LINE",
"426 0 LINE"
);
}
);
width = 522;
}
);
leftKerningGroup = x;
rightKerningGroup = x;
unicode = 0078;
},
{
color = 3;
glyphname = y;
lastChange = "2016-10-31 18:38:27 +0000";
layers = (
{
anchors = (
{
name = bottom;
position = "{282, 0}";
},
{
name = top;
position = "{282, 540}";
}
);
background = {
paths = (
{
closed = 1;
nodes = (
"-15 520 LINE",
"279 520 LINE",
"279 540 LINE",
"-15 540 LINE"
);
},
{
closed = 1;
nodes = (
"353 540 LINE",
"353 526 LINE",
"491 397 LINE",
"375 56 LINE",
"395 56 LINE",
"281 540 LINE",
"37 540 LINE",
"190 0 LINE",
"392 0 LINE",
"567 520 LINE",
"567 540 LINE"
);
}
);
};
guideLines = (
{
angle = 257.999;
position = "{447, 540}";
}
);
layerId = "E633209E-E2B6-404C-90C5-15D4CC42EC04";
paths = (
{
closed = 1;
nodes = (
"495 541 OFFCURVE",
"424 540 OFFCURVE",
"353 540 CURVE",
"353 526 LINE",
"491 397 LINE",
"377 56 LINE",
"150 -163 LINE",
"326 -200 LINE",
"574 544 LINE",
"566 550 LINE"
);
},
{
closed = 1;
nodes = (
"279 544 LINE",
"263 550 LINE",
"170 541 OFFCURVE",
"78 540 OFFCURVE",
"-15 540 CURVE",
"-15 520 LINE",
"44 520 LINE",
"178 45 LINE",
"399 45 LINE"
);
}
);
width = 581;
},
{
anchors = (
{
name = bottom;
position = "{280, 0}";
},
{
name = top;
position = "{280, 520}";
}
);
associatedMasterId = "F46DA1CF-2E88-465F-AE2F-6AF07AC13E65";
background = {
paths = (
{
closed = 1;
nodes = (
"-3 506 LINE",
"94 506 LINE",
"94 520 LINE",
"-3 520 LINE"
);
},
{
closed = 1;
nodes = (
"329 520 LINE",
"329 506 LINE",
"444 499 LINE",
"262 19 LINE",
"272 19 LINE",
"99 520 LINE",
"76 520 LINE",
"257 0 LINE",
"272 0 LINE",
"465 508 LINE",
"465 520 LINE"
);
}
);
};
layerId = "F70ADC34-3156-4CFA-BA06-0E231FA39DFB";
name = "Sep 2 16, 20:17";
paths = (
{
closed = 1;
nodes = (
"282 19 LINE",
"103 520 LINE",
"79 520 LINE",
"260 19 LINE"
);
},
{
closed = 1;
nodes = (
"-3 506 LINE",
"97 506 LINE",
"97 520 LINE",
"-3 520 LINE"
);
},
{
closed = 1;
nodes = (
"370 520 LINE",
"370 506 LINE",
"458 494 LINE",
"272 21 LINE",
"180 -191 LINE",
"204 -200 LINE",
"483 508 LINE",
"483 520 LINE"
);
}
);
width = 505;
},
{
anchors = (
{
name = bottom;
position = "{295, 0}";
},
{
name = top;
position = "{295, 540}";
}
);
associatedMasterId = "E633209E-E2B6-404C-90C5-15D4CC42EC04";
background = {
paths = (
{
closed = 1;
nodes = (
"-2 520 LINE",
"292 520 LINE",
"292 540 LINE",
"-2 540 LINE"
);
},
{
closed = 1;
nodes = (
"366 540 LINE",
"366 526 LINE",
"504 397 LINE",
"388 56 LINE",
"408 56 LINE",
"294 540 LINE",
"50 540 LINE",
"203 0 LINE",
"405 0 LINE",
"580 520 LINE",
"580 540 LINE"
);
}
);
};
guideLines = (
{
angle = 257.999;
position = "{460, 540}";
}
);
layerId = "504AF75F-A06C-47B8-8682-A212358D7063";
name = "Sep 2 16, 20:18";
paths = (
{
closed = 1;
nodes = (
"412 45 LINE",
"293 540 LINE",
"51 540 LINE",
"191 45 LINE"
);
},
{
closed = 1;
nodes = (
"-2 520 LINE",
"243 520 LINE",
"243 540 LINE",
"-2 540 LINE"
);
},
{
closed = 1;
nodes = (
"366 540 LINE",
"366 526 LINE",
"504 397 LINE",
"390 56 LINE",
"163 -163 LINE",
"339 -200 LINE",
"581 526 LINE",
"581 540 LINE"
);
}
);
width = 566;
}
);
leftKerningGroup = v;
leftMetricsKey = v;
rightKerningGroup = v;
rightMetricsKey = v;
unicode = 0079;
},
{
color = 3;
glyphname = z;
lastChange = "2016-10-31 18:38:27 +0000";
layers = (
{
anchors = (
{
name = bottom;
position = "{260, 0}";
},
{
name = top;
position = "{260, 540}";
}
);
associatedMasterId = "E633209E-E2B6-404C-90C5-15D4CC42EC04";
layerId = "9C9F100F-C506-4173-B8B6-6D486157559A";
name = "Bold Aug 8 16, 10:52";
paths = (
{
closed = 1;
nodes = (
"57 257 LINE",
"81 257 LINE",
"81 344 LINE",
"57 344 LINE"
);
},
{
closed = 1;
nodes = (
"474 189 LINE",
"498 189 LINE",
"498 276 LINE",
"474 276 LINE"
);
},
{
closed = 1;
nodes = (
"57 540 LINE",
"57 319 LINE",
"176 319 LINE SMOOTH",
"289 319 OFFCURVE",
"349 366 OFFCURVE",
"397 428 CURVE",
"473 540 LINE"
);
},
{
closed = 1;
nodes = (
"38 0 LINE",
"498 0 LINE",
"498 218 LINE",
"478 218 LINE",
"385 218 OFFCURVE",
"291 218 OFFCURVE",
"145 146 CURVE"
);
},
{
closed = 1;
nodes = (
"31 -25 LINE",
"506 554 LINE",
"488 570 LINE",
"13 -9 LINE"
);
}
);
width = 531;
},
{
anchors = (
{
name = bottom;
position = "{260, 0}";
},
{
name = top;
position = "{260, 540}";
}
);
associatedMasterId = "E633209E-E2B6-404C-90C5-15D4CC42EC04";
layerId = "10303ADF-0B7C-4C98-B12D-219FB76F25C8";
name = "Bold Aug 8 16, 11:00";
paths = (
{
closed = 1;
nodes = (
"57 257 LINE",
"81 257 LINE",
"81 344 LINE",
"57 344 LINE"
);
},
{
closed = 1;
nodes = (
"474 189 LINE",
"498 189 LINE",
"498 276 LINE",
"474 276 LINE"
);
},
{
closed = 1;
nodes = (
"57 540 LINE",
"57 319 LINE",
"288 319 LINE",
"397 428 LINE",
"473 540 LINE"
);
},
{
closed = 1;
nodes = (
"38 0 LINE",
"498 0 LINE",
"498 218 LINE",
"478 218 LINE",
"208 218 LINE"
);
},
{
closed = 1;
nodes = (
"31 -25 LINE",
"506 554 LINE",
"488 570 LINE",
"13 -9 LINE"
);
}
);
width = 531;
},
{
anchors = (
{
name = bottom;
position = "{208, 0}";
},
{
name = top;
position = "{208, 520}";
}
);
associatedMasterId = "F46DA1CF-2E88-465F-AE2F-6AF07AC13E65";
layerId = "F47BC1DC-C317-40D7-9A92-6FA3A31644B1";
name = "Light Aug 24 15, 16:24";
paths = (
{
closed = 1;
nodes = (
"46 510 LINE",
"379 510 LINE",
"365 517 LINE",
"31 10 LINE",
"30 0 LINE",
"388 0 LINE",
"370 10 LINE",
"42 10 LINE",
"54 4 LINE",
"388 510 LINE",
"388 520 LINE",
"46 520 LINE"
);
},
{
closed = 1;
nodes = (
"28 520 LINE",
"28 510 LINE",
"46 462 LINE",
"56 462 LINE",
"78 520 LINE"
);
},
{
closed = 1;
nodes = (
"388 0 LINE",
"388 10 LINE",
"369 67 LINE",
"359 67 LINE",
"332 0 LINE"
);
}
);
width = 416;
},
{
anchors = (
{
name = bottom;
position = "{264, 0}";
},
{
name = top;
position = "{273, 540}";
}
);
associatedMasterId = "E633209E-E2B6-404C-90C5-15D4CC42EC04";
layerId = "37CD5378-8F24-4F4D-89D0-25680E6695C7";
name = "Aug 29 15, 16:30";
paths = (
{
closed = 1;
nodes = (
"87 513 LINE",
"324 513 LINE",
"253 530 LINE",
"19 20 LINE",
"26 0 LINE",
"478 0 LINE",
"477 27 LINE",
"162 27 LINE",
"250 10 LINE",
"498 520 LINE",
"492 540 LINE",
"86 540 LINE"
);
},
{
closed = 1;
nodes = (
"37 540 LINE",
"37 362 LINE",
"57 362 LINE",
"187 540 LINE"
);
},
{
closed = 1;
nodes = (
"497 0 LINE",
"497 187 LINE",
"477 187 LINE",
"341 0 LINE"
);
}
);
width = 526;
},
{
anchors = (
{
name = bottom;
position = "{277, 0}";
},
{
name = top;
position = "{286, 540}";
}
);
layerId = "E633209E-E2B6-404C-90C5-15D4CC42EC04";
paths = (
{
closed = 1;
nodes = (
"90 513 LINE",
"348 513 LINE",
"277 530 LINE",
"22 20 LINE",
"29 0 LINE",
"489 0 LINE",
"488 27 LINE",
"165 27 LINE",
"253 10 LINE",
"522 520 LINE",
"515 540 LINE",
"89 540 LINE"
);
},
{
closed = 1;
nodes = (
"40 540 LINE",
"40 342 LINE",
"56 342 LINE",
"210 540 LINE"
);
},
{
closed = 1;
nodes = (
"509 0 LINE",
"509 207 LINE",
"493 207 LINE",
"325 0 LINE"
);
}
);
width = 553;
}
);
leftKerningGroup = z;
rightKerningGroup = z;
unicode = 007A;
},
{
color = 3;
glyphname = zero;
lastChange = "2016-10-31 18:38:27 +0000";
layers = (
{
layerId = "E633209E-E2B6-404C-90C5-15D4CC42EC04";
paths = (
{
closed = 1;
nodes = (
"529 -10 OFFCURVE",
"635 115 OFFCURVE",
"635 354 CURVE SMOOTH",
"635 588 OFFCURVE",
"534 710 OFFCURVE",
"339 710 CURVE SMOOTH",
"136 710 OFFCURVE",
"30 583 OFFCURVE",
"30 340 CURVE SMOOTH",
"30 110 OFFCURVE",
"131 -10 OFFCURVE",
"325 -10 CURVE SMOOTH"
);
},
{
closed = 1;
nodes = (
"285 25 OFFCURVE",
"265 121 OFFCURVE",
"265 361 CURVE SMOOTH",
"265 585 OFFCURVE",
"283 675 OFFCURVE",
"329 675 CURVE SMOOTH",
"380 675 OFFCURVE",
"400 578 OFFCURVE",
"400 335 CURVE SMOOTH",
"400 114 OFFCURVE",
"382 25 OFFCURVE",
"336 25 CURVE SMOOTH"
);
}
);
width = 665;
}
);
leftKerningGroup = zero.lf;
rightKerningGroup = zero.lf;
unicode = 0030;
},
{
color = 3;
glyphname = one;
lastChange = "2016-10-31 18:38:27 +0000";
layers = (
{
associatedMasterId = "E633209E-E2B6-404C-90C5-15D4CC42EC04";
layerId = "0BCD232C-8175-44A3-ABD8-7A8FDB8EA5D1";
name = "Bold Oct 4 15, 22:28";
paths = (
{
closed = 1;
nodes = (
"355 710 LINE",
"251 705 OFFCURVE",
"144 702 OFFCURVE",
"32 700 CURVE",
"32 675 LINE",
"133 659 LINE",
"133 0 LINE",
"355 0 LINE"
);
},
{
closed = 1;
nodes = (
"3 0 LINE",
"481 0 LINE",
"481 22 LINE",
"3 22 LINE"
);
}
);
width = 480;
},
{
layerId = "E633209E-E2B6-404C-90C5-15D4CC42EC04";
paths = (
{
closed = 1;
nodes = (
"361 710 LINE",
"244 666 OFFCURVE",
"123 635 OFFCURVE",
"-3 617 CURVE",
"1 582 LINE",
"139 598 LINE",
"139 0 LINE",
"361 0 LINE"
);
},
{
closed = 1;
nodes = (
"21 0 LINE",
"475 0 LINE",
"475 22 LINE",
"21 22 LINE"
);
}
);
width = 486;
}
);
leftKerningGroup = one.lf;
rightKerningGroup = one.lf;
unicode = 0031;
},
{
color = 3;
glyphname = two;
lastChange = "2016-10-31 18:38:27 +0000";
layers = (
{
background = {
paths = (
{
closed = 0;
nodes = (
"221 710 LINE SMOOTH",
"122 710 OFFCURVE",
"25 677 OFFCURVE",
"25 677 CURVE",
"25 495 LINE",
"38 495 LINE",
"168 675 LINE",
"168 675 OFFCURVE",
"191 678 OFFCURVE",
"209 678 CURVE SMOOTH"
);
}
);
};
layerId = "E633209E-E2B6-404C-90C5-15D4CC42EC04";
paths = (
{
closed = 1;
nodes = (
"543 201 LINE",
"240 201 LINE",
"276 224 LINE SMOOTH",
"373 285 OFFCURVE",
"539 380 OFFCURVE",
"539 530 CURVE SMOOTH",
"539 647 OFFCURVE",
"439 710 OFFCURVE",
"259 710 CURVE SMOOTH",
"128 710 OFFCURVE",
"25 677 OFFCURVE",
"25 677 CURVE",
"25 483 LINE",
"45 483 LINE",
"154 659 LINE",
"154 659 OFFCURVE",
"172 665 OFFCURVE",
"195 665 CURVE SMOOTH",
"278 665 OFFCURVE",
"307 583 OFFCURVE",
"307 507 CURVE SMOOTH",
"307 389 OFFCURVE",
"237 276 OFFCURVE",
"138 159 CURVE SMOOTH",
"18 17 LINE",
"25 0 LINE",
"581 0 LINE",
"599 270 LINE",
"579 270 LINE"
);
}
);
width = 609;
},
{
associatedMasterId = "E633209E-E2B6-404C-90C5-15D4CC42EC04";
layerId = "E8EFC277-67B2-4B7A-B9ED-87A3340D5BC3";
name = "Oct 4 15, 21:48";
paths = (
{
closed = 1;
nodes = (
"541 218 LINE",
"420 204 OFFCURVE",
"314 190 OFFCURVE",
"190 153 CURVE",
"256 193 LINE SMOOTH",
"368 261 OFFCURVE",
"535 376 OFFCURVE",
"535 530 CURVE SMOOTH",
"535 647 OFFCURVE",
"438 710 OFFCURVE",
"306 710 CURVE SMOOTH",
"130 710 OFFCURVE",
"25 597 OFFCURVE",
"25 597 CURVE",
"45 571 LINE",
"45 571 OFFCURVE",
"111 631 OFFCURVE",
"183 631 CURVE SMOOTH",
"255 631 OFFCURVE",
"307 572 OFFCURVE",
"307 490 CURVE SMOOTH",
"307 390 OFFCURVE",
"224 260 OFFCURVE",
"138 159 CURVE SMOOTH",
"18 17 LINE",
"25 0 LINE",
"565 0 LINE",
"565 270 LINE",
"541 270 LINE"
);
}
);
width = 600;
},
{
associatedMasterId = "F46DA1CF-2E88-465F-AE2F-6AF07AC13E65";
layerId = "5BCD18AA-079A-4C20-9820-B93825EE1499";
name = "Oct 14 16, 11:03";
paths = (
{
closed = 1;
nodes = (
"473 24 LINE",
"341 24 OFFCURVE",
"211 22 OFFCURVE",
"79 20 CURVE",
"162 108 LINE SMOOTH",
"322 278 OFFCURVE",
"437 398 OFFCURVE",
"437 535 CURVE SMOOTH",
"437 652 OFFCURVE",
"354 705 OFFCURVE",
"265 705 CURVE SMOOTH",
"146 705 OFFCURVE",
"48 612 OFFCURVE",
"48 612 CURVE",
"60 600 LINE",
"60 600 OFFCURVE",
"159 686 OFFCURVE",
"259 686 CURVE SMOOTH",
"330 686 OFFCURVE",
"413 642 OFFCURVE",
"413 528 CURVE SMOOTH",
"413 391 OFFCURVE",
"292 273 OFFCURVE",
"141 114 CURVE SMOOTH",
"45 13 LINE",
"50 0 LINE",
"489 0 LINE",
"489 80 LINE",
"473 80 LINE"
);
}
);
width = 520;
}
);
leftKerningGroup = two.lf;
rightKerningGroup = two.lf;
unicode = 0032;
},
{
color = 3;
glyphname = three;
lastChange = "2016-10-31 18:38:27 +0000";
layers = (
{
layerId = "E633209E-E2B6-404C-90C5-15D4CC42EC04";
paths = (
{
closed = 1;
nodes = (
"72 433 LINE",
"88 433 LINE",
"168 540 LINE",
"72 540 LINE"
);
},
{
closed = 1;
nodes = (
"225 24 OFFCURVE",
"208 29 OFFCURVE",
"208 29 CURVE",
"80 205 LINE",
"60 205 LINE",
"60 21 LINE",
"60 21 OFFCURVE",
"163 -10 OFFCURVE",
"256 -10 CURVE SMOOTH",
"355 -10 OFFCURVE",
"572 25 OFFCURVE",
"572 206 CURVE SMOOTH",
"572 343 OFFCURVE",
"447 378 OFFCURVE",
"339 378 CURVE SMOOTH",
"254 378 OFFCURVE",
"213 356 OFFCURVE",
"172 341 CURVE",
"179 327 LINE",
"548 553 LINE",
"544 700 LINE",
"72 700 LINE",
"72 509 LINE",
"396 509 LINE",
"132 341 LINE",
"151 307 LINE",
"151 307 OFFCURVE",
"187 330 OFFCURVE",
"232 330 CURVE SMOOTH",
"294 330 OFFCURVE",
"340 287 OFFCURVE",
"340 177 CURVE SMOOTH",
"340 60 OFFCURVE",
"287 24 OFFCURVE",
"242 24 CURVE SMOOTH"
);
}
);
width = 601;
},
{
associatedMasterId = "E633209E-E2B6-404C-90C5-15D4CC42EC04";
layerId = "E85C075A-3934-4914-A223-C96570DEAFC3";
name = "Oct 14 15, 12:08";
paths = (
{
closed = 1;
nodes = (
"189 347 LINE",
"558 553 LINE",
"554 700 LINE",
"82 700 LINE",
"82 509 LINE",
"414 509 LINE",
"145 357 LINE",
"161 327 LINE",
"161 327 OFFCURVE",
"198 350 OFFCURVE",
"240 350 CURVE SMOOTH",
"304 350 OFFCURVE",
"350 297 OFFCURVE",
"350 209 CURVE SMOOTH",
"350 48 OFFCURVE",
"258 24 OFFCURVE",
"205 24 CURVE SMOOTH",
"187 24 OFFCURVE",
"178 28 OFFCURVE",
"178 28 CURVE",
"125 200 LINE",
"125 200 OFFCURVE",
"114 202 OFFCURVE",
"101 202 CURVE SMOOTH",
"70 202 OFFCURVE",
"26 191 OFFCURVE",
"26 137 CURVE SMOOTH",
"26 68 OFFCURVE",
"104 -10 OFFCURVE",
"268 -10 CURVE SMOOTH",
"373 -10 OFFCURVE",
"582 22 OFFCURVE",
"582 221 CURVE SMOOTH",
"582 362 OFFCURVE",
"458 398 OFFCURVE",
"341 398 CURVE SMOOTH",
"268 398 OFFCURVE",
"216 374 OFFCURVE",
"182 361 CURVE"
);
},
{
closed = 1;
nodes = (
"82 433 LINE",
"98 433 LINE",
"178 540 LINE",
"82 540 LINE"
);
}
);
width = 600;
}
);
leftKerningGroup = three.lf;
rightKerningGroup = three.lf;
unicode = 0033;
},
{
color = 3;
glyphname = four;
lastChange = "2016-10-31 18:38:27 +0000";
layers = (
{
layerId = "E633209E-E2B6-404C-90C5-15D4CC42EC04";
paths = (
{
closed = 1;
nodes = (
"497 481 LINE",
"447 412 OFFCURVE",
"377 368 OFFCURVE",
"287 344 CURVE",
"287 0 LINE",
"515 0 LINE",
"515 478 LINE"
);
},
{
closed = 1;
nodes = (
"282 710 LINE",
"5 217 LINE",
"16 197 LINE",
"604 198 LINE",
"604 228 LINE",
"130 228 LINE",
"522 670 LINE"
);
},
{
closed = 1;
nodes = (
"198 0 LINE",
"604 0 LINE",
"604 24 LINE",
"198 24 LINE"
);
}
);
width = 611;
},
{
associatedMasterId = "E633209E-E2B6-404C-90C5-15D4CC42EC04";
layerId = "F6508F2C-B51A-4F76-890C-A8D375CBD3E5";
name = "Sep 23 15, 17:44";
paths = (
{
closed = 1;
nodes = (
"343 710 LINE",
"2 217 LINE",
"13 197 LINE",
"571 198 LINE",
"571 228 LINE",
"57 228 LINE",
"254 518 LINE",
"254 0 LINE",
"482 0 LINE",
"482 702 LINE"
);
}
);
width = 600;
}
);
leftKerningGroup = four.lf;
rightKerningGroup = four.lf;
unicode = 0034;
},
{
color = 3;
glyphname = five;
lastChange = "2016-10-31 18:38:27 +0000";
layers = (
{
associatedMasterId = "E633209E-E2B6-404C-90C5-15D4CC42EC04";
layerId = "41C5CBCB-784B-4E8C-ABFB-0075D5320AF2";
name = "Oct 4 16, 21:29";
paths = (
{
closed = 1;
nodes = (
"344 -10 OFFCURVE",
"550 18 OFFCURVE",
"550 231 CURVE SMOOTH",
"550 372 OFFCURVE",
"460 440 OFFCURVE",
"292 440 CURVE SMOOTH",
"208 440 OFFCURVE",
"144 423 OFFCURVE",
"144 423 CURVE",
"162 392 LINE",
"175 526 LINE",
"533 527 LINE",
"533 727 LINE",
"508 727 LINE",
"508 700 LINE",
"155 700 LINE",
"110 266 LINE",
"110 266 OFFCURVE",
"146 276 OFFCURVE",
"189 276 CURVE SMOOTH",
"275 276 OFFCURVE",
"322 235 OFFCURVE",
"322 154 CURVE SMOOTH",
"322 60 OFFCURVE",
"258 24 OFFCURVE",
"205 24 CURVE SMOOTH",
"187 24 OFFCURVE",
"178 28 OFFCURVE",
"178 28 CURVE",
"125 200 LINE",
"125 200 OFFCURVE",
"114 202 OFFCURVE",
"101 202 CURVE SMOOTH",
"70 202 OFFCURVE",
"26 191 OFFCURVE",
"26 137 CURVE SMOOTH",
"26 68 OFFCURVE",
"100 -10 OFFCURVE",
"253 -10 CURVE SMOOTH"
);
}
);
width = 600;
},
{
associatedMasterId = "E633209E-E2B6-404C-90C5-15D4CC42EC04";
layerId = "F2601D58-1E34-4BFE-92A0-DD5A09506724";
name = "Bold Oct 13 16, 15:50";
paths = (
{
closed = 1;
nodes = (
"214 24 OFFCURVE",
"198 29 OFFCURVE",
"198 29 CURVE",
"64 205 LINE",
"50 205 LINE",
"50 21 LINE",
"50 21 OFFCURVE",
"143 -10 OFFCURVE",
"249 -10 CURVE SMOOTH",
"346 -10 OFFCURVE",
"550 16 OFFCURVE",
"550 235 CURVE SMOOTH",
"550 353 OFFCURVE",
"497 418 OFFCURVE",
"397 418 CURVE SMOOTH",
"310 418 OFFCURVE",
"240 376 OFFCURVE",
"240 376 CURVE",
"283 379 LINE",
"283 662 LINE",
"523 662 LINE",
"523 700 LINE",
"74 700 LINE",
"64 312 LINE",
"64 312 OFFCURVE",
"138 330 OFFCURVE",
"213 330 CURVE SMOOTH",
"292 330 OFFCURVE",
"322 272 OFFCURVE",
"322 171 CURVE SMOOTH",
"322 51 OFFCURVE",
"280 24 OFFCURVE",
"234 24 CURVE SMOOTH"
);
},
{
closed = 1;
nodes = (
"523 481 LINE",
"523 692 LINE",
"307 692 LINE",
"507 481 LINE"
);
}
);
width = 600;
},
{
layerId = "E633209E-E2B6-404C-90C5-15D4CC42EC04";
paths = (
{
closed = 1;
nodes = (
"195 24 OFFCURVE",
"179 29 OFFCURVE",
"179 29 CURVE",
"51 205 LINE",
"31 205 LINE",
"31 21 LINE",
"31 21 OFFCURVE",
"114 -10 OFFCURVE",
"233 -10 CURVE SMOOTH",
"426 -10 OFFCURVE",
"535 72 OFFCURVE",
"535 214 CURVE SMOOTH",
"535 345 OFFCURVE",
"443 430 OFFCURVE",
"298 430 CURVE SMOOTH",
"162 430 OFFCURVE",
"78 356 OFFCURVE",
"78 356 CURVE",
"101 356 LINE",
"113 499 LINE",
"483 499 LINE",
"483 700 LINE",
"92 700 LINE",
"62 302 LINE",
"62 302 OFFCURVE",
"117 330 OFFCURVE",
"174 330 CURVE SMOOTH",
"255 330 OFFCURVE",
"302 272 OFFCURVE",
"302 170 CURVE SMOOTH",
"302 79 OFFCURVE",
"265 24 OFFCURVE",
"212 24 CURVE SMOOTH"
);
},
{
closed = 1;
nodes = (
"267 569 LINE",
"483 499 LINE",
"506 740 LINE",
"486 740 LINE"
);
}
);
width = 560;
},
{
associatedMasterId = "F46DA1CF-2E88-465F-AE2F-6AF07AC13E65";
layerId = "9C5C3916-8A26-4162-AD06-C14B9048A1D9";
name = "Oct 14 15, 12:36";
paths = (
{
closed = 1;
nodes = (
"151 15 OFFCURVE",
"90 43 OFFCURVE",
"90 43 CURVE",
"68 166 LINE",
"52 166 LINE",
"52 36 LINE",
"52 36 OFFCURVE",
"119 -5 OFFCURVE",
"233 -5 CURVE SMOOTH",
"390 -5 OFFCURVE",
"483 72 OFFCURVE",
"483 215 CURVE SMOOTH",
"483 346 OFFCURVE",
"404 427 OFFCURVE",
"253 427 CURVE SMOOTH",
"156 427 OFFCURVE",
"97 394 OFFCURVE",
"97 394 CURVE",
"114 386 LINE",
"140 676 LINE",
"453 676 LINE",
"453 700 LINE",
"123 700 LINE",
"93 374 LINE",
"93 374 OFFCURVE",
"157 405 OFFCURVE",
"250 407 CURVE SMOOTH",
"389 407 OFFCURVE",
"458 332 OFFCURVE",
"458 212 CURVE SMOOTH",
"458 83 OFFCURVE",
"376 15 OFFCURVE",
"239 15 CURVE SMOOTH"
);
},
{
closed = 1;
nodes = (
"417 676 LINE",
"453 676 LINE",
"458 736 LINE",
"442 736 LINE"
);
}
);
width = 527;
},
{
associatedMasterId = "F46DA1CF-2E88-465F-AE2F-6AF07AC13E65";
layerId = "54C508A5-D6FB-4E6B-874A-AA06DC5CD365";
name = "Oct 20 15, 18:20";
paths = (
{
closed = 1;
nodes = (
"148 15 OFFCURVE",
"89 43 OFFCURVE",
"89 43 CURVE",
"67 166 LINE",
"52 166 LINE",
"52 36 LINE",
"52 36 OFFCURVE",
"117 -5 OFFCURVE",
"227 -5 CURVE SMOOTH",
"379 -5 OFFCURVE",
"469 72 OFFCURVE",
"469 212 CURVE SMOOTH",
"469 340 OFFCURVE",
"393 417 OFFCURVE",
"247 417 CURVE SMOOTH",
"153 417 OFFCURVE",
"96 384 OFFCURVE",
"96 384 CURVE",
"112 376 LINE",
"137 676 LINE",
"440 676 LINE",
"440 700 LINE",
"121 700 LINE",
"92 364 LINE",
"92 364 OFFCURVE",
"154 397 OFFCURVE",
"243 397 CURVE SMOOTH",
"378 397 OFFCURVE",
"444 326 OFFCURVE",
"444 210 CURVE SMOOTH",
"444 83 OFFCURVE",
"365 15 OFFCURVE",
"233 15 CURVE SMOOTH"
);
},
{
closed = 1;
nodes = (
"405 676 LINE",
"440 676 LINE",
"445 736 LINE",
"429 736 LINE"
);
}
);
width = 513;
}
);
leftKerningGroup = five.lf;
rightKerningGroup = five.lf;
unicode = 0035;
},
{
color = 3;
glyphname = six;
lastChange = "2016-10-31 18:38:27 +0000";
layers = (
{
layerId = "E633209E-E2B6-404C-90C5-15D4CC42EC04";
paths = (
{
closed = 1;
nodes = (
"201 710 OFFCURVE",
"30 628 OFFCURVE",
"30 314 CURVE SMOOTH",
"30 63 OFFCURVE",
"157 -10 OFFCURVE",
"316 -10 CURVE SMOOTH",
"497 -10 OFFCURVE",
"596 88 OFFCURVE",
"596 238 CURVE SMOOTH",
"596 357 OFFCURVE",
"527 435 OFFCURVE",
"412 435 CURVE SMOOTH",
"266 435 OFFCURVE",
"218 318 OFFCURVE",
"218 210 CURVE",
"244 210 LINE",
"244 320 OFFCURVE",
"281 356 OFFCURVE",
"315 356 CURVE SMOOTH",
"357 356 OFFCURVE",
"368 274 OFFCURVE",
"368 191 CURVE SMOOTH",
"368 85 OFFCURVE",
"351 23 OFFCURVE",
"318 23 CURVE SMOOTH",
"279 23 OFFCURVE",
"258 106 OFFCURVE",
"258 281 CURVE SMOOTH",
"258 522 OFFCURVE",
"295 678 OFFCURVE",
"396 678 CURVE SMOOTH",
"412 678 OFFCURVE",
"423 675 OFFCURVE",
"423 675 CURVE",
"546 505 LINE",
"567 505 LINE",
"567 687 LINE",
"567 687 OFFCURVE",
"493 710 OFFCURVE",
"389 710 CURVE SMOOTH"
);
}
);
width = 623;
},
{
associatedMasterId = "F46DA1CF-2E88-465F-AE2F-6AF07AC13E65";
layerId = "570F0E49-1EB3-4158-858B-4ED79E6EFA2F";
name = "Light ]///90]";
paths = (
{
closed = 1;
nodes = (
"443 705 LINE",
"443 705 OFFCURVE",
"67 649 OFFCURVE",
"67 268 CURVE SMOOTH",
"67 88 OFFCURVE",
"151 -5 OFFCURVE",
"273 -5 CURVE SMOOTH",
"394 -5 OFFCURVE",
"467 86 OFFCURVE",
"467 199 CURVE SMOOTH",
"467 318 OFFCURVE",
"386 379 OFFCURVE",
"277 379 CURVE SMOOTH",
"227 379 OFFCURVE",
"191 366 OFFCURVE",
"191 366 CURVE",
"192 357 LINE",
"192 357 OFFCURVE",
"226 366 OFFCURVE",
"265 366 CURVE SMOOTH",
"331 366 OFFCURVE",
"442 341 OFFCURVE",
"442 194 CURVE SMOOTH",
"442 86 OFFCURVE",
"382 14 OFFCURVE",
"279 14 CURVE SMOOTH",
"166 14 OFFCURVE",
"92 100 OFFCURVE",
"92 267 CURVE SMOOTH",
"92 585 OFFCURVE",
"361 670 OFFCURVE",
"447 690 CURVE"
);
}
);
width = 536;
},
{
associatedMasterId = "F46DA1CF-2E88-465F-AE2F-6AF07AC13E65";
layerId = "725F1270-4EF3-4284-95CE-CC11063130C0";
name = "Oct 4 15, 22:33";
paths = (
{
closed = 1;
nodes = (
"443 705 LINE",
"443 705 OFFCURVE",
"67 649 OFFCURVE",
"67 268 CURVE SMOOTH",
"67 88 OFFCURVE",
"151 -5 OFFCURVE",
"273 -5 CURVE SMOOTH",
"394 -5 OFFCURVE",
"467 86 OFFCURVE",
"467 200 CURVE SMOOTH",
"467 318 OFFCURVE",
"389 379 OFFCURVE",
"285 379 CURVE SMOOTH",
"228 379 OFFCURVE",
"191 360 OFFCURVE",
"191 360 CURVE",
"191 360 OFFCURVE",
"442 417 OFFCURVE",
"442 195 CURVE SMOOTH",
"442 86 OFFCURVE",
"382 14 OFFCURVE",
"279 14 CURVE SMOOTH",
"166 14 OFFCURVE",
"92 100 OFFCURVE",
"92 267 CURVE SMOOTH",
"92 585 OFFCURVE",
"361 670 OFFCURVE",
"447 690 CURVE"
);
}
);
width = 536;
},
{
associatedMasterId = "E633209E-E2B6-404C-90C5-15D4CC42EC04";
layerId = "F1B8B4EA-2A42-4297-ADF4-90B8B5B3D5F7";
name = "Bold ]///90]";
paths = (
{
closed = 1;
nodes = (
"484 710 LINE",
"484 710 OFFCURVE",
"25 664 OFFCURVE",
"25 273 CURVE SMOOTH",
"25 76 OFFCURVE",
"141 -10 OFFCURVE",
"295 -10 CURVE SMOOTH",
"461 -10 OFFCURVE",
"571 91 OFFCURVE",
"571 235 CURVE SMOOTH",
"571 346 OFFCURVE",
"506 415 OFFCURVE",
"405 415 CURVE SMOOTH",
"347 415 OFFCURVE",
"303 392 OFFCURVE",
"288 383 CURVE",
"288 379 LINE",
"288 379 OFFCURVE",
"290 377 OFFCURVE",
"294 372 CURVE SMOOTH",
"309 354 OFFCURVE",
"343 300 OFFCURVE",
"343 168 CURVE SMOOTH",
"343 87 OFFCURVE",
"330 23 OFFCURVE",
"303 23 CURVE SMOOTH",
"270 23 OFFCURVE",
"253 125 OFFCURVE",
"253 241 CURVE SMOOTH",
"253 597 OFFCURVE",
"413 659 OFFCURVE",
"492 679 CURVE"
);
}
);
width = 587;
},
{
associatedMasterId = "E633209E-E2B6-404C-90C5-15D4CC42EC04";
layerId = "8AF6D9A2-3F68-4E53-9E80-D853E6264C26";
name = "Oct 4 15, 22:33";
paths = (
{
closed = 1;
nodes = (
"484 710 LINE",
"484 710 OFFCURVE",
"25 664 OFFCURVE",
"25 272 CURVE SMOOTH",
"25 75 OFFCURVE",
"141 -10 OFFCURVE",
"294 -10 CURVE SMOOTH",
"461 -10 OFFCURVE",
"571 91 OFFCURVE",
"571 235 CURVE SMOOTH",
"571 346 OFFCURVE",
"506 415 OFFCURVE",
"407 415 CURVE SMOOTH",
"335 415 OFFCURVE",
"288 379 OFFCURVE",
"288 379 CURVE",
"288 379 OFFCURVE",
"343 335 OFFCURVE",
"343 168 CURVE SMOOTH",
"343 87 OFFCURVE",
"330 23 OFFCURVE",
"303 23 CURVE SMOOTH",
"270 23 OFFCURVE",
"253 124 OFFCURVE",
"253 240 CURVE SMOOTH",
"253 592 OFFCURVE",
"408 658 OFFCURVE",
"492 679 CURVE"
);
}
);
width = 587;
},
{
associatedMasterId = "E633209E-E2B6-404C-90C5-15D4CC42EC04";
layerId = "9E097CE3-E680-4ACD-8732-50A3F7F6A84D";
name = "Oct 16 15, 19:39";
paths = (
{
closed = 1;
nodes = (
"197 710 OFFCURVE",
"30 628 OFFCURVE",
"30 314 CURVE SMOOTH",
"30 63 OFFCURVE",
"153 -10 OFFCURVE",
"305 -10 CURVE SMOOTH",
"481 -10 OFFCURVE",
"576 88 OFFCURVE",
"576 238 CURVE SMOOTH",
"576 357 OFFCURVE",
"510 435 OFFCURVE",
"400 435 CURVE SMOOTH",
"260 435 OFFCURVE",
"216 318 OFFCURVE",
"216 210 CURVE",
"242 210 LINE",
"242 320 OFFCURVE",
"275 356 OFFCURVE",
"303 356 CURVE SMOOTH",
"340 356 OFFCURVE",
"348 274 OFFCURVE",
"348 191 CURVE SMOOTH",
"348 85 OFFCURVE",
"335 23 OFFCURVE",
"307 23 CURVE SMOOTH",
"275 23 OFFCURVE",
"258 106 OFFCURVE",
"258 281 CURVE SMOOTH",
"258 522 OFFCURVE",
"290 678 OFFCURVE",
"383 678 CURVE SMOOTH",
"396 678 OFFCURVE",
"405 675 OFFCURVE",
"405 675 CURVE",
"528 505 LINE",
"548 505 LINE",
"548 687 LINE",
"548 687 OFFCURVE",
"477 710 OFFCURVE",
"377 710 CURVE SMOOTH"
);
}
);
width = 603;
},
{
associatedMasterId = "F46DA1CF-2E88-465F-AE2F-6AF07AC13E65";
layerId = "BEDB932E-250D-4B29-AC0C-2B3CC6A465AA";
name = "Oct 20 15, 18:18";
paths = (
{
closed = 1;
nodes = (
"165 705 OFFCURVE",
"67 555 OFFCURVE",
"67 335 CURVE SMOOTH",
"67 129 OFFCURVE",
"153 -5 OFFCURVE",
"305 -5 CURVE SMOOTH",
"429 -5 OFFCURVE",
"507 85 OFFCURVE",
"507 215 CURVE SMOOTH",
"507 336 OFFCURVE",
"438 417 OFFCURVE",
"327 417 CURVE SMOOTH",
"193 417 OFFCURVE",
"115 298 OFFCURVE",
"115 119 CURVE",
"133 119 LINE",
"133 286 OFFCURVE",
"201 397 OFFCURVE",
"321 397 CURVE SMOOTH",
"419 397 OFFCURVE",
"481 324 OFFCURVE",
"481 212 CURVE SMOOTH",
"481 95 OFFCURVE",
"415 15 OFFCURVE",
"307 15 CURVE SMOOTH",
"173 15 OFFCURVE",
"93 140 OFFCURVE",
"93 337 CURVE SMOOTH",
"93 544 OFFCURVE",
"181 685 OFFCURVE",
"347 685 CURVE SMOOTH",
"404 685 OFFCURVE",
"447 668 OFFCURVE",
"447 668 CURVE",
"465 551 LINE",
"481 551 LINE",
"481 673 LINE",
"481 673 OFFCURVE",
"422 705 OFFCURVE",
"341 705 CURVE SMOOTH"
);
}
);
width = 556;
}
);
leftKerningGroup = six.lf;
leftMetricsKey = zero;
rightKerningGroup = six.lf;
unicode = 0036;
},
{
color = 3;
glyphname = seven;
lastChange = "2016-10-31 18:38:27 +0000";
layers = (
{
associatedMasterId = "E633209E-E2B6-404C-90C5-15D4CC42EC04";
layerId = "FC82E0E1-0706-41E5-A3B1-E7411DCE6FC4";
name = "Sep 23 15, 17:51";
paths = (
{
closed = 1;
nodes = (
"109 9 LINE",
"146 -10 LINE",
"554 690 LINE",
"518 710 LINE"
);
},
{
closed = 1;
nodes = (
"524 700 LINE",
"79 700 LINE",
"65 489 LINE",
"405 489 LINE"
);
}
);
width = 600;
},
{
associatedMasterId = "E633209E-E2B6-404C-90C5-15D4CC42EC04";
layerId = "9B9314B3-8F31-41FE-BCC2-8EF466349210";
name = "Sep 23 15, 19:20";
paths = (
{
closed = 1;
nodes = (
"79 700 LINE",
"65 499 LINE",
"409 499 LINE",
"201 351 OFFCURVE",
"143 191 OFFCURVE",
"122 0 CURVE",
"364 -10 LINE",
"382 216 OFFCURVE",
"418 454 OFFCURVE",
"554 700 CURVE"
);
}
);
width = 600;
},
{
associatedMasterId = "F46DA1CF-2E88-465F-AE2F-6AF07AC13E65";
layerId = "60052C90-51FF-4347-8EEF-E1039986E3A9";
name = "Sep 23 15, 19:22";
paths = (
{
closed = 1;
nodes = (
"47 700 LINE",
"46 678 LINE",
"406 678 LINE",
"238 445 OFFCURVE",
"133 219 OFFCURVE",
"90 1 CURVE",
"108 -2 LINE",
"158 231 OFFCURVE",
"279 467 OFFCURVE",
"445 700 CURVE"
);
}
);
width = 480;
},
{
associatedMasterId = "E633209E-E2B6-404C-90C5-15D4CC42EC04";
layerId = "037AEF0F-D9FF-433A-ACDD-DD400418021C";
name = "Bold Oct 13 16, 16:21";
paths = (
{
closed = 1;
nodes = (
"58 700 LINE",
"58 675 LINE",
"369 675 LINE",
"248 496 OFFCURVE",
"172 309 OFFCURVE",
"172 84 CURVE SMOOTH",
"172 0 LINE",
"404 0 LINE",
"403 94 LINE SMOOTH",
"401 289 OFFCURVE",
"461 491 OFFCURVE",
"554 700 CURVE"
);
},
{
closed = 1;
nodes = (
"71 0 LINE",
"510 0 LINE",
"510 24 LINE",
"71 24 LINE"
);
},
{
closed = 1;
nodes = (
"274 689 LINE",
"58 689 LINE",
"58 478 LINE",
"74 478 LINE"
);
}
);
width = 600;
},
{
layerId = "E633209E-E2B6-404C-90C5-15D4CC42EC04";
paths = (
{
closed = 1;
nodes = (
"80 0 LINE",
"478 0 LINE",
"478 24 LINE",
"80 24 LINE"
);
},
{
closed = 1;
nodes = (
"42 700 LINE",
"42 421 LINE",
"62 421 LINE",
"124 499 LINE",
"418 499 LINE",
"257 373 OFFCURVE",
"156 242 OFFCURVE",
"156 84 CURVE SMOOTH",
"156 0 LINE",
"388 0 LINE",
"387 94 LINE SMOOTH",
"385 282 OFFCURVE",
"451 477 OFFCURVE",
"553 678 CURVE",
"541 700 LINE"
);
}
);
width = 558;
}
);
leftKerningGroup = seven.lf;
rightKerningGroup = seven.lf;
unicode = 0037;
},
{
color = 3;
glyphname = eight;
lastChange = "2016-10-31 18:38:27 +0000";
layers = (
{
guideLines = (
{
angle = -34.8358;
position = "{285, 235}";
}
);
layerId = "E633209E-E2B6-404C-90C5-15D4CC42EC04";
paths = (
{
closed = 1;
nodes = (
"317 401 OFFCURVE",
"552 406 OFFCURVE",
"552 553 CURVE SMOOTH",
"552 648 OFFCURVE",
"453 710 OFFCURVE",
"316 710 CURVE SMOOTH",
"155 710 OFFCURVE",
"53 624 OFFCURVE",
"53 495 CURVE SMOOTH",
"53 447 OFFCURVE",
"67 387 OFFCURVE",
"146 332 CURVE SMOOTH",
"285 235 LINE SMOOTH",
"330 204 OFFCURVE",
"367 164 OFFCURVE",
"367 105 CURVE SMOOTH",
"367 60 OFFCURVE",
"346 23 OFFCURVE",
"309 23 CURVE SMOOTH",
"261 23 OFFCURVE",
"236 85 OFFCURVE",
"236 152 CURVE SMOOTH",
"236 242 OFFCURVE",
"281 326 OFFCURVE",
"281 326 CURVE",
"284 337 LINE",
"284 337 OFFCURVE",
"30 321 OFFCURVE",
"30 154 CURVE SMOOTH",
"30 51 OFFCURVE",
"127 -10 OFFCURVE",
"290 -10 CURVE SMOOTH",
"476 -10 OFFCURVE",
"580 70 OFFCURVE",
"580 198 CURVE SMOOTH",
"580 265 OFFCURVE",
"552 325 OFFCURVE",
"473 380 CURVE SMOOTH",
"317 487 LINE SMOOTH",
"274 517 OFFCURVE",
"250 558 OFFCURVE",
"250 601 CURVE SMOOTH",
"250 645 OFFCURVE",
"276 677 OFFCURVE",
"309 677 CURVE SMOOTH",
"352 677 OFFCURVE",
"377 622 OFFCURVE",
"377 550 CURVE SMOOTH",
"377 494 OFFCURVE",
"362 463 OFFCURVE",
"322 410 CURVE",
"317 401 LINE"
);
}
);
width = 610;
},
{
associatedMasterId = "E633209E-E2B6-404C-90C5-15D4CC42EC04";
layerId = "2CF58B47-EA53-4E00-93AE-E3FC8801050A";
name = "Oct 4 15, 22:40";
paths = (
{
closed = 1;
nodes = (
"298 401 OFFCURVE",
"518 406 OFFCURVE",
"518 553 CURVE SMOOTH",
"518 648 OFFCURVE",
"427 710 OFFCURVE",
"295 710 CURVE SMOOTH",
"148 710 OFFCURVE",
"53 633 OFFCURVE",
"53 514 CURVE SMOOTH",
"53 461 OFFCURVE",
"72 403 OFFCURVE",
"140 346 CURVE SMOOTH",
"267 240 LINE SMOOTH",
"308 206 OFFCURVE",
"329 163 OFFCURVE",
"329 101 CURVE SMOOTH",
"329 60 OFFCURVE",
"320 23 OFFCURVE",
"292 23 CURVE SMOOTH",
"257 23 OFFCURVE",
"238 78 OFFCURVE",
"236 172 CURVE SMOOTH",
"235 218 OFFCURVE",
"238 248 OFFCURVE",
"262 326 CURVE",
"265 337 LINE",
"265 337 OFFCURVE",
"31 322 OFFCURVE",
"31 153 CURVE SMOOTH",
"31 51 OFFCURVE",
"115 -10 OFFCURVE",
"268 -10 CURVE SMOOTH",
"442 -10 OFFCURVE",
"541 69 OFFCURVE",
"541 193 CURVE SMOOTH",
"541 255 OFFCURVE",
"516 309 OFFCURVE",
"450 364 CURVE SMOOTH",
"314 477 LINE SMOOTH",
"278 507 OFFCURVE",
"249 556 OFFCURVE",
"249 605 CURVE SMOOTH",
"249 645 OFFCURVE",
"268 677 OFFCURVE",
"293 677 CURVE SMOOTH",
"325 677 OFFCURVE",
"344 625 OFFCURVE",
"344 542 CURVE SMOOTH",
"344 495 OFFCURVE",
"338 454 OFFCURVE",
"303 410 CURVE",
"298 401 LINE"
);
}
);
width = 572;
},
{
associatedMasterId = "E633209E-E2B6-404C-90C5-15D4CC42EC04";
layerId = "4BF1280B-9BBF-4A28-9607-330A9B34EFFC";
name = "Oct 5 15, 00:51";
paths = (
{
closed = 1;
nodes = (
"317 401 OFFCURVE",
"554 406 OFFCURVE",
"554 553 CURVE SMOOTH",
"554 648 OFFCURVE",
"457 710 OFFCURVE",
"314 710 CURVE SMOOTH",
"158 710 OFFCURVE",
"55 635 OFFCURVE",
"55 511 CURVE SMOOTH",
"55 462 OFFCURVE",
"71 398 OFFCURVE",
"146 341 CURVE SMOOTH",
"285 235 LINE SMOOTH",
"328 202 OFFCURVE",
"367 165 OFFCURVE",
"367 102 CURVE SMOOTH",
"367 60 OFFCURVE",
"350 23 OFFCURVE",
"313 23 CURVE SMOOTH",
"265 23 OFFCURVE",
"236 85 OFFCURVE",
"236 154 CURVE SMOOTH",
"236 241 OFFCURVE",
"281 326 OFFCURVE",
"281 326 CURVE",
"284 337 LINE",
"284 337 OFFCURVE",
"30 322 OFFCURVE",
"30 153 CURVE SMOOTH",
"30 51 OFFCURVE",
"123 -10 OFFCURVE",
"286 -10 CURVE SMOOTH",
"472 -10 OFFCURVE",
"580 70 OFFCURVE",
"580 190 CURVE SMOOTH",
"580 257 OFFCURVE",
"546 314 OFFCURVE",
"473 370 CURVE SMOOTH",
"325 483 LINE SMOOTH",
"285 514 OFFCURVE",
"252 557 OFFCURVE",
"252 604 CURVE SMOOTH",
"252 645 OFFCURVE",
"278 677 OFFCURVE",
"311 677 CURVE SMOOTH",
"354 677 OFFCURVE",
"379 621 OFFCURVE",
"379 551 CURVE SMOOTH",
"379 494 OFFCURVE",
"362 463 OFFCURVE",
"322 410 CURVE",
"317 401 LINE"
);
}
);
width = 610;
},
{
associatedMasterId = "F46DA1CF-2E88-465F-AE2F-6AF07AC13E65";
layerId = "F2692684-62A7-4575-8A9A-4573CAF32794";
name = "Oct 14 15, 12:07";
paths = (
{
closed = 1;
nodes = (
"279 359 OFFCURVE",
"461 403 OFFCURVE",
"461 550 CURVE SMOOTH",
"461 640 OFFCURVE",
"393 705 OFFCURVE",
"282 705 CURVE SMOOTH",
"175 705 OFFCURVE",
"98 646 OFFCURVE",
"98 546 CURVE SMOOTH",
"98 479 OFFCURVE",
"133 423 OFFCURVE",
"215 384 CURVE SMOOTH",
"332 328 LINE SMOOTH",
"393 299 OFFCURVE",
"467 268 OFFCURVE",
"467 170 CURVE SMOOTH",
"467 76 OFFCURVE",
"399 14 OFFCURVE",
"281 14 CURVE SMOOTH",
"170 14 OFFCURVE",
"88 69 OFFCURVE",
"88 162 CURVE SMOOTH",
"88 302 OFFCURVE",
"276 359 OFFCURVE",
"276 359 CURVE",
"276 372 LINE",
"276 372 OFFCURVE",
"67 319 OFFCURVE",
"67 160 CURVE SMOOTH",
"67 59 OFFCURVE",
"151 -5 OFFCURVE",
"275 -5 CURVE SMOOTH",
"406 -5 OFFCURVE",
"492 67 OFFCURVE",
"492 175 CURVE SMOOTH",
"492 275 OFFCURVE",
"419 313 OFFCURVE",
"343 350 CURVE SMOOTH",
"228 406 LINE SMOOTH",
"168 435 OFFCURVE",
"121 477 OFFCURVE",
"121 550 CURVE SMOOTH",
"121 637 OFFCURVE",
"189 687 OFFCURVE",
"281 687 CURVE SMOOTH",
"379 687 OFFCURVE",
"441 631 OFFCURVE",
"441 548 CURVE SMOOTH",
"441 415 OFFCURVE",
"279 373 OFFCURVE",
"279 373 CURVE",
"279 359 LINE"
);
}
);
width = 559;
},
{
associatedMasterId = "F46DA1CF-2E88-465F-AE2F-6AF07AC13E65";
layerId = "F425F9FA-45D5-4DE3-894C-4AC01223B18E";
name = "Oct 14 16, 17:12";
paths = (
{
closed = 1;
nodes = (
"387 378 OFFCURVE",
"463 427 OFFCURVE",
"463 534 CURVE SMOOTH",
"463 637 OFFCURVE",
"393 705 OFFCURVE",
"286 705 CURVE SMOOTH",
"173 705 OFFCURVE",
"100 630 OFFCURVE",
"100 537 CURVE SMOOTH",
"100 469 OFFCURVE",
"139 417 OFFCURVE",
"212 384 CURVE SMOOTH",
"354 319 LINE SMOOTH",
"411 293 OFFCURVE",
"471 251 OFFCURVE",
"471 168 CURVE SMOOTH",
"471 75 OFFCURVE",
"396 14 OFFCURVE",
"281 14 CURVE SMOOTH",
"165 14 OFFCURVE",
"88 77 OFFCURVE",
"88 172 CURVE SMOOTH",
"88 268 OFFCURVE",
"167 326 OFFCURVE",
"257 370 CURVE",
"251 383 LINE",
"154 339 OFFCURVE",
"67 274 OFFCURVE",
"67 168 CURVE SMOOTH",
"67 64 OFFCURVE",
"152 -5 OFFCURVE",
"280 -5 CURVE SMOOTH",
"410 -5 OFFCURVE",
"496 65 OFFCURVE",
"496 171 CURVE SMOOTH",
"496 268 OFFCURVE",
"423 315 OFFCURVE",
"364 342 CURVE SMOOTH",
"224 406 LINE SMOOTH",
"176 428 OFFCURVE",
"123 467 OFFCURVE",
"123 540 CURVE SMOOTH",
"123 621 OFFCURVE",
"188 687 OFFCURVE",
"286 687 CURVE SMOOTH",
"381 687 OFFCURVE",
"443 625 OFFCURVE",
"443 531 CURVE SMOOTH",
"443 434 OFFCURVE",
"377 392 OFFCURVE",
"295 363 CURVE",
"300 349 LINE"
);
}
);
width = 563;
},
{
associatedMasterId = "F46DA1CF-2E88-465F-AE2F-6AF07AC13E65";
layerId = "139678E7-B3C6-4B06-90F3-1CCEF78E3A70";
name = "Oct 20 15, 18:23";
paths = (
{
closed = 1;
nodes = (
"369 380 OFFCURVE",
"451 439 OFFCURVE",
"451 546 CURVE SMOOTH",
"451 641 OFFCURVE",
"385 705 OFFCURVE",
"277 705 CURVE SMOOTH",
"161 705 OFFCURVE",
"97 632 OFFCURVE",
"97 541 CURVE SMOOTH",
"97 471 OFFCURVE",
"136 420 OFFCURVE",
"211 381 CURVE SMOOTH",
"324 323 LINE SMOOTH",
"411 279 OFFCURVE",
"456 235 OFFCURVE",
"456 161 CURVE SMOOTH",
"456 75 OFFCURVE",
"394 14 OFFCURVE",
"277 14 CURVE SMOOTH",
"167 14 OFFCURVE",
"88 67 OFFCURVE",
"88 162 CURVE SMOOTH",
"88 266 OFFCURVE",
"183 329 OFFCURVE",
"271 362 CURVE",
"267 375 LINE",
"171 344 OFFCURVE",
"67 279 OFFCURVE",
"67 160 CURVE SMOOTH",
"67 56 OFFCURVE",
"148 -5 OFFCURVE",
"273 -5 CURVE SMOOTH",
"410 -5 OFFCURVE",
"481 67 OFFCURVE",
"481 167 CURVE SMOOTH",
"481 247 OFFCURVE",
"435 295 OFFCURVE",
"341 343 CURVE SMOOTH",
"224 403 LINE SMOOTH",
"156 438 OFFCURVE",
"120 481 OFFCURVE",
"120 544 CURVE SMOOTH",
"120 623 OFFCURVE",
"176 687 OFFCURVE",
"277 687 CURVE SMOOTH",
"371 687 OFFCURVE",
"431 631 OFFCURVE",
"431 544 CURVE SMOOTH",
"431 447 OFFCURVE",
"357 393 OFFCURVE",
"284 366 CURVE",
"289 352 LINE"
);
}
);
width = 548;
}
);
leftKerningGroup = eight.lf;
leftMetricsKey = zero;
rightKerningGroup = eight.lf;
rightMetricsKey = zero;
unicode = 0038;
},
{
color = 3;
glyphname = asterisk;
lastChange = "2016-10-31 18:38:27 +0000";
layers = (
{
layerId = "E633209E-E2B6-404C-90C5-15D4CC42EC04";
paths = (
{
closed = 1;
nodes = (
"256 588 LINE",
"432 646 LINE",
"429 658 OFFCURVE",
"425 669 OFFCURVE",
"419 680 CURVE SMOOTH",
"401 712 OFFCURVE",
"364 728 OFFCURVE",
"311 675 CURVE",
"244 603 LINE",
"283 786 LINE",
"271 790 OFFCURVE",
"259 792 OFFCURVE",
"247 792 CURVE SMOOTH",
"210 792 OFFCURVE",
"178 768 OFFCURVE",
"197 696 CURVE",
"226 604 LINE",
"87 727 LINE",
"78 719 OFFCURVE",
"70 710 OFFCURVE",
"64 699 CURVE SMOOTH",
"46 667 OFFCURVE",
"50 627 OFFCURVE",
"122 608 CURVE",
"219 586 LINE",
"40 528 LINE",
"43 516 OFFCURVE",
"47 504 OFFCURVE",
"53 494 CURVE SMOOTH",
"71 462 OFFCURVE",
"108 446 OFFCURVE",
"161 499 CURVE",
"228 571 LINE",
"189 388 LINE",
"201 384 OFFCURVE",
"213 382 OFFCURVE",
"225 382 CURVE SMOOTH",
"262 382 OFFCURVE",
"294 406 OFFCURVE",
"275 478 CURVE",
"245 573 LINE",
"385 447 LINE",
"394 455 OFFCURVE",
"402 465 OFFCURVE",
"408 475 CURVE SMOOTH",
"427 507 OFFCURVE",
"422 547 OFFCURVE",
"350 566 CURVE SMOOTH"
);
}
);
width = 472;
},
{
associatedMasterId = "E633209E-E2B6-404C-90C5-15D4CC42EC04";
layerId = "64CD77A5-3411-4F7E-B937-9C95B88CC2D5";
name = "Regular Jun 20 16, 19:48";
paths = (
{
closed = 1;
nodes = (
"316 786 LINE",
"304 790 OFFCURVE",
"292 792 OFFCURVE",
"280 792 CURVE SMOOTH",
"243 792 OFFCURVE",
"211 768 OFFCURVE",
"230 696 CURVE SMOOTH",
"264 587 LINE",
"222 388 LINE",
"234 384 OFFCURVE",
"246 382 OFFCURVE",
"258 382 CURVE SMOOTH",
"295 382 OFFCURVE",
"327 406 OFFCURVE",
"308 478 CURVE SMOOTH",
"274 587 LINE"
);
},
{
closed = 1;
nodes = (
"465 646 LINE",
"462 658 OFFCURVE",
"458 669 OFFCURVE",
"452 680 CURVE SMOOTH",
"434 712 OFFCURVE",
"397 728 OFFCURVE",
"344 675 CURVE SMOOTH",
"266 591 LINE",
"73 528 LINE",
"76 516 OFFCURVE",
"80 504 OFFCURVE",
"86 494 CURVE SMOOTH",
"104 462 OFFCURVE",
"141 446 OFFCURVE",
"194 499 CURVE SMOOTH",
"271 582 LINE"
);
},
{
closed = 1;
nodes = (
"120 727 LINE",
"111 719 OFFCURVE",
"103 710 OFFCURVE",
"97 699 CURVE SMOOTH",
"79 667 OFFCURVE",
"83 627 OFFCURVE",
"155 608 CURVE SMOOTH",
"267 583 LINE",
"418 447 LINE",
"427 455 OFFCURVE",
"435 465 OFFCURVE",
"441 475 CURVE SMOOTH",
"460 507 OFFCURVE",
"455 547 OFFCURVE",
"383 566 CURVE SMOOTH",
"272 592 LINE"
);
}
);
width = 600;
},
{
associatedMasterId = "F46DA1CF-2E88-465F-AE2F-6AF07AC13E65";
layerId = "2B84E73A-FB2B-4E68-8968-106114B2710D";
name = "Light Aug 25 15, 14:01";
paths = (
{
closed = 1;
nodes = (
"288 769 LINE",
"288 769 OFFCURVE",
"280 773 OFFCURVE",
"271 773 CURVE SMOOTH",
"257 773 OFFCURVE",
"250 764 OFFCURVE",
"252 741 CURVE SMOOTH",
"266 587 LINE",
"272 587 LINE"
);
},
{
closed = 1;
nodes = (
"250 405 LINE",
"250 405 OFFCURVE",
"258 401 OFFCURVE",
"267 401 CURVE SMOOTH",
"281 401 OFFCURVE",
"288 410 OFFCURVE",
"286 433 CURVE SMOOTH",
"272 587 LINE",
"266 587 LINE"
);
},
{
closed = 1;
nodes = (
"436 662 LINE",
"436 662 OFFCURVE",
"436 670 OFFCURVE",
"431 678 CURVE SMOOTH",
"424 690 OFFCURVE",
"413 692 OFFCURVE",
"394 679 CURVE SMOOTH",
"267 590 LINE",
"270 584 LINE"
);
},
{
closed = 1;
nodes = (
"102 512 LINE",
"102 512 OFFCURVE",
"102 504 OFFCURVE",
"107 496 CURVE SMOOTH",
"114 484 OFFCURVE",
"125 482 OFFCURVE",
"144 495 CURVE SMOOTH",
"270 584 LINE",
"267 590 LINE"
);
},
{
closed = 1;
nodes = (
"417 480 LINE",
"417 480 OFFCURVE",
"425 484 OFFCURVE",
"429 492 CURVE SMOOTH",
"436 504 OFFCURVE",
"432 515 OFFCURVE",
"411 525 CURVE SMOOTH",
"270 590 LINE",
"267 584 LINE"
);
},
{
closed = 1;
nodes = (
"121 694 LINE",
"121 694 OFFCURVE",
"113 690 OFFCURVE",
"109 682 CURVE SMOOTH",
"102 670 OFFCURVE",
"106 659 OFFCURVE",
"127 649 CURVE SMOOTH",
"267 584 LINE",
"270 590 LINE"
);
}
);
width = 600;
}
);
leftKerningGroup = asterisk;
rightKerningGroup = asterisk;
unicode = 002A;
},
{
color = 3;
glyphname = comma;
lastChange = "2016-10-31 18:38:27 +0000";
layers = (
{
layerId = "E633209E-E2B6-404C-90C5-15D4CC42EC04";
paths = (
{
closed = 1;
nodes = (
"164 -87 OFFCURVE",
"198 -3 OFFCURVE",
"198 59 CURVE SMOOTH",
"198 124 OFFCURVE",
"161 156 OFFCURVE",
"111 156 CURVE SMOOTH",
"58 156 OFFCURVE",
"23 121 OFFCURVE",
"23 121 CURVE",
"23 121 OFFCURVE",
"98 85 OFFCURVE",
"98 -12 CURVE SMOOTH",
"98 -65 OFFCURVE",
"73 -110 OFFCURVE",
"20 -154 CURVE",
"36 -175 LINE"
);
}
);
width = 226;
}
);
leftKerningGroup = comma;
rightKerningGroup = comma;
rightMetricsKey = "=period-7";
unicode = 002C;
},
{
color = 3;
glyphname = exclam;
lastChange = "2016-10-31 18:38:27 +0000";
layers = (
{
layerId = "E633209E-E2B6-404C-90C5-15D4CC42EC04";
paths = (
{
closed = 1;
nodes = (
"208 -10 OFFCURVE",
"243 25 OFFCURVE",
"243 76 CURVE SMOOTH",
"243 124 OFFCURVE",
"211 156 OFFCURVE",
"163 156 CURVE SMOOTH",
"112 156 OFFCURVE",
"77 121 OFFCURVE",
"77 70 CURVE SMOOTH",
"77 22 OFFCURVE",
"109 -10 OFFCURVE",
"157 -10 CURVE SMOOTH"
);
},
{
closed = 1;
nodes = (
"47 447 OFFCURVE",
"127 373 OFFCURVE",
"147 197 CURVE",
"172 197 LINE",
"192 373 OFFCURVE",
"272 446 OFFCURVE",
"272 570 CURVE SMOOTH",
"272 666 OFFCURVE",
"216 710 OFFCURVE",
"160 710 CURVE SMOOTH",
"103 710 OFFCURVE",
"47 666 OFFCURVE",
"47 571 CURVE SMOOTH"
);
}
);
width = 319;
}
);
leftKerningGroup = exclam;
rightKerningGroup = exclam;
unicode = 0021;
},
{
color = 3;
glyphname = numbersign;
lastChange = "2016-10-31 18:38:27 +0000";
layers = (
{
layerId = "E633209E-E2B6-404C-90C5-15D4CC42EC04";
paths = (
{
closed = 1;
nodes = (
"541 0 LINE",
"660 700 LINE",
"512 700 LINE",
"393 0 LINE"
);
},
{
closed = 1;
nodes = (
"249 0 LINE",
"368 700 LINE",
"220 700 LINE",
"101 0 LINE"
);
},
{
closed = 1;
nodes = (
"702 212 LINE",
"702 246 LINE",
"2 246 LINE",
"2 212 LINE"
);
},
{
closed = 1;
nodes = (
"759 454 LINE",
"759 488 LINE",
"59 488 LINE",
"59 454 LINE"
);
}
);
width = 761;
}
);
unicode = 0023;
},
{
color = 3;
glyphname = period;
lastChange = "2016-10-31 18:38:27 +0000";
layers = (
{
layerId = "E633209E-E2B6-404C-90C5-15D4CC42EC04";
paths = (
{
closed = 1;
nodes = (
"166 -10 OFFCURVE",
"201 25 OFFCURVE",
"201 76 CURVE SMOOTH",
"201 124 OFFCURVE",
"169 156 OFFCURVE",
"121 156 CURVE SMOOTH",
"70 156 OFFCURVE",
"35 121 OFFCURVE",
"35 70 CURVE SMOOTH",
"35 22 OFFCURVE",
"67 -10 OFFCURVE",
"115 -10 CURVE SMOOTH"
);
}
);
width = 236;
}
);
leftKerningGroup = comma;
rightKerningGroup = comma;
unicode = 002E;
},
{
color = 3;
glyphname = question;
lastChange = "2016-10-31 18:38:27 +0000";
layers = (
{
background = {
paths = (
{
closed = 1;
nodes = (
"178 207 LINE",
"207 215 LINE",
"178 346 LINE",
"148 351 LINE"
);
},
{
closed = 1;
nodes = (
"241 412 OFFCURVE",
"148 351 OFFCURVE",
"148 351 CURVE",
"178 346 LINE",
"178 346 OFFCURVE",
"471 352 OFFCURVE",
"471 535 CURVE SMOOTH",
"471 654 OFFCURVE",
"345 710 OFFCURVE",
"216 710 CURVE SMOOTH",
"102 710 OFFCURVE",
"19 678 OFFCURVE",
"19 586 CURVE SMOOTH",
"19 511 OFFCURVE",
"73 501 OFFCURVE",
"100 501 CURVE SMOOTH",
"110 501 OFFCURVE",
"117 502 OFFCURVE",
"117 502 CURVE",
"162 675 LINE",
"162 675 OFFCURVE",
"169 679 OFFCURVE",
"181 679 CURVE SMOOTH",
"205 679 OFFCURVE",
"241 661 OFFCURVE",
"241 566 CURVE SMOOTH"
);
}
);
};
layerId = "E633209E-E2B6-404C-90C5-15D4CC42EC04";
paths = (
{
closed = 1;
nodes = (
"316 -10 OFFCURVE",
"351 25 OFFCURVE",
"351 76 CURVE SMOOTH",
"351 124 OFFCURVE",
"319 156 OFFCURVE",
"271 156 CURVE SMOOTH",
"220 156 OFFCURVE",
"185 121 OFFCURVE",
"185 70 CURVE SMOOTH",
"185 22 OFFCURVE",
"217 -10 OFFCURVE",
"265 -10 CURVE SMOOTH"
);
},
{
closed = 1;
nodes = (
"290 219 LINE",
"180 371 LINE",
"161 356 LINE",
"161 356 OFFCURVE",
"215 342 OFFCURVE",
"275 342 CURVE SMOOTH",
"406 342 OFFCURVE",
"488 410 OFFCURVE",
"488 513 CURVE SMOOTH",
"488 630 OFFCURVE",
"381 710 OFFCURVE",
"236 710 CURVE SMOOTH",
"92 710 OFFCURVE",
"19 632 OFFCURVE",
"19 563 CURVE SMOOTH",
"19 510 OFFCURVE",
"64 501 OFFCURVE",
"93 501 CURVE SMOOTH",
"107 501 OFFCURVE",
"118 503 OFFCURVE",
"118 503 CURVE",
"161 672 LINE",
"161 672 OFFCURVE",
"172 676 OFFCURVE",
"184 676 CURVE SMOOTH",
"232 676 OFFCURVE",
"263 615 OFFCURVE",
"263 525 CURVE SMOOTH",
"263 438 OFFCURVE",
"234 380 OFFCURVE",
"187 380 CURVE SMOOTH",
"167 380 OFFCURVE",
"140 390 OFFCURVE",
"140 390 CURVE",
"124 360 LINE",
"248 190 LINE"
);
}
);
width = 507;
},
{
associatedMasterId = "E633209E-E2B6-404C-90C5-15D4CC42EC04";
layerId = "F89EDAFD-BFCC-44AB-BB3E-340E6E709F48";
name = "Oct 4 15, 21:53";
paths = (
{
closed = 1;
nodes = (
"185 207 LINE",
"214 215 LINE",
"185 346 LINE",
"155 351 LINE"
);
},
{
closed = 1;
nodes = (
"251 -10 OFFCURVE",
"286 25 OFFCURVE",
"286 76 CURVE SMOOTH",
"286 124 OFFCURVE",
"254 156 OFFCURVE",
"206 156 CURVE SMOOTH",
"155 156 OFFCURVE",
"120 121 OFFCURVE",
"120 70 CURVE SMOOTH",
"120 22 OFFCURVE",
"152 -10 OFFCURVE",
"200 -10 CURVE SMOOTH"
);
},
{
closed = 1;
nodes = (
"248 412 OFFCURVE",
"155 351 OFFCURVE",
"155 351 CURVE",
"185 346 LINE",
"185 346 OFFCURVE",
"478 352 OFFCURVE",
"478 535 CURVE SMOOTH",
"478 654 OFFCURVE",
"352 710 OFFCURVE",
"223 710 CURVE SMOOTH",
"109 710 OFFCURVE",
"26 678 OFFCURVE",
"26 586 CURVE SMOOTH",
"26 511 OFFCURVE",
"80 501 OFFCURVE",
"107 501 CURVE SMOOTH",
"117 501 OFFCURVE",
"124 502 OFFCURVE",
"124 502 CURVE",
"169 675 LINE",
"169 675 OFFCURVE",
"176 679 OFFCURVE",
"188 679 CURVE SMOOTH",
"212 679 OFFCURVE",
"248 661 OFFCURVE",
"248 566 CURVE SMOOTH"
);
}
);
width = 502;
},
{
associatedMasterId = "F46DA1CF-2E88-465F-AE2F-6AF07AC13E65";
layerId = "793D11CA-A9CB-4D04-A6BD-28841B5BEA00";
name = "Oct 4 15, 21:57";
paths = (
{
closed = 1;
nodes = (
"175 160 LINE",
"192 164 LINE",
"167 305 LINE",
"148 311 LINE"
);
},
{
closed = 1;
nodes = (
"212 -5 OFFCURVE",
"224 7 OFFCURVE",
"224 25 CURVE SMOOTH",
"224 42 OFFCURVE",
"213 53 OFFCURVE",
"196 53 CURVE SMOOTH",
"178 53 OFFCURVE",
"166 41 OFFCURVE",
"166 23 CURVE SMOOTH",
"166 6 OFFCURVE",
"177 -5 OFFCURVE",
"194 -5 CURVE SMOOTH"
);
},
{
closed = 1;
nodes = (
"356 375 OFFCURVE",
"148 311 OFFCURVE",
"148 311 CURVE",
"167 305 LINE",
"167 305 OFFCURVE",
"378 367 OFFCURVE",
"378 531 CURVE SMOOTH",
"378 632 OFFCURVE",
"298 705 OFFCURVE",
"182 705 CURVE SMOOTH",
"71 705 OFFCURVE",
"24 638 OFFCURVE",
"24 589 CURVE SMOOTH",
"24 570 OFFCURVE",
"31 566 OFFCURVE",
"37 566 CURVE SMOOTH",
"40 566 OFFCURVE",
"42 567 OFFCURVE",
"42 567 CURVE",
"75 655 LINE",
"75 655 OFFCURVE",
"113 687 OFFCURVE",
"180 687 CURVE SMOOTH",
"280 687 OFFCURVE",
"356 620 OFFCURVE",
"356 528 CURVE SMOOTH"
);
}
);
width = 428;
}
);
leftKerningGroup = question;
rightKerningGroup = question;
unicode = 003F;
},
{
glyphname = quotesingle;
lastChange = "2016-10-31 18:38:27 +0000";
layers = (
{
layerId = "E633209E-E2B6-404C-90C5-15D4CC42EC04";
paths = (
{
closed = 1;
nodes = (
"116 700 LINE",
"91 430 LINE",
"47 430 LINE",
"30 700 LINE"
);
}
);
width = 146;
}
);
leftKerningGroup = quotesingle;
rightKerningGroup = quotesingle;
unicode = 0027;
},
{
color = 3;
glyphname = slash;
lastChange = "2016-10-31 18:38:27 +0000";
layers = (
{
layerId = "E633209E-E2B6-404C-90C5-15D4CC42EC04";
paths = (
{
closed = 1;
nodes = (
"22 -167 LINE",
"72 -184 LINE",
"401 775 LINE",
"353 792 LINE"
);
}
);
width = 423;
}
);
leftKerningGroup = slash;
rightKerningGroup = slash;
unicode = 002F;
},
{
color = 3;
glyphname = underscore;
lastChange = "2016-10-31 18:38:27 +0000";
layers = (
{
layerId = "E633209E-E2B6-404C-90C5-15D4CC42EC04";
paths = (
{
closed = 1;
nodes = (
"460 -94 LINE",
"460 -29 LINE",
"9 -29 LINE",
"9 -94 LINE"
);
}
);
width = 469;
}
);
leftKerningGroup = underscore;
rightKerningGroup = underscore;
unicode = 005F;
},
{
color = 3;
glyphname = braceleft;
lastChange = "2016-10-31 18:38:27 +0000";
layers = (
{
layerId = "E633209E-E2B6-404C-90C5-15D4CC42EC04";
paths = (
{
closed = 1;
nodes = (
"15 288 LINE",
"34 288 LINE SMOOTH",
"108 288 OFFCURVE",
"111 224 OFFCURVE",
"111 151 CURVE SMOOTH",
"111 97 OFFCURVE",
"97 43 OFFCURVE",
"97 -12 CURVE SMOOTH",
"97 -144 OFFCURVE",
"160 -190 OFFCURVE",
"343 -190 CURVE SMOOTH",
"353 -190 LINE",
"353 -166 LINE",
"343 -166 LINE SMOOTH",
"290 -166 OFFCURVE",
"271 -145 OFFCURVE",
"271 -81 CURVE SMOOTH",
"271 -7 OFFCURVE",
"285 68 OFFCURVE",
"285 142 CURVE SMOOTH",
"285 258 OFFCURVE",
"172 282 OFFCURVE",
"86 300 CURVE",
"172 318 OFFCURVE",
"285 342 OFFCURVE",
"285 458 CURVE SMOOTH",
"285 532 OFFCURVE",
"271 607 OFFCURVE",
"271 681 CURVE SMOOTH",
"271 745 OFFCURVE",
"290 766 OFFCURVE",
"343 766 CURVE SMOOTH",
"353 766 LINE",
"353 790 LINE",
"343 790 LINE SMOOTH",
"160 790 OFFCURVE",
"97 744 OFFCURVE",
"97 612 CURVE SMOOTH",
"97 557 OFFCURVE",
"111 503 OFFCURVE",
"111 449 CURVE SMOOTH",
"111 376 OFFCURVE",
"108 312 OFFCURVE",
"34 312 CURVE SMOOTH",
"15 312 LINE"
);
}
);
width = 365;
}
);
leftKerningGroup = braceleft;
rightKerningGroup = braceleft;
unicode = 007B;
},
{
glyphname = bracketleft;
lastChange = "2016-10-31 18:38:27 +0000";
layers = (
{
layerId = "E633209E-E2B6-404C-90C5-15D4CC42EC04";
paths = (
{
closed = 1;
nodes = (
"386 -186 LINE",
"386 -162 LINE",
"250 -149 LINE",
"250 746 LINE",
"386 759 LINE",
"386 783 LINE",
"80 783 LINE",
"80 -186 LINE"
);
}
);
width = 398;
}
);
leftKerningGroup = bracketleft;
rightKerningGroup = bracketleft;
unicode = 005B;
},
{
glyphname = parenleft;
lastChange = "2016-10-31 18:38:27 +0000";
layers = (
{
layerId = "E633209E-E2B6-404C-90C5-15D4CC42EC04";
paths = (
{
closed = 1;
nodes = (
"18 93 OFFCURVE",
"142 -103 OFFCURVE",
"328 -190 CURVE",
"342 -170 LINE",
"252 -78 OFFCURVE",
"192 109 OFFCURVE",
"192 300 CURVE SMOOTH",
"192 491 OFFCURVE",
"252 678 OFFCURVE",
"342 770 CURVE",
"328 790 LINE",
"142 703 OFFCURVE",
"18 507 OFFCURVE",
"18 300 CURVE SMOOTH"
);
}
);
width = 344;
}
);
leftKerningGroup = parenleft;
rightKerningGroup = parenleft;
unicode = 0028;
},
{
color = 3;
glyphname = emdash;
lastChange = "2016-10-31 18:38:27 +0000";
layers = (
{
layerId = "E633209E-E2B6-404C-90C5-15D4CC42EC04";
paths = (
{
closed = 1;
nodes = (
"30 245 LINE",
"920 245 LINE",
"920 295 LINE",
"30 295 LINE"
);
}
);
width = 950;
}
);
leftKerningGroup = emdash;
rightKerningGroup = emdash;
unicode = 2014;
},
{
color = 3;
glyphname = endash;
lastChange = "2016-10-31 18:38:27 +0000";
layers = (
{
layerId = "E633209E-E2B6-404C-90C5-15D4CC42EC04";
paths = (
{
closed = 1;
nodes = (
"30 245 LINE",
"590 245 LINE",
"590 295 LINE",
"30 295 LINE"
);
}
);
width = 620;
}
);
leftKerningGroup = emdash;
leftMetricsKey = emdash;
rightKerningGroup = emdash;
rightMetricsKey = emdash;
unicode = 2013;
},
{
color = 3;
glyphname = hyphen;
lastChange = "2016-10-31 18:38:27 +0000";
layers = (
{
layerId = "E633209E-E2B6-404C-90C5-15D4CC42EC04";
paths = (
{
closed = 1;
nodes = (
"53 245 LINE",
"363 245 LINE",
"363 295 LINE",
"53 295 LINE"
);
}
);
width = 416;
}
);
leftKerningGroup = emdash;
rightKerningGroup = emdash;
unicode = 002D;
},
{
color = 3;
glyphname = guillemetleft;
lastChange = "2016-10-31 18:38:27 +0000";
layers = (
{
layerId = "E633209E-E2B6-404C-90C5-15D4CC42EC04";
paths = (
{
closed = 1;
nodes = (
"405 112 LINE",
"200 366 LINE",
"200 334 LINE",
"405 588 LINE",
"390 605 LINE",
"35 360 LINE",
"35 340 LINE",
"390 95 LINE"
);
},
{
closed = 1;
nodes = (
"675 112 LINE",
"470 366 LINE",
"470 334 LINE",
"675 588 LINE",
"660 605 LINE",
"305 360 LINE",
"305 340 LINE",
"660 95 LINE"
);
}
);
width = 718;
}
);
leftMetricsKey = guilsinglleft;
rightMetricsKey = guilsinglleft;
unicode = 00AB;
},
{
color = 3;
glyphname = guilsinglleft;
lastChange = "2016-10-31 18:38:27 +0000";
layers = (
{
layerId = "E633209E-E2B6-404C-90C5-15D4CC42EC04";
paths = (
{
closed = 1;
nodes = (
"405 112 LINE",
"200 366 LINE",
"200 334 LINE",
"405 588 LINE",
"390 605 LINE",
"35 360 LINE",
"35 340 LINE",
"390 95 LINE"
);
}
);
width = 448;
}
);
leftKerningGroup = guilsinglleft;
rightKerningGroup = guilsinglleft;
unicode = 2039;
},
{
color = 3;
glyphname = quoteright;
lastChange = "2016-10-31 18:38:27 +0000";
layers = (
{
components = (
{
name = comma;
transform = "{1, 0, 0, 1, 0, 554}";
}
);
layerId = "E633209E-E2B6-404C-90C5-15D4CC42EC04";
width = 226;
},
{
associatedMasterId = "E633209E-E2B6-404C-90C5-15D4CC42EC04";
layerId = "9C5216F6-31ED-4885-B0C2-C84943BE218C";
name = "Regular Jul 23 16, 09:49";
paths = (
{
closed = 1;
nodes = (
"168 542 OFFCURVE",
"180 615 OFFCURVE",
"180 658 CURVE SMOOTH",
"180 726 OFFCURVE",
"149 765 OFFCURVE",
"98 765 CURVE SMOOTH",
"55 765 OFFCURVE",
"23 736 OFFCURVE",
"23 692 CURVE",
"62 654 OFFCURVE",
"93 602 OFFCURVE",
"93 536 CURVE SMOOTH",
"93 502 OFFCURVE",
"85 464 OFFCURVE",
"65 423 CURVE",
"81 413 LINE"
);
}
);
width = 215;
}
);
leftKerningGroup = quoteright;
leftMetricsKey = comma;
rightKerningGroup = quoteright;
rightMetricsKey = comma;
unicode = 2019;
},
